<svg width="11" height="12" viewBox="0 0 11 12" fill="none" xmlns="http://www.w3.org/2000/svg">
<path opacity="0.55" d="M6.43567 9.96478V11.3105L5.2329 12L4.06433 11.3105V9.96478L5.2329 10.6543L6.43567 9.96478ZM0 5.31047L1.16857 6V8.30769L3.18078 9.481V10.8267L0 8.99722V5.31047ZM10.4658 5.31047V9.00278L7.25081 10.8323V9.48656L9.26303 8.31325V6.00556L10.4658 5.31047ZM7.24511 3.481L8.44788 4.17053V5.51622L6.43567 6.68953V9.03058L5.2671 9.72011L4.10423 9.03058V6.68397L2.01792 5.51066V4.16497L3.22068 3.47544L5.2329 4.64875L7.24511 3.481ZM2.01792 6.47822L3.18648 7.16775V8.51344L2.01792 7.82391V6.47822ZM8.44788 6.47822V7.82391L7.27932 8.51344V7.16775L8.44788 6.47822ZM1.16857 2.30769L2.37134 2.99722L1.16857 3.68675V5.03244L0 4.34291V2.99722L1.16857 2.30769ZM9.29723 2.30769L10.5 2.99722V4.34291L9.29723 5.03244V3.68675L8.12866 2.99722L9.29723 2.30769ZM5.2329 2.30769L6.43567 2.99722L5.2329 3.68675L4.06433 2.99722L5.2329 2.30769ZM5.2329 0L8.44788 1.82947L7.27932 2.519L5.2671 1.34569L3.21498 2.519L2.04642 1.82947L5.2329 0Z" fill="#D1DBE0"/>
</svg>
