<svg width="121" height="35" viewBox="0 0 121 35" fill="none" xmlns="http://www.w3.org/2000/svg">
<path d="M5.808 23.416H10.032V26.2H3.936C2.88 25.208 2.08 23.952 1.536 22.432C0.992 20.912 0.72 19.352 0.72 17.752C0.72 16.136 1.024 14.584 1.632 13.096C2.24 11.608 3.144 10.3759 4.344 9.39995H10.032V12.28H5.808C5.376 12.776 5 13.576 4.68 14.68C4.376 15.784 4.224 16.84 4.224 17.848C4.224 18.856 4.376 19.912 4.68 21.016C5 22.12 5.376 22.92 5.808 23.416ZM18.9446 26.2L18.4406 23.536H14.6486L14.1446 26.2H10.8806L14.1206 9.39995H19.0886L22.1606 26.2H18.9446ZM16.4966 12.5199L15.5606 18.112L15.0326 20.968H18.0326L17.4806 18.112L16.5446 12.5199H16.4966ZM29.6783 18.52H29.5823H29.6783L30.9503 13.264L31.9823 9.39995H34.9823L36.0623 26.2H32.9183L32.4623 17.032H32.3423L30.6143 23.8H28.6463L26.9183 17.032H26.7983L26.3423 26.2H23.1982L24.2783 9.39995H27.2783L28.3103 13.264L29.5823 18.52H29.6783ZM37.9958 26.2V9.39995H46.6118V12.28H41.2838V16.288H46.0358V19.072H41.2838V23.416H46.7078V26.2H37.9958ZM48.5661 26.2V9.39995H51.8541V23.416H56.8461V26.2H48.5661ZM65.5776 9.39995C66.6976 10.312 67.5296 11.536 68.0736 13.0719C68.6176 14.608 68.8896 16.192 68.8896 17.824C68.8896 19.44 68.6256 20.976 68.0976 22.432C67.5696 23.888 66.7296 25.144 65.5776 26.2H60.6336C59.4816 25.144 58.6416 23.888 58.1136 22.432C57.5856 20.976 57.3216 19.44 57.3216 17.824C57.3216 16.192 57.5936 14.608 58.1376 13.0719C58.6816 11.536 59.5136 10.312 60.6336 9.39995H65.5776ZM62.2416 23.416H63.9696C64.3696 22.952 64.7056 22.2 64.9776 21.16C65.2656 20.104 65.4096 18.992 65.4096 17.824C65.4096 16.656 65.2736 15.56 65.0016 14.536C64.7296 13.496 64.3936 12.744 63.9936 12.28H62.2416C61.8416 12.744 61.4976 13.496 61.2096 14.536C60.9376 15.56 60.8016 16.656 60.8016 17.824C60.8016 18.992 60.9376 20.104 61.2096 21.16C61.4976 22.2 61.8416 22.952 62.2416 23.416ZM72.6296 12.28H69.0056V9.39995H79.5176V12.28H75.8936V26.2H72.6296V12.28Z" fill="white"/>
</svg>
