<svg width="614" height="736" viewBox="0 0 614 736" fill="none" xmlns="http://www.w3.org/2000/svg">
<path d="M412.521 591.55C335.442 554.412 303.054 461.618 340.394 384.119C377.734 306.621 470.49 274.123 547.569 311.261C624.648 348.4 598.558 346.338 613.383 371.781L484.265 0.451983L113.392 130.877C142.605 126.833 173.309 130.936 201.738 144.634C278.817 181.772 311.134 274.713 273.865 352.065C236.596 429.416 143.769 462.061 66.6897 424.922C-10.3897 387.784 15.7006 389.846 0.876091 364.402L129.994 735.732L500.866 605.306C471.654 609.351 440.95 605.247 412.521 591.55Z" fill="url(#paint0_linear_0_2610)"/>
<defs>
<linearGradient id="paint0_linear_0_2610" x1="484.265" y1="0.451983" x2="129.994" y2="735.732" gradientUnits="userSpaceOnUse">
<stop stop-color="#0D0D0D" stop-opacity="0.8"/>
<stop offset="1" stop-color="#0D0D0D" stop-opacity="0"/>
</linearGradient>
</defs>
</svg>
