<svg width="423" height="253" viewBox="0 0 423 253" fill="none" xmlns="http://www.w3.org/2000/svg">
<path d="M160.047 251.906L219.5 196.613" stroke="url(#paint0_linear_2019_148)"/>
<line x1="321.657" y1="101.25" x2="373.003" y2="52.7638" stroke="url(#paint1_linear_2019_148)"/>
<path d="M192.16 35.6133L59 160.445L221.534 218.613L356 93.1276L192.16 35.6133Z" stroke="#191A1A"/>
<path d="M218.66 197.248L322.5 100.613" stroke="#191A1A"/>
<path d="M41.5 198.756L101.789 144.375" stroke="url(#paint2_linear_2019_148)"/>
<line x1="205.385" y1="50.5785" x2="257.464" y2="2.88043" stroke="url(#paint3_linear_2019_148)"/>
<path d="M100.938 144.996L206.237 49.9544" stroke="#191A1A"/>
<path d="M92 151.613L220 197.113" stroke="#191A1A"/>
<path d="M218.5 196.613L320.497 232.974" stroke="url(#paint4_linear_2019_148)"/>
<line x1="0.167108" y1="119.164" x2="93.1671" y2="152.142" stroke="url(#paint5_linear_2019_148)"/>
<path d="M194 55.5918L322 101.092" stroke="#191A1A"/>
<path d="M320.5 100.592L422.497 136.953" stroke="url(#paint6_linear_2019_148)"/>
<line x1="102.167" y1="23.142" x2="195.167" y2="56.1205" stroke="url(#paint7_linear_2019_148)"/>
<path fill-rule="evenodd" clip-rule="evenodd" d="M123.763 130.9C124.385 134.482 127.416 137.626 132.709 139.35L196.395 82.0933C200.217 78.6578 201.702 74.9721 201.088 71.7013L205.236 91.2868C205.85 94.5577 204.364 98.2434 200.543 101.679L136.857 158.936C131.564 157.212 128.533 154.067 127.911 150.485L123.763 130.9Z" fill="url(#paint8_linear_2019_148)"/>
<path fill-rule="evenodd" clip-rule="evenodd" d="M123.763 130.9C124.385 134.482 127.416 137.626 132.709 139.35L196.395 82.0933C200.217 78.6578 201.702 74.9721 201.088 71.7013L205.236 91.2868C205.85 94.5577 204.364 98.2434 200.543 101.679L136.857 158.936C131.564 157.212 128.533 154.067 127.911 150.485L123.763 130.9Z" fill="url(#paint9_linear_2019_148)" fill-opacity="0.2"/>
<path fill-rule="evenodd" clip-rule="evenodd" d="M274.091 115.377C264.119 123.208 256.455 121.598 243.501 117.379L200.01 103.212C188.906 99.5945 173.24 102.912 164.556 110.72L168.703 130.305C177.388 122.498 193.054 119.18 204.158 122.797L247.648 136.964C260.603 141.184 268.266 142.794 278.239 134.962L274.091 115.377Z" fill="url(#paint10_linear_2019_148)"/>
<path fill-rule="evenodd" clip-rule="evenodd" d="M274.091 115.377C264.119 123.208 256.455 121.598 243.501 117.379L200.01 103.212C188.906 99.5945 173.24 102.912 164.556 110.72L168.703 130.305C177.388 122.498 193.054 119.18 204.158 122.797L247.648 136.964C260.603 141.184 268.266 142.794 278.239 134.962L274.091 115.377Z" fill="url(#paint11_linear_2019_148)" fill-opacity="0.2"/>
<path fill-rule="evenodd" clip-rule="evenodd" d="M164.555 110.719L234.417 133.476C244.596 136.792 259.076 133.974 267.037 126.817C267.398 126.492 267.398 126.492 267.76 126.167C271.841 123.064 274.433 119.033 274.09 115.376L278.238 134.961C278.581 138.619 275.989 142.65 271.908 145.752C271.546 146.077 271.546 146.077 271.184 146.403C263.224 153.56 248.744 156.378 238.565 153.062L168.702 130.304L164.555 110.719Z" fill="url(#paint12_linear_2019_148)"/>
<path fill-rule="evenodd" clip-rule="evenodd" d="M164.555 110.719L234.417 133.476C244.596 136.792 259.076 133.974 267.037 126.817C267.398 126.492 267.398 126.492 267.76 126.167C271.841 123.064 274.433 119.033 274.09 115.376L278.238 134.961C278.581 138.619 275.989 142.65 271.908 145.752C271.546 146.077 271.546 146.077 271.184 146.403C263.224 153.56 248.744 156.378 238.565 153.062L168.702 130.304L164.555 110.719Z" fill="url(#paint13_linear_2019_148)" fill-opacity="0.2"/>
<path fill-rule="evenodd" clip-rule="evenodd" d="M128.316 120.635C124.669 123.914 123.19 127.594 123.764 130.9L125.838 140.693L127.912 150.486C127.338 147.179 128.816 143.5 132.464 140.22L128.316 120.635Z" fill="url(#paint14_linear_2019_148)"/>
<path fill-rule="evenodd" clip-rule="evenodd" d="M128.316 120.635C124.669 123.914 123.19 127.594 123.764 130.9L125.838 140.693L127.912 150.486C127.338 147.179 128.816 143.5 132.464 140.22L128.316 120.635Z" fill="url(#paint15_linear_2019_148)" fill-opacity="0.2"/>
<path fill-rule="evenodd" clip-rule="evenodd" d="M201.087 71.7011C200.422 68.1577 197.293 65.1011 192 63.377L196.148 82.9625C201.441 84.6866 204.57 87.7432 205.235 91.2867L201.087 71.7011Z" fill="url(#paint16_linear_2019_148)"/>
<path fill-rule="evenodd" clip-rule="evenodd" d="M201.087 71.7011C200.422 68.1577 197.293 65.1011 192 63.377L196.148 82.9625C201.441 84.6866 204.57 87.7432 205.235 91.2867L201.087 71.7011Z" fill="url(#paint17_linear_2019_148)" fill-opacity="0.2"/>
<path fill-rule="evenodd" clip-rule="evenodd" d="M192 63.3773C192.361 63.052 128.313 120.635 128.313 120.635L132.461 140.22C132.461 140.22 196.509 82.6376 196.147 82.9628L192 63.3773Z" fill="url(#paint18_linear_2019_148)"/>
<path fill-rule="evenodd" clip-rule="evenodd" d="M192 63.3773C192.361 63.052 128.313 120.635 128.313 120.635L132.461 140.22C132.461 140.22 196.509 82.6376 196.147 82.9628L192 63.3773Z" fill="url(#paint19_linear_2019_148)" fill-opacity="0.2"/>
<path d="M243.5 117.377L200.009 103.21C188.905 99.5928 173.239 102.91 164.555 110.718L234.417 133.476C244.596 136.792 259.076 133.974 267.037 126.817C267.398 126.491 267.398 126.491 267.76 126.166C271.841 123.064 274.433 119.033 274.09 115.375C264.118 123.207 256.454 121.597 243.5 117.377ZM128.314 120.633C120.715 127.465 122.53 136.034 132.708 139.35L196.395 82.0924C204.356 74.9353 202.179 66.6919 192.001 63.3762C192.362 63.051 128.314 120.633 128.314 120.633Z" fill="url(#paint20_linear_2019_148)"/>
<defs>
<linearGradient id="paint0_linear_2019_148" x1="160.123" y1="251.987" x2="219.424" y2="196.532" gradientUnits="userSpaceOnUse">
<stop stop-color="#0A0A0A"/>
<stop offset="1" stop-color="#191A1A"/>
</linearGradient>
<linearGradient id="paint1_linear_2019_148" x1="322.343" y1="101.977" x2="373.689" y2="53.4909" gradientUnits="userSpaceOnUse">
<stop stop-color="#191A1A"/>
<stop offset="1" stop-color="#0A0A0A"/>
</linearGradient>
<linearGradient id="paint2_linear_2019_148" x1="41.5744" y1="198.838" x2="101.714" y2="144.293" gradientUnits="userSpaceOnUse">
<stop stop-color="#0A0A0A"/>
<stop offset="1" stop-color="#191A1A"/>
</linearGradient>
<linearGradient id="paint3_linear_2019_148" x1="206.061" y1="51.316" x2="258.139" y2="3.61787" gradientUnits="userSpaceOnUse">
<stop stop-color="#191A1A"/>
<stop offset="1" stop-color="#0A0A0A"/>
</linearGradient>
<linearGradient id="paint4_linear_2019_148" x1="218.481" y1="196.668" x2="320.517" y2="232.92" gradientUnits="userSpaceOnUse">
<stop stop-color="#191A1A"/>
<stop offset="1" stop-color="#0A0A0A"/>
</linearGradient>
<linearGradient id="paint5_linear_2019_148" x1="-0.167108" y1="120.106" x2="92.8329" y2="153.085" gradientUnits="userSpaceOnUse">
<stop stop-color="#0A0A0A"/>
<stop offset="1" stop-color="#191A1A"/>
</linearGradient>
<linearGradient id="paint6_linear_2019_148" x1="320.481" y1="100.646" x2="422.517" y2="136.898" gradientUnits="userSpaceOnUse">
<stop stop-color="#191A1A"/>
<stop offset="1" stop-color="#0A0A0A"/>
</linearGradient>
<linearGradient id="paint7_linear_2019_148" x1="101.833" y1="24.0845" x2="194.833" y2="57.063" gradientUnits="userSpaceOnUse">
<stop stop-color="#0A0A0A"/>
<stop offset="1" stop-color="#191A1A"/>
</linearGradient>
<linearGradient id="paint8_linear_2019_148" x1="122.54" y1="125.152" x2="208.55" y2="106.937" gradientUnits="userSpaceOnUse">
<stop stop-color="#123B28"/>
<stop offset="1" stop-color="#32A16D"/>
</linearGradient>
<linearGradient id="paint9_linear_2019_148" x1="192.946" y1="73.8027" x2="207.723" y2="143.577" gradientUnits="userSpaceOnUse">
<stop/>
<stop offset="1" stop-opacity="0"/>
</linearGradient>
<linearGradient id="paint10_linear_2019_148" x1="169.297" y1="133.107" x2="273.187" y2="111.105" gradientUnits="userSpaceOnUse">
<stop stop-color="#32A16D"/>
<stop offset="1" stop-color="#123B28"/>
</linearGradient>
<linearGradient id="paint11_linear_2019_148" x1="257.669" y1="86.8098" x2="268.854" y2="139.624" gradientUnits="userSpaceOnUse">
<stop/>
<stop offset="1" stop-opacity="0"/>
</linearGradient>
<linearGradient id="paint12_linear_2019_148" x1="170.863" y1="140.506" x2="274.753" y2="118.505" gradientUnits="userSpaceOnUse">
<stop stop-color="#32A16D"/>
<stop offset="1" stop-color="#123B28"/>
</linearGradient>
<linearGradient id="paint13_linear_2019_148" x1="258.582" y1="91.125" x2="271.074" y2="150.11" gradientUnits="userSpaceOnUse">
<stop/>
<stop offset="1" stop-opacity="0"/>
</linearGradient>
<linearGradient id="paint14_linear_2019_148" x1="124.895" y1="136.242" x2="131.332" y2="134.879" gradientUnits="userSpaceOnUse">
<stop offset="0.736666" stop-color="#123B28"/>
<stop offset="1" stop-color="#123B28"/>
</linearGradient>
<linearGradient id="paint15_linear_2019_148" x1="127.732" y1="120.911" x2="133.705" y2="149.117" gradientUnits="userSpaceOnUse">
<stop/>
<stop offset="1" stop-opacity="0"/>
</linearGradient>
<linearGradient id="paint16_linear_2019_148" x1="195.112" y1="78.0741" x2="202.124" y2="76.5891" gradientUnits="userSpaceOnUse">
<stop stop-color="#32A16D"/>
<stop offset="1" stop-color="#32A16D"/>
</linearGradient>
<linearGradient id="paint17_linear_2019_148" x1="198.374" y1="62.1845" x2="204.537" y2="91.2879" gradientUnits="userSpaceOnUse">
<stop/>
<stop offset="1" stop-opacity="0"/>
</linearGradient>
<linearGradient id="paint18_linear_2019_148" x1="125.951" y1="109.481" x2="198.511" y2="94.1148" gradientUnits="userSpaceOnUse">
<stop stop-color="#123B28"/>
<stop offset="1" stop-color="#32A16D"/>
</linearGradient>
<linearGradient id="paint19_linear_2019_148" x1="185.135" y1="65.1591" x2="198.025" y2="126.029" gradientUnits="userSpaceOnUse">
<stop/>
<stop offset="1" stop-opacity="0"/>
</linearGradient>
<linearGradient id="paint20_linear_2019_148" x1="129.974" y1="160.015" x2="278.677" y2="104.993" gradientUnits="userSpaceOnUse">
<stop stop-color="#2A865B"/>
<stop offset="0.526114" stop-color="#2EEA90"/>
<stop offset="1" stop-color="#2E9162"/>
</linearGradient>
</defs>
</svg>
