<svg width="437" height="276" viewBox="0 0 437 276" fill="none" xmlns="http://www.w3.org/2000/svg">
<path d="M122 136.5L364 35.5" stroke="#1A1A1A"/>
<path d="M363 36L437 5" stroke="url(#paint0_linear_111_684)"/>
<path d="M97 147L123 136" stroke="url(#paint1_linear_111_684)"/>
<path d="M322.5 241.592L286.5 154.5" stroke="url(#paint2_linear_111_684)"/>
<path d="M287 156L189 -81.4082" stroke="#1A1A1A"/>
<path d="M448.5 241.592L394.5 111" stroke="url(#paint3_linear_111_684)"/>
<path d="M394.5 111.5L315 -81.4082" stroke="#1A1A1A"/>
<path d="M294.5 241.592L262.5 164.5" stroke="url(#paint4_linear_111_684)"/>
<path d="M263 165.5L161 -81.4082" stroke="#1A1A1A"/>
<path d="M166.5 241.592L123 136" stroke="url(#paint5_linear_111_684)"/>
<path d="M123 136L92 60.5" stroke="#1A1A1A"/>
<path d="M92 60.5L33 -81" stroke="url(#paint6_linear_111_684)"/>
<path d="M184 198.5L263.5 165.5" stroke="url(#paint7_linear_111_684)"/>
<path d="M394.5 111.5L507 65" stroke="url(#paint8_linear_111_684)"/>
<path d="M262.5 166L394.5 111.5" stroke="#1A1A1A"/>
<path d="M91 61.5L360 -50" stroke="#1A1A1A"/>
<path d="M37 84L92 61" stroke="url(#paint9_linear_111_684)"/>
<g opacity="0.3" filter="url(#filter0_f_111_684)">
<rect x="85.1135" y="51.0005" width="155.48" height="108.309" rx="54.1546" transform="rotate(-18.7148 85.1135 51.0005)" fill="#0D0D0D"/>
<rect x="85.1135" y="51.0005" width="155.48" height="108.309" rx="54.1546" transform="rotate(-18.7148 85.1135 51.0005)" fill="url(#paint10_linear_111_684)" fill-opacity="0.2"/>
<rect x="85.1135" y="51.0005" width="155.48" height="108.309" rx="54.1546" transform="rotate(-18.7148 85.1135 51.0005)" stroke="#1A1A1A" stroke-width="1.75636"/>
<rect x="85.1135" y="51.0005" width="155.48" height="108.309" rx="54.1546" transform="rotate(-18.7148 85.1135 51.0005)" stroke="url(#paint11_radial_111_684)" stroke-width="1.75636"/>
<g clip-path="url(#clip0_111_684)">
<path d="M164.169 43.0802L164.238 44.7884L179.506 89.8579L180.118 90.1592L196.849 70.7059L164.169 43.0802Z" fill="url(#paint12_linear_111_684)"/>
<path d="M164.169 43.0802L164.238 44.7884L179.506 89.8579L180.118 90.1592L196.849 70.7059L164.169 43.0802Z" fill="url(#paint13_linear_111_684)" fill-opacity="0.2"/>
<path d="M164.169 43.0802L155.008 84.8804L180.118 90.1592L172.708 68.2837L164.169 43.0802Z" fill="url(#paint14_linear_111_684)"/>
<path d="M181.46 94.1198L181.309 94.5214L186.748 110.576L187.26 111.241L198.206 74.6685L181.46 94.1198Z" fill="url(#paint15_linear_111_684)"/>
<path d="M181.46 94.1198L181.309 94.5214L186.748 110.576L187.26 111.241L198.206 74.6685L181.46 94.1198Z" fill="url(#paint16_linear_111_684)" fill-opacity="0.2"/>
<path d="M187.26 111.241L181.46 94.1198L156.352 88.8475L187.26 111.241Z" fill="url(#paint17_linear_111_684)"/>
<path d="M180.118 90.1591L196.849 70.7058L172.707 68.2836L180.118 90.1591Z" fill="url(#paint18_linear_111_684)"/>
<path d="M180.118 90.1591L196.849 70.7058L172.707 68.2836L180.118 90.1591Z" fill="url(#paint19_linear_111_684)" fill-opacity="0.2"/>
<path d="M155.008 84.8804L180.118 90.1592L172.708 68.2837L155.008 84.8804Z" fill="url(#paint20_linear_111_684)"/>
<path d="M155.008 84.8804L180.118 90.1592L172.708 68.2837L155.008 84.8804Z" fill="url(#paint21_linear_111_684)" fill-opacity="0.2"/>
</g>
<g filter="url(#filter1_f_111_684)">
<rect x="85.1135" y="51.0005" width="155.48" height="108.309" rx="54.1546" transform="rotate(-18.7148 85.1135 51.0005)" stroke="#0F0F0F" stroke-width="1.75636"/>
<rect x="85.1135" y="51.0005" width="155.48" height="108.309" rx="54.1546" transform="rotate(-18.7148 85.1135 51.0005)" stroke="url(#paint22_radial_111_684)" stroke-width="1.75636"/>
</g>
<g filter="url(#filter2_f_111_684)">
<circle cx="157.502" cy="83.6553" r="43.24" transform="rotate(-18.7148 157.502 83.6553)" fill="#2EEA90" fill-opacity="0.3"/>
</g>
</g>
<rect x="93.842" y="61.7016" width="113.991" height="79.4071" rx="39.7035" transform="rotate(-22.6292 93.842 61.7016)" fill="#0D0D0D"/>
<rect x="93.842" y="61.7016" width="113.991" height="79.4071" rx="39.7035" transform="rotate(-22.6292 93.842 61.7016)" fill="url(#paint23_linear_111_684)" fill-opacity="0.2"/>
<rect x="93.842" y="61.7016" width="113.991" height="79.4071" rx="39.7035" transform="rotate(-22.6292 93.842 61.7016)" stroke="#1A1A1A" stroke-width="1.28768"/>
<rect x="93.842" y="61.7016" width="113.991" height="79.4071" rx="39.7035" transform="rotate(-22.6292 93.842 61.7016)" stroke="url(#paint24_radial_111_684)" stroke-width="1.28768"/>
<g clip-path="url(#clip1_111_684)">
<path d="M151.267 51.9521L151.403 53.1981L164.826 85.3997L165.289 85.5894L176.553 70.5231L151.267 51.9521Z" fill="url(#paint25_linear_111_684)"/>
<path d="M151.267 51.9521L151.403 53.1981L164.826 85.3997L165.289 85.5894L176.553 70.5231L151.267 51.9521Z" fill="url(#paint26_linear_111_684)" fill-opacity="0.2"/>
<path d="M151.267 51.9521L146.658 82.985L165.289 85.5894L158.774 69.9597L151.267 51.9521Z" fill="url(#paint27_linear_111_684)"/>
<path d="M166.469 88.4192L166.378 88.7205L171.16 100.191L171.568 100.652L177.744 73.3536L166.469 88.4192Z" fill="url(#paint28_linear_111_684)"/>
<path d="M166.469 88.4192L166.378 88.7205L171.16 100.191L171.568 100.652L177.744 73.3536L166.469 88.4192Z" fill="url(#paint29_linear_111_684)" fill-opacity="0.2"/>
<path d="M171.568 100.652L166.469 88.4192L147.84 85.8194L171.568 100.652Z" fill="url(#paint30_linear_111_684)"/>
<path d="M165.289 85.5894L176.553 70.523L158.773 69.9597L165.289 85.5894Z" fill="url(#paint31_linear_111_684)"/>
<path d="M165.289 85.5894L176.553 70.523L158.773 69.9597L165.289 85.5894Z" fill="url(#paint32_linear_111_684)" fill-opacity="0.2"/>
<path d="M146.658 82.985L165.289 85.5894L158.774 69.9597L146.658 82.985Z" fill="url(#paint33_linear_111_684)"/>
<path d="M146.658 82.985L165.289 85.5894L158.774 69.9597L146.658 82.985Z" fill="url(#paint34_linear_111_684)" fill-opacity="0.2"/>
</g>
<g filter="url(#filter3_f_111_684)">
<rect x="93.842" y="61.7016" width="113.991" height="79.4071" rx="39.7035" transform="rotate(-22.6292 93.842 61.7016)" stroke="#0F0F0F" stroke-width="1.28768"/>
<rect x="93.842" y="61.7016" width="113.991" height="79.4071" rx="39.7035" transform="rotate(-22.6292 93.842 61.7016)" stroke="url(#paint35_radial_111_684)" stroke-width="1.28768"/>
</g>
<g filter="url(#filter4_f_111_684)">
<circle cx="148.425" cy="81.9634" r="31.7015" transform="rotate(-22.6292 148.425 81.9634)" fill="#2EEA90" fill-opacity="0.3"/>
</g>
<g opacity="0.3" filter="url(#filter5_f_111_684)">
<rect x="-0.428179" y="1.13318" width="151.654" height="105.644" rx="52.8219" transform="matrix(-0.911399 0.411524 0.411524 0.911399 370.368 16.1177)" fill="#0D0D0D"/>
<rect x="-0.428179" y="1.13318" width="151.654" height="105.644" rx="52.8219" transform="matrix(-0.911399 0.411524 0.411524 0.911399 370.368 16.1177)" fill="url(#paint36_linear_111_684)" fill-opacity="0.2"/>
<rect x="-0.428179" y="1.13318" width="151.654" height="105.644" rx="52.8219" transform="matrix(-0.911399 0.411524 0.411524 0.911399 370.368 16.1177)" stroke="#1A1A1A" stroke-width="1.71314"/>
<rect x="-0.428179" y="1.13318" width="151.654" height="105.644" rx="52.8219" transform="matrix(-0.911399 0.411524 0.411524 0.911399 370.368 16.1177)" stroke="url(#paint37_radial_111_684)" stroke-width="1.71314"/>
<g filter="url(#filter6_f_111_684)">
<rect x="-0.428179" y="1.13318" width="151.654" height="105.644" rx="52.8219" transform="matrix(-0.911399 0.411524 0.411524 0.911399 370.368 16.1177)" stroke="#0F0F0F" stroke-width="1.71314"/>
<rect x="-0.428179" y="1.13318" width="151.654" height="105.644" rx="52.8219" transform="matrix(-0.911399 0.411524 0.411524 0.911399 370.368 16.1177)" stroke="url(#paint38_radial_111_684)" stroke-width="1.71314"/>
</g>
<g filter="url(#filter7_f_111_684)">
<circle cx="42.1759" cy="42.1759" r="42.1759" transform="matrix(-0.911399 0.411524 0.411524 0.911399 362.407 32.6363)" fill="#2EEA90" fill-opacity="0.3"/>
</g>
<path fill-rule="evenodd" clip-rule="evenodd" d="M323.27 99.7446C322.138 97.5407 322.545 94.6118 324.757 91.5342C329.01 85.6157 338.303 81.4159 345.515 82.1358C349.843 82.5677 350.665 82.901 350.898 83.388L355.123 92.7445C354.89 92.2576 354.068 91.9242 349.74 91.4923C342.527 90.7725 333.234 94.9723 328.982 100.891C326.77 103.968 326.362 106.897 327.495 109.101L323.27 99.7446Z" fill="url(#paint39_linear_111_684)"/>
<path fill-rule="evenodd" clip-rule="evenodd" d="M323.27 99.7446C322.138 97.5407 322.545 94.6118 324.757 91.5342C329.01 85.6157 338.303 81.4159 345.515 82.1358C349.843 82.5677 350.665 82.901 350.898 83.388L355.123 92.7445C354.89 92.2576 354.068 91.9242 349.74 91.4923C342.527 90.7725 333.234 94.9723 328.982 100.891C326.77 103.968 326.362 106.897 327.495 109.101L323.27 99.7446Z" fill="url(#paint40_linear_111_684)" fill-opacity="0.2"/>
<path fill-rule="evenodd" clip-rule="evenodd" d="M341.819 63.1462L304.659 79.9707L308.884 89.3273L346.044 72.5028L341.819 63.1462Z" fill="#6580E1" fill-opacity="0.6"/>
<path fill-rule="evenodd" clip-rule="evenodd" d="M304.659 79.9681C307.536 79.0517 310.494 78.6368 313.154 78.9023C316.617 79.2478 318.972 80.667 320.016 82.7028L324.241 92.0594C323.197 90.0236 320.841 88.6044 317.379 88.2589C314.719 87.9934 311.761 88.4083 308.883 89.3247L304.659 79.9681Z" fill="#32A16D"/>
<path fill-rule="evenodd" clip-rule="evenodd" d="M291.844 97.8068L301.471 119.301L305.695 128.657L296.069 107.163L291.844 97.8068Z" fill="#6580E1" fill-opacity="0.6"/>
<path fill-rule="evenodd" clip-rule="evenodd" d="M338.634 102.473C335.756 103.39 332.798 103.805 330.138 103.539C326.676 103.194 324.319 101.777 323.273 99.7428L327.498 109.099C328.543 111.134 330.901 112.55 334.363 112.896C337.023 113.161 339.981 112.746 342.858 111.83L338.634 102.473Z" fill="#6580E1" fill-opacity="0.6"/>
<path fill-rule="evenodd" clip-rule="evenodd" d="M301.47 119.299L338.631 102.474L342.855 111.831L305.695 128.655L301.47 119.299Z" fill="url(#paint41_linear_111_684)"/>
<path fill-rule="evenodd" clip-rule="evenodd" d="M301.47 119.299L338.631 102.474L342.855 111.831L305.695 128.655L301.47 119.299Z" fill="url(#paint42_linear_111_684)" fill-opacity="0.2"/>
<path d="M330.134 103.54C322.921 102.82 320.504 97.4517 324.756 91.5333C329.009 85.6148 338.302 81.415 345.515 82.1349C352.727 82.8547 350.202 83.3008 351.444 84.6404L341.818 63.1464L304.658 79.9709C307.535 79.0545 310.493 78.6396 313.154 78.9051C320.366 79.625 322.776 85.0048 318.531 90.912C314.286 96.8192 304.985 101.03 297.773 100.31C293.813 99.9153 292.788 99.6026 292.464 99.1794C292.197 98.8316 292.862 99.6132 292.311 99.0171L301.469 119.299L338.63 102.474C335.752 103.391 332.794 103.806 330.134 103.54Z" fill="url(#paint43_linear_111_684)"/>
</g>
<rect x="-0.350751" y="0.840259" width="113.991" height="79.4071" rx="39.7035" transform="matrix(-0.924926 0.380147 0.380147 0.924926 361.692 37.0471)" fill="#0D0D0D"/>
<rect x="-0.350751" y="0.840259" width="113.991" height="79.4071" rx="39.7035" transform="matrix(-0.924926 0.380147 0.380147 0.924926 361.692 37.0471)" fill="url(#paint44_linear_111_684)" fill-opacity="0.2"/>
<rect x="-0.350751" y="0.840259" width="113.991" height="79.4071" rx="39.7035" transform="matrix(-0.924926 0.380147 0.380147 0.924926 361.692 37.0471)" stroke="#1A1A1A" stroke-width="1.28768"/>
<rect x="-0.350751" y="0.840259" width="113.991" height="79.4071" rx="39.7035" transform="matrix(-0.924926 0.380147 0.380147 0.924926 361.692 37.0471)" stroke="url(#paint45_radial_111_684)" stroke-width="1.28768"/>
<g filter="url(#filter8_f_111_684)">
<rect x="-0.350751" y="0.840259" width="113.991" height="79.4071" rx="39.7035" transform="matrix(-0.924926 0.380147 0.380147 0.924926 361.692 37.0471)" stroke="#0F0F0F" stroke-width="1.28768"/>
<rect x="-0.350751" y="0.840259" width="113.991" height="79.4071" rx="39.7035" transform="matrix(-0.924926 0.380147 0.380147 0.924926 361.692 37.0471)" stroke="url(#paint46_radial_111_684)" stroke-width="1.28768"/>
</g>
<g filter="url(#filter9_f_111_684)">
<circle cx="31.7015" cy="31.7015" r="31.7015" transform="matrix(-0.924926 0.380147 0.380147 0.924926 355.311 49.2296)" fill="#2EEA90" fill-opacity="0.3"/>
</g>
<path fill-rule="evenodd" clip-rule="evenodd" d="M324.185 98.6363C323.391 96.9516 323.772 94.7618 325.513 92.5067C328.859 88.1699 335.948 85.2536 341.348 85.9796C344.588 86.4152 345.197 86.6867 345.36 87.0585L348.293 94.1957C348.13 93.8239 347.521 93.5524 344.281 93.1168C338.882 92.3908 331.793 95.3071 328.446 99.6439C326.706 101.899 326.324 104.089 327.118 105.774L324.185 98.6363Z" fill="url(#paint47_linear_111_684)"/>
<path fill-rule="evenodd" clip-rule="evenodd" d="M324.185 98.6363C323.391 96.9516 323.772 94.7618 325.513 92.5067C328.859 88.1699 335.948 85.2536 341.348 85.9796C344.588 86.4152 345.197 86.6867 345.36 87.0585L348.293 94.1957C348.13 93.8239 347.521 93.5524 344.281 93.1168C338.882 92.3908 331.793 95.3071 328.446 99.6439C326.706 101.899 326.324 104.089 327.118 105.774L324.185 98.6363Z" fill="url(#paint48_linear_111_684)" fill-opacity="0.2"/>
<path fill-rule="evenodd" clip-rule="evenodd" d="M339.058 71.6197L310.711 83.3042L313.644 90.4414L341.992 78.7569L339.058 71.6197Z" fill="#6580E1" fill-opacity="0.6"/>
<path fill-rule="evenodd" clip-rule="evenodd" d="M310.712 83.3026C312.897 82.6881 315.13 82.4524 317.121 82.7201C319.713 83.0686 321.446 84.1952 322.178 85.7513L325.112 92.8885C324.38 91.3324 322.647 90.2058 320.055 89.8574C318.063 89.5896 315.831 89.8253 313.645 90.4398L310.712 83.3026Z" fill="#32A16D"/>
<path fill-rule="evenodd" clip-rule="evenodd" d="M300.628 96.3736L307.307 112.767L310.24 119.905L303.561 103.511L300.628 96.3736Z" fill="#6580E1" fill-opacity="0.6"/>
<path fill-rule="evenodd" clip-rule="evenodd" d="M335.655 101.081C333.47 101.696 331.237 101.932 329.245 101.664C326.653 101.315 324.919 100.191 324.186 98.6356L327.119 105.773C327.852 107.328 329.587 108.453 332.179 108.801C334.17 109.069 336.403 108.833 338.588 108.219L335.655 101.081Z" fill="#6580E1" fill-opacity="0.6"/>
<path fill-rule="evenodd" clip-rule="evenodd" d="M307.305 112.766L335.652 101.082L338.585 108.219L324.412 114.061L310.238 119.904L307.305 112.766Z" fill="url(#paint49_linear_111_684)"/>
<path fill-rule="evenodd" clip-rule="evenodd" d="M307.305 112.766L335.652 101.082L338.585 108.219L324.412 114.061L310.238 119.904L307.305 112.766Z" fill="url(#paint50_linear_111_684)" fill-opacity="0.2"/>
<path d="M329.244 101.664C323.844 100.938 322.166 96.8432 325.512 92.5064C328.859 88.1696 335.948 85.2533 341.348 85.9793C346.747 86.7053 344.839 86.9755 345.738 88.0137L339.058 71.6201L310.711 83.3046C312.896 82.69 315.129 82.4543 317.121 82.7221C322.52 83.448 324.192 87.5513 320.852 91.8798C317.512 96.2084 310.416 99.133 305.017 98.407C302.052 98.0085 301.29 97.7473 301.057 97.421C300.866 97.1529 301.346 97.7572 300.947 97.2952L307.306 112.766L335.653 101.082C333.468 101.696 331.235 101.932 329.244 101.664Z" fill="url(#paint51_linear_111_684)"/>
<g opacity="0.15">
<line x1="233.124" y1="94.4292" x2="230.369" y2="87.2513" stroke="#D1DBE0"/>
<line x1="228.199" y1="92.123" x2="235.377" y2="89.3676" stroke="#D1DBE0"/>
</g>
<g opacity="0.15">
<line x1="202.276" y1="19.5818" x2="199.521" y2="12.4039" stroke="#D1DBE0"/>
<line x1="197.351" y1="17.2756" x2="204.529" y2="14.5202" stroke="#D1DBE0"/>
</g>
<g opacity="0.15">
<line x1="93.2764" y1="64.5818" x2="90.521" y2="57.4039" stroke="#D1DBE0"/>
<line x1="88.3511" y1="62.2756" x2="95.529" y2="59.5202" stroke="#D1DBE0"/>
</g>
<g opacity="0.15">
<line x1="124.276" y1="139.582" x2="121.521" y2="132.404" stroke="#D1DBE0"/>
<line x1="119.351" y1="137.276" x2="126.529" y2="134.52" stroke="#D1DBE0"/>
</g>
<g opacity="0.15">
<line x1="288.276" y1="159.582" x2="285.521" y2="152.404" stroke="#D1DBE0"/>
<line x1="283.351" y1="157.276" x2="290.529" y2="154.52" stroke="#D1DBE0"/>
</g>
<g opacity="0.15">
<line x1="257.276" y1="84.5818" x2="254.521" y2="77.4039" stroke="#D1DBE0"/>
<line x1="252.351" y1="82.2756" x2="259.529" y2="79.5202" stroke="#D1DBE0"/>
</g>
<g opacity="0.15">
<line x1="364.276" y1="39.5818" x2="361.521" y2="32.4039" stroke="#D1DBE0"/>
<line x1="359.351" y1="37.2756" x2="366.529" y2="34.5202" stroke="#D1DBE0"/>
</g>
<g opacity="0.15">
<line x1="396.476" y1="114.608" x2="393.472" y2="107.531" stroke="#D1DBE0"/>
<line x1="391.473" y1="112.475" x2="398.55" y2="109.471" stroke="#D1DBE0"/>
</g>
<defs>
<filter id="filter0_f_111_684" x="81.5638" y="-2.43606" width="189.111" height="159.569" filterUnits="userSpaceOnUse" color-interpolation-filters="sRGB">
<feFlood flood-opacity="0" result="BackgroundImageFix"/>
<feBlend mode="normal" in="SourceGraphic" in2="BackgroundImageFix" result="shape"/>
<feGaussianBlur stdDeviation="8.58455" result="effect1_foregroundBlur_111_684"/>
</filter>
<filter id="filter1_f_111_684" x="83.0093" y="-0.99061" width="186.22" height="156.678" filterUnits="userSpaceOnUse" color-interpolation-filters="sRGB">
<feFlood flood-opacity="0" result="BackgroundImageFix"/>
<feBlend mode="normal" in="SourceGraphic" in2="BackgroundImageFix" result="shape"/>
<feGaussianBlur stdDeviation="7.86182" result="effect1_foregroundBlur_111_684"/>
</filter>
<filter id="filter2_f_111_684" x="-82.295" y="-156.142" width="479.595" height="479.595" filterUnits="userSpaceOnUse" color-interpolation-filters="sRGB">
<feFlood flood-opacity="0" result="BackgroundImageFix"/>
<feBlend mode="normal" in="SourceGraphic" in2="BackgroundImageFix" result="shape"/>
<feGaussianBlur stdDeviation="98.2728" result="effect1_foregroundBlur_111_684"/>
</filter>
<filter id="filter3_f_111_684" x="93.8799" y="17.8798" width="135.692" height="117.078" filterUnits="userSpaceOnUse" color-interpolation-filters="sRGB">
<feFlood flood-opacity="0" result="BackgroundImageFix"/>
<feBlend mode="normal" in="SourceGraphic" in2="BackgroundImageFix" result="shape"/>
<feGaussianBlur stdDeviation="5.76391" result="effect1_foregroundBlur_111_684"/>
</filter>
<filter id="filter4_f_111_684" x="-27.3824" y="-93.8441" width="351.615" height="351.615" filterUnits="userSpaceOnUse" color-interpolation-filters="sRGB">
<feFlood flood-opacity="0" result="BackgroundImageFix"/>
<feBlend mode="normal" in="SourceGraphic" in2="BackgroundImageFix" result="shape"/>
<feGaussianBlur stdDeviation="72.0489" result="effect1_foregroundBlur_111_684"/>
</filter>
<filter id="filter5_f_111_684" x="232.025" y="15.9928" width="183.656" height="160.656" filterUnits="userSpaceOnUse" color-interpolation-filters="sRGB">
<feFlood flood-opacity="0" result="BackgroundImageFix"/>
<feBlend mode="normal" in="SourceGraphic" in2="BackgroundImageFix" result="shape"/>
<feGaussianBlur stdDeviation="8.58455" result="effect1_foregroundBlur_111_684"/>
</filter>
<filter id="filter6_f_111_684" x="233.858" y="17.8252" width="179.991" height="156.991" filterUnits="userSpaceOnUse" color-interpolation-filters="sRGB">
<feFlood flood-opacity="0" result="BackgroundImageFix"/>
<feBlend mode="normal" in="SourceGraphic" in2="BackgroundImageFix" result="shape"/>
<feGaussianBlur stdDeviation="7.66835" result="effect1_foregroundBlur_111_684"/>
</filter>
<filter id="filter7_f_111_684" x="107.429" y="-145.463" width="467.79" height="467.79" filterUnits="userSpaceOnUse" color-interpolation-filters="sRGB">
<feFlood flood-opacity="0" result="BackgroundImageFix"/>
<feBlend mode="normal" in="SourceGraphic" in2="BackgroundImageFix" result="shape"/>
<feGaussianBlur stdDeviation="95.8544" result="effect1_foregroundBlur_111_684"/>
</filter>
<filter id="filter8_f_111_684" x="256.833" y="37.6211" width="135.759" height="116.918" filterUnits="userSpaceOnUse" color-interpolation-filters="sRGB">
<feFlood flood-opacity="0" result="BackgroundImageFix"/>
<feBlend mode="normal" in="SourceGraphic" in2="BackgroundImageFix" result="shape"/>
<feGaussianBlur stdDeviation="5.76391" result="effect1_foregroundBlur_111_684"/>
</filter>
<filter id="filter9_f_111_684" x="162.233" y="-85.2052" width="351.615" height="351.615" filterUnits="userSpaceOnUse" color-interpolation-filters="sRGB">
<feFlood flood-opacity="0" result="BackgroundImageFix"/>
<feBlend mode="normal" in="SourceGraphic" in2="BackgroundImageFix" result="shape"/>
<feGaussianBlur stdDeviation="72.0489" result="effect1_foregroundBlur_111_684"/>
</filter>
<linearGradient id="paint0_linear_111_684" x1="436" y1="6" x2="363" y2="36" gradientUnits="userSpaceOnUse">
<stop stop-color="#1A1A1A" stop-opacity="0"/>
<stop offset="1" stop-color="#1A1A1A"/>
</linearGradient>
<linearGradient id="paint1_linear_111_684" x1="123" y1="136.5" x2="97" y2="147" gradientUnits="userSpaceOnUse">
<stop stop-color="#1A1A1A"/>
<stop offset="1" stop-color="#1A1A1A" stop-opacity="0"/>
</linearGradient>
<linearGradient id="paint2_linear_111_684" x1="287" y1="157" x2="306.5" y2="206" gradientUnits="userSpaceOnUse">
<stop stop-color="#1A1A1A"/>
<stop offset="1" stop-color="#1A1A1A" stop-opacity="0"/>
</linearGradient>
<linearGradient id="paint3_linear_111_684" x1="395" y1="111" x2="438" y2="212.5" gradientUnits="userSpaceOnUse">
<stop stop-color="#1A1A1A"/>
<stop offset="1" stop-color="#1A1A1A" stop-opacity="0"/>
</linearGradient>
<linearGradient id="paint4_linear_111_684" x1="263" y1="166" x2="283.5" y2="217" gradientUnits="userSpaceOnUse">
<stop stop-color="#1A1A1A"/>
<stop offset="1" stop-color="#1A1A1A" stop-opacity="0"/>
</linearGradient>
<linearGradient id="paint5_linear_111_684" x1="123" y1="136" x2="145" y2="189" gradientUnits="userSpaceOnUse">
<stop stop-color="#1A1A1A"/>
<stop offset="1" stop-color="#1A1A1A" stop-opacity="0"/>
</linearGradient>
<linearGradient id="paint6_linear_111_684" x1="63" y1="-10" x2="92" y2="61" gradientUnits="userSpaceOnUse">
<stop stop-color="#1A1A1A" stop-opacity="0"/>
<stop offset="1" stop-color="#1A1A1A"/>
</linearGradient>
<linearGradient id="paint7_linear_111_684" x1="263" y1="166" x2="212.5" y2="185" gradientUnits="userSpaceOnUse">
<stop stop-color="#1A1A1A"/>
<stop offset="1" stop-color="#1A1A1A" stop-opacity="0"/>
</linearGradient>
<linearGradient id="paint8_linear_111_684" x1="437" y1="94" x2="396" y2="111.5" gradientUnits="userSpaceOnUse">
<stop stop-color="#1A1A1A" stop-opacity="0"/>
<stop offset="1" stop-color="#1A1A1A"/>
</linearGradient>
<linearGradient id="paint9_linear_111_684" x1="92" y1="61" x2="37" y2="84" gradientUnits="userSpaceOnUse">
<stop stop-color="#1A1A1A"/>
<stop offset="1" stop-color="#1A1A1A" stop-opacity="0"/>
</linearGradient>
<linearGradient id="paint10_linear_111_684" x1="153.184" y1="105.483" x2="84" y2="105.483" gradientUnits="userSpaceOnUse">
<stop stop-color="#15D176" stop-opacity="0"/>
<stop offset="1" stop-color="#15D176"/>
</linearGradient>
<radialGradient id="paint11_radial_111_684" cx="0" cy="0" r="1" gradientUnits="userSpaceOnUse" gradientTransform="translate(231.802 105.483) rotate(180) scale(147.802 742.31)">
<stop offset="0.716666" stop-color="#15D176" stop-opacity="0"/>
<stop offset="0.926666" stop-color="#15D176"/>
<stop offset="1" stop-color="#B9F8DA"/>
</radialGradient>
<linearGradient id="paint12_linear_111_684" x1="154.794" y1="84.2479" x2="196.648" y2="70.069" gradientUnits="userSpaceOnUse">
<stop stop-color="#32A16D"/>
<stop offset="1" stop-color="#123B28"/>
</linearGradient>
<linearGradient id="paint13_linear_111_684" x1="181.222" y1="37.6926" x2="204.084" y2="105.179" gradientUnits="userSpaceOnUse">
<stop/>
<stop offset="1" stop-opacity="0"/>
</linearGradient>
<linearGradient id="paint14_linear_111_684" x1="166.406" y1="118.48" x2="210.193" y2="101.221" gradientUnits="userSpaceOnUse">
<stop stop-color="#2A865B"/>
<stop offset="0.526114" stop-color="#2EEA90"/>
<stop offset="1" stop-color="#2E9162"/>
</linearGradient>
<linearGradient id="paint15_linear_111_684" x1="154.794" y1="84.2479" x2="196.648" y2="70.069" gradientUnits="userSpaceOnUse">
<stop stop-color="#32A16D"/>
<stop offset="1" stop-color="#123B28"/>
</linearGradient>
<linearGradient id="paint16_linear_111_684" x1="181.222" y1="37.6926" x2="204.084" y2="105.179" gradientUnits="userSpaceOnUse">
<stop/>
<stop offset="1" stop-opacity="0"/>
</linearGradient>
<linearGradient id="paint17_linear_111_684" x1="166.406" y1="118.48" x2="210.193" y2="101.221" gradientUnits="userSpaceOnUse">
<stop stop-color="#2A865B"/>
<stop offset="0.526114" stop-color="#2EEA90"/>
<stop offset="1" stop-color="#2E9162"/>
</linearGradient>
<linearGradient id="paint18_linear_111_684" x1="155.492" y1="86.3085" x2="176.413" y2="79.2212" gradientUnits="userSpaceOnUse">
<stop stop-color="#32A16D"/>
<stop offset="1" stop-color="#123B28"/>
</linearGradient>
<linearGradient id="paint19_linear_111_684" x1="170.746" y1="69.0727" x2="178.084" y2="90.7318" gradientUnits="userSpaceOnUse">
<stop/>
<stop offset="1" stop-opacity="0"/>
</linearGradient>
<linearGradient id="paint20_linear_111_684" x1="155.492" y1="86.3085" x2="176.413" y2="79.2212" gradientUnits="userSpaceOnUse">
<stop stop-color="#32A16D"/>
<stop offset="1" stop-color="#123B28"/>
</linearGradient>
<linearGradient id="paint21_linear_111_684" x1="170.746" y1="69.0727" x2="178.084" y2="90.7318" gradientUnits="userSpaceOnUse">
<stop/>
<stop offset="1" stop-opacity="0"/>
</linearGradient>
<radialGradient id="paint22_radial_111_684" cx="0" cy="0" r="1" gradientUnits="userSpaceOnUse" gradientTransform="translate(231.802 105.483) rotate(180) scale(147.802 742.31)">
<stop offset="0.716666" stop-color="#15D176" stop-opacity="0"/>
<stop offset="0.926666" stop-color="#15D176"/>
<stop offset="1" stop-color="#B9F8DA"/>
</radialGradient>
<linearGradient id="paint23_linear_111_684" x1="143.722" y1="101.702" x2="93" y2="101.702" gradientUnits="userSpaceOnUse">
<stop stop-color="#15D176" stop-opacity="0"/>
<stop offset="1" stop-color="#15D176"/>
</linearGradient>
<radialGradient id="paint24_radial_111_684" cx="0" cy="0" r="1" gradientUnits="userSpaceOnUse" gradientTransform="translate(201.361 101.702) rotate(180) scale(108.361 544.226)">
<stop offset="0.716666" stop-color="#15D176" stop-opacity="0"/>
<stop offset="0.926666" stop-color="#15D176"/>
<stop offset="1" stop-color="#B9F8DA"/>
</radialGradient>
<linearGradient id="paint25_linear_111_684" x1="146.47" y1="82.5331" x2="176.374" y2="70.0673" gradientUnits="userSpaceOnUse">
<stop stop-color="#32A16D"/>
<stop offset="1" stop-color="#123B28"/>
</linearGradient>
<linearGradient id="paint26_linear_111_684" x1="163.47" y1="47.1579" x2="183.57" y2="95.3761" gradientUnits="userSpaceOnUse">
<stop/>
<stop offset="1" stop-opacity="0"/>
</linearGradient>
<linearGradient id="paint27_linear_111_684" x1="156.677" y1="106.991" x2="187.84" y2="92.1753" gradientUnits="userSpaceOnUse">
<stop stop-color="#2A865B"/>
<stop offset="0.526114" stop-color="#2EEA90"/>
<stop offset="1" stop-color="#2E9162"/>
</linearGradient>
<linearGradient id="paint28_linear_111_684" x1="146.47" y1="82.5331" x2="176.374" y2="70.0673" gradientUnits="userSpaceOnUse">
<stop stop-color="#32A16D"/>
<stop offset="1" stop-color="#123B28"/>
</linearGradient>
<linearGradient id="paint29_linear_111_684" x1="163.47" y1="47.1579" x2="183.57" y2="95.3761" gradientUnits="userSpaceOnUse">
<stop/>
<stop offset="1" stop-opacity="0"/>
</linearGradient>
<linearGradient id="paint30_linear_111_684" x1="156.677" y1="106.991" x2="187.84" y2="92.1753" gradientUnits="userSpaceOnUse">
<stop stop-color="#2A865B"/>
<stop offset="0.526114" stop-color="#2EEA90"/>
<stop offset="1" stop-color="#2E9162"/>
</linearGradient>
<linearGradient id="paint31_linear_111_684" x1="147.084" y1="84.0054" x2="162.031" y2="77.7743" gradientUnits="userSpaceOnUse">
<stop stop-color="#32A16D"/>
<stop offset="1" stop-color="#123B28"/>
</linearGradient>
<linearGradient id="paint32_linear_111_684" x1="157.379" y1="70.6349" x2="163.83" y2="86.11" gradientUnits="userSpaceOnUse">
<stop/>
<stop offset="1" stop-opacity="0"/>
</linearGradient>
<linearGradient id="paint33_linear_111_684" x1="147.084" y1="84.0054" x2="162.031" y2="77.7743" gradientUnits="userSpaceOnUse">
<stop stop-color="#32A16D"/>
<stop offset="1" stop-color="#123B28"/>
</linearGradient>
<linearGradient id="paint34_linear_111_684" x1="157.379" y1="70.6349" x2="163.83" y2="86.11" gradientUnits="userSpaceOnUse">
<stop/>
<stop offset="1" stop-opacity="0"/>
</linearGradient>
<radialGradient id="paint35_radial_111_684" cx="0" cy="0" r="1" gradientUnits="userSpaceOnUse" gradientTransform="translate(201.361 101.702) rotate(180) scale(108.361 544.226)">
<stop offset="0.716666" stop-color="#15D176" stop-opacity="0"/>
<stop offset="0.926666" stop-color="#15D176"/>
<stop offset="1" stop-color="#B9F8DA"/>
</radialGradient>
<linearGradient id="paint36_linear_111_684" x1="67.4815" y1="53.6785" x2="7.88389e-07" y2="53.6785" gradientUnits="userSpaceOnUse">
<stop stop-color="#15D176" stop-opacity="0"/>
<stop offset="1" stop-color="#15D176"/>
</linearGradient>
<radialGradient id="paint37_radial_111_684" cx="0" cy="0" r="1" gradientUnits="userSpaceOnUse" gradientTransform="translate(144.165 53.6785) rotate(180) scale(144.165 724.043)">
<stop offset="0.716666" stop-color="#15D176" stop-opacity="0"/>
<stop offset="0.926666" stop-color="#15D176"/>
<stop offset="1" stop-color="#B9F8DA"/>
</radialGradient>
<radialGradient id="paint38_radial_111_684" cx="0" cy="0" r="1" gradientUnits="userSpaceOnUse" gradientTransform="translate(144.165 53.6785) rotate(180) scale(144.165 724.043)">
<stop offset="0.716666" stop-color="#15D176" stop-opacity="0"/>
<stop offset="0.926666" stop-color="#15D176"/>
<stop offset="1" stop-color="#B9F8DA"/>
</radialGradient>
<linearGradient id="paint39_linear_111_684" x1="355.297" y1="93.0444" x2="329.626" y2="104.636" gradientUnits="userSpaceOnUse">
<stop stop-color="#277D55"/>
<stop offset="1" stop-color="#133D2A"/>
</linearGradient>
<linearGradient id="paint40_linear_111_684" x1="333.855" y1="84.4229" x2="342.034" y2="102.536" gradientUnits="userSpaceOnUse">
<stop stop-opacity="0"/>
<stop offset="1"/>
</linearGradient>
<linearGradient id="paint41_linear_111_684" x1="303.574" y1="123.958" x2="340.751" y2="107.171" gradientUnits="userSpaceOnUse">
<stop stop-color="#32A16D"/>
<stop offset="1" stop-color="#123B28"/>
</linearGradient>
<linearGradient id="paint42_linear_111_684" x1="335.1" y1="104.126" x2="339.3" y2="113.428" gradientUnits="userSpaceOnUse">
<stop/>
<stop offset="1" stop-opacity="0"/>
</linearGradient>
<linearGradient id="paint43_linear_111_684" x1="301.52" y1="119.363" x2="355.076" y2="85.7039" gradientUnits="userSpaceOnUse">
<stop stop-color="#2A865B"/>
<stop offset="0.526114" stop-color="#2EEA90"/>
<stop offset="1" stop-color="#2E9162"/>
</linearGradient>
<linearGradient id="paint44_linear_111_684" x1="50.7224" y1="40.3474" x2="5.92592e-07" y2="40.3474" gradientUnits="userSpaceOnUse">
<stop stop-color="#15D176" stop-opacity="0"/>
<stop offset="1" stop-color="#15D176"/>
</linearGradient>
<radialGradient id="paint45_radial_111_684" cx="0" cy="0" r="1" gradientUnits="userSpaceOnUse" gradientTransform="translate(108.361 40.3474) rotate(180) scale(108.361 544.226)">
<stop offset="0.716666" stop-color="#15D176" stop-opacity="0"/>
<stop offset="0.926666" stop-color="#15D176"/>
<stop offset="1" stop-color="#B9F8DA"/>
</radialGradient>
<radialGradient id="paint46_radial_111_684" cx="0" cy="0" r="1" gradientUnits="userSpaceOnUse" gradientTransform="translate(108.361 40.3474) rotate(180) scale(108.361 544.226)">
<stop offset="0.716666" stop-color="#15D176" stop-opacity="0"/>
<stop offset="0.926666" stop-color="#15D176"/>
<stop offset="1" stop-color="#B9F8DA"/>
</radialGradient>
<linearGradient id="paint47_linear_111_684" x1="348.416" y1="94.4254" x2="328.834" y2="102.474" gradientUnits="userSpaceOnUse">
<stop stop-color="#277D55"/>
<stop offset="1" stop-color="#133D2A"/>
</linearGradient>
<linearGradient id="paint48_linear_111_684" x1="332.53" y1="87.3983" x2="338.209" y2="101.215" gradientUnits="userSpaceOnUse">
<stop stop-opacity="0"/>
<stop offset="1"/>
</linearGradient>
<linearGradient id="paint49_linear_111_684" x1="308.766" y1="116.321" x2="337.125" y2="104.665" gradientUnits="userSpaceOnUse">
<stop stop-color="#32A16D"/>
<stop offset="1" stop-color="#123B28"/>
</linearGradient>
<linearGradient id="paint50_linear_111_684" x1="332.957" y1="102.232" x2="335.874" y2="109.327" gradientUnits="userSpaceOnUse">
<stop/>
<stop offset="1" stop-opacity="0"/>
</linearGradient>
<linearGradient id="paint51_linear_111_684" x1="307.342" y1="112.816" x2="348.439" y2="88.9059" gradientUnits="userSpaceOnUse">
<stop stop-color="#2A865B"/>
<stop offset="0.526114" stop-color="#2EEA90"/>
<stop offset="1" stop-color="#2E9162"/>
</linearGradient>
<clipPath id="clip0_111_684">
<rect width="44.1905" height="71.9666" fill="white" transform="translate(143.247 50.16) rotate(-18.7148)"/>
</clipPath>
<clipPath id="clip1_111_684">
<rect width="32.3983" height="52.7625" fill="white" transform="translate(136.32 58.1781) rotate(-22.6292)"/>
</clipPath>
</defs>
</svg>
