<svg width="44" height="44" viewBox="0 0 44 44" fill="none" xmlns="http://www.w3.org/2000/svg">
<g filter="url(#filter0_d_0_3964)">
<rect x="2" y="2" width="40" height="40" rx="20" fill="black"/>
</g>
<path d="M23.5688 16.729H25.4316V27.3583C25.4316 29.0897 26.8049 30.5 28.491 30.5H28.6576C28.6576 30.5 29.7318 30.4825 30.4524 29.9485C30.4796 29.9275 30.5 29.8891 30.5 29.8507C30.5 29.8437 30.5 29.8402 30.4932 29.8333C30.4898 29.8298 30.483 29.8263 30.4796 29.8263C30.2451 29.8437 29.7895 29.8193 29.3748 29.4248C28.8445 28.9222 28.576 28.0006 28.576 26.6881V18.7117C28.576 18.0066 28.3516 17.3398 27.9233 16.7883L27.8417 16.6801L27.9709 16.6487C29.3578 16.3275 30.3266 15.0813 30.3266 13.6187C30.3266 13.5524 30.2756 13.5 30.2111 13.5H16.6954C15.0297 13.5035 13.6734 14.8963 13.6734 16.6103C13.6734 16.6766 13.7244 16.729 13.7889 16.729H16.1073L16.0087 16.8651C15.6246 17.3992 15.424 18.0345 15.424 18.7012V26.6776C15.424 27.9901 15.1555 28.9117 14.6252 29.4144C14.2105 29.8088 13.7549 29.8333 13.5204 29.8158C13.5204 29.8158 13.5102 29.8158 13.5068 29.8193C13.5034 29.8228 13.5 29.8298 13.5 29.8368C13.5 29.8752 13.517 29.9136 13.5476 29.9345C14.2682 30.4686 15.3322 30.486 15.3424 30.486H15.5056C17.1917 30.486 18.565 29.0758 18.565 27.3444V16.729H20.4244V28.8733C20.4244 29.7635 21.1281 30.486 21.9949 30.486C22.8617 30.486 23.5654 29.7635 23.5654 28.8733V16.729H23.5688Z" fill="#CBFF49"/>
<defs>
<filter id="filter0_d_0_3964" x="0" y="0" width="44" height="44" filterUnits="userSpaceOnUse" color-interpolation-filters="sRGB">
<feFlood flood-opacity="0" result="BackgroundImageFix"/>
<feColorMatrix in="SourceAlpha" type="matrix" values="0 0 0 0 0 0 0 0 0 0 0 0 0 0 0 0 0 0 127 0" result="hardAlpha"/>
<feMorphology radius="2" operator="dilate" in="SourceAlpha" result="effect1_dropShadow_0_3964"/>
<feOffset/>
<feComposite in2="hardAlpha" operator="out"/>
<feColorMatrix type="matrix" values="0 0 0 0 0.0313726 0 0 0 0 0.0313726 0 0 0 0 0.0313726 0 0 0 1 0"/>
<feBlend mode="normal" in2="BackgroundImageFix" result="effect1_dropShadow_0_3964"/>
<feBlend mode="normal" in="SourceGraphic" in2="effect1_dropShadow_0_3964" result="shape"/>
</filter>
</defs>
</svg>
