<svg width="121" height="36" viewBox="0 0 121 36" fill="none" xmlns="http://www.w3.org/2000/svg">
<path d="M1.15909 11.6204V9.74541H14.25V11.6204H8.76136V27.2H6.64773V11.6204H1.15909ZM16.1889 27.2H13.973L20.3821 9.74541H22.5639L28.973 27.2H26.7571L21.5412 12.5068H21.4048L16.1889 27.2ZM17.0071 20.3818H25.9389V22.2568H17.0071V20.3818ZM45.5987 18.4727C45.5987 20.3136 45.2663 21.9045 44.6016 23.2454C43.9368 24.5863 43.0249 25.6204 41.8658 26.3477C40.7067 27.075 39.3828 27.4386 37.8942 27.4386C36.4055 27.4386 35.0817 27.075 33.9226 26.3477C32.7635 25.6204 31.8516 24.5863 31.1868 23.2454C30.522 21.9045 30.1896 20.3136 30.1896 18.4727C30.1896 16.6318 30.522 15.0409 31.1868 13.7C31.8516 12.359 32.7635 11.325 33.9226 10.5977C35.0817 9.87041 36.4055 9.50677 37.8942 9.50677C39.3828 9.50677 40.7067 9.87041 41.8658 10.5977C43.0249 11.325 43.9368 12.359 44.6016 13.7C45.2663 15.0409 45.5987 16.6318 45.5987 18.4727ZM43.5533 18.4727C43.5533 16.9613 43.3004 15.6857 42.7947 14.646C42.2947 13.6062 41.6158 12.8193 40.7578 12.2852C39.9055 11.7511 38.951 11.484 37.8942 11.484C36.8374 11.484 35.88 11.7511 35.022 12.2852C34.1697 12.8193 33.4908 13.6062 32.9851 14.646C32.4851 15.6857 32.2351 16.9613 32.2351 18.4727C32.2351 19.984 32.4851 21.2596 32.9851 22.2994C33.4908 23.3392 34.1697 24.1261 35.022 24.6602C35.88 25.1943 36.8374 25.4613 37.8942 25.4613C38.951 25.4613 39.9055 25.1943 40.7578 24.6602C41.6158 24.1261 42.2947 23.3392 42.7947 22.2994C43.3004 21.2596 43.5533 19.984 43.5533 18.4727ZM58.0163 9.74541V27.2H55.9027V9.74541H58.0163ZM76.0952 9.74541V27.2H74.0497L64.5384 13.4954H64.3679V27.2H62.2543V9.74541H64.2997L73.8452 23.484H74.0156V9.74541H76.0952ZM91.7791 9.74541H93.8928V21.3022C93.8928 22.4954 93.6115 23.5607 93.049 24.4982C92.4922 25.4301 91.7053 26.1659 90.6882 26.7056C89.6712 27.2397 88.478 27.5068 87.1087 27.5068C85.7393 27.5068 84.5462 27.2397 83.5291 26.7056C82.5121 26.1659 81.7223 25.4301 81.1598 24.4982C80.603 23.5607 80.3246 22.4954 80.3246 21.3022V9.74541H82.4382V21.1318C82.4382 21.984 82.6257 22.7426 83.0007 23.4073C83.3757 24.0664 83.9098 24.5863 84.603 24.967C85.3018 25.342 86.1371 25.5295 87.1087 25.5295C88.0803 25.5295 88.9155 25.342 89.6143 24.967C90.3132 24.5863 90.8473 24.0664 91.2166 23.4073C91.5916 22.7426 91.7791 21.984 91.7791 21.1318V9.74541Z" fill="white"/>
</svg>
