<svg width="94" height="25" viewBox="0 0 94 25" fill="none" xmlns="http://www.w3.org/2000/svg">
<path d="M14.3792 17.265C11.7585 17.265 9.63101 15.135 9.63101 12.5C9.63101 9.865 11.7585 7.735 14.3792 7.735C17 7.735 16.2526 8.025 17 8.53L8.5 0L0 8.53C0.752345 8.03 1.65416 7.735 2.62075 7.735C5.2415 7.735 7.36899 9.87 7.36899 12.5C7.36899 15.13 5.2415 17.265 2.62075 17.265C0 17.265 0.747362 16.975 0 16.47L8.5 25L17 16.47C16.2477 16.97 15.3458 17.265 14.3792 17.265Z" fill="white"/>
<path d="M25.32 7.648H36.232V9.424H25.32V7.648ZM29.72 9.2H31.848V18H29.72V9.2ZM40.082 18.176C39.2927 18.176 38.5727 18.0053 37.922 17.664C37.282 17.312 36.77 16.8267 36.386 16.208C36.0127 15.5787 35.826 14.8533 35.826 14.032C35.826 13.1893 36.018 12.4587 36.402 11.84C36.786 11.2213 37.3033 10.7413 37.954 10.4C38.6153 10.048 39.362 9.872 40.194 9.872C41.1113 9.872 41.8473 10.0587 42.402 10.432C42.9673 10.7947 43.378 11.2907 43.634 11.92C43.89 12.5493 44.018 13.2533 44.018 14.032C44.018 14.5013 43.9433 14.9813 43.794 15.472C43.6447 15.952 43.4153 16.4 43.106 16.816C42.7967 17.2213 42.3913 17.552 41.89 17.808C41.3887 18.0533 40.786 18.176 40.082 18.176ZM40.754 16.576C41.3833 16.576 41.9273 16.4693 42.386 16.256C42.8447 16.0427 43.1967 15.744 43.442 15.36C43.6873 14.976 43.81 14.5333 43.81 14.032C43.81 13.488 43.682 13.0293 43.426 12.656C43.1807 12.272 42.8287 11.984 42.37 11.792C41.922 11.5893 41.3833 11.488 40.754 11.488C39.8687 11.488 39.1807 11.7227 38.69 12.192C38.1993 12.6507 37.954 13.264 37.954 14.032C37.954 14.544 38.0713 14.992 38.306 15.376C38.5407 15.7493 38.866 16.0427 39.282 16.256C39.7087 16.4693 40.1993 16.576 40.754 16.576ZM43.81 10.048H45.89V18H43.954C43.954 18 43.938 17.8987 43.906 17.696C43.8847 17.4827 43.8633 17.216 43.842 16.896C43.8207 16.576 43.81 16.2613 43.81 15.952V10.048ZM52.4605 18.192C51.4578 18.192 50.5725 18.032 49.8045 17.712C49.0472 17.392 48.4552 16.928 48.0285 16.32C47.6018 15.7013 47.3885 14.944 47.3885 14.048C47.3885 13.152 47.6018 12.3947 48.0285 11.776C48.4552 11.1467 49.0472 10.672 49.8045 10.352C50.5725 10.032 51.4578 9.872 52.4605 9.872C53.4632 9.872 54.3378 10.032 55.0845 10.352C55.8418 10.672 56.4338 11.1467 56.8605 11.776C57.2872 12.3947 57.5005 13.152 57.5005 14.048C57.5005 14.944 57.2872 15.7013 56.8605 16.32C56.4338 16.928 55.8418 17.392 55.0845 17.712C54.3378 18.032 53.4632 18.192 52.4605 18.192ZM52.4605 16.592C53.0152 16.592 53.5112 16.496 53.9485 16.304C54.3965 16.1013 54.7485 15.8133 55.0045 15.44C55.2605 15.056 55.3885 14.592 55.3885 14.048C55.3885 13.504 55.2605 13.04 55.0045 12.656C54.7485 12.2613 54.4018 11.9627 53.9645 11.76C53.5272 11.5573 53.0258 11.456 52.4605 11.456C51.9058 11.456 51.4045 11.5573 50.9565 11.76C50.5085 11.9627 50.1512 12.256 49.8845 12.64C49.6285 13.024 49.5005 13.4933 49.5005 14.048C49.5005 14.592 49.6285 15.056 49.8845 15.44C50.1405 15.8133 50.4925 16.1013 50.9405 16.304C51.3885 16.496 51.8952 16.592 52.4605 16.592ZM64.8301 18.192C64.1261 18.192 63.5235 18.0693 63.0221 17.824C62.5315 17.568 62.1315 17.2373 61.8221 16.832C61.5128 16.416 61.2835 15.9627 61.1341 15.472C60.9848 14.9813 60.9101 14.5013 60.9101 14.032C60.9101 13.4453 60.9795 12.9013 61.1181 12.4C61.2675 11.8987 61.4968 11.4613 61.8061 11.088C62.1155 10.704 62.5155 10.4053 63.0061 10.192C63.5075 9.97867 64.1155 9.872 64.8301 9.872C65.6301 9.872 66.3501 10.048 66.9901 10.4C67.6301 10.752 68.1368 11.2427 68.5101 11.872C68.8941 12.4907 69.0861 13.2107 69.0861 14.032C69.0861 14.8747 68.8941 15.6107 68.5101 16.24C68.1261 16.8587 67.6141 17.3387 66.9741 17.68C66.3341 18.0213 65.6195 18.192 64.8301 18.192ZM64.1581 16.576C64.7235 16.576 65.2141 16.4693 65.6301 16.256C66.0568 16.0427 66.3821 15.7493 66.6061 15.376C66.8408 14.992 66.9581 14.544 66.9581 14.032C66.9581 13.264 66.7128 12.6453 66.2221 12.176C65.7421 11.7067 65.0541 11.472 64.1581 11.472C63.5928 11.472 63.0755 11.5733 62.6061 11.776C62.1475 11.9787 61.7848 12.272 61.5181 12.656C61.2515 13.0293 61.1181 13.488 61.1181 14.032C61.1181 14.544 61.2408 14.992 61.4861 15.376C61.7315 15.7493 62.0835 16.0427 62.5421 16.256C63.0008 16.4693 63.5395 16.576 64.1581 16.576ZM59.0381 10.048H61.0221L61.1181 12.16V21.2H59.0381V10.048ZM74.4883 18.176C73.6989 18.176 72.9789 18.0053 72.3283 17.664C71.6883 17.312 71.1763 16.8267 70.7923 16.208C70.4189 15.5787 70.2323 14.8533 70.2323 14.032C70.2323 13.1893 70.4243 12.4587 70.8083 11.84C71.1923 11.2213 71.7096 10.7413 72.3603 10.4C73.0216 10.048 73.7683 9.872 74.6003 9.872C75.5176 9.872 76.2536 10.0587 76.8083 10.432C77.3736 10.7947 77.7843 11.2907 78.0403 11.92C78.2963 12.5493 78.4243 13.2533 78.4243 14.032C78.4243 14.5013 78.3496 14.9813 78.2003 15.472C78.0509 15.952 77.8216 16.4 77.5123 16.816C77.2029 17.2213 76.7976 17.552 76.2963 17.808C75.7949 18.0533 75.1923 18.176 74.4883 18.176ZM75.1603 16.576C75.7896 16.576 76.3336 16.4693 76.7923 16.256C77.2509 16.0427 77.6029 15.744 77.8483 15.36C78.0936 14.976 78.2163 14.5333 78.2163 14.032C78.2163 13.488 78.0883 13.0293 77.8323 12.656C77.5869 12.272 77.2349 11.984 76.7763 11.792C76.3283 11.5893 75.7896 11.488 75.1603 11.488C74.2749 11.488 73.5869 11.7227 73.0963 12.192C72.6056 12.6507 72.3603 13.264 72.3603 14.032C72.3603 14.544 72.4776 14.992 72.7123 15.376C72.9469 15.7493 73.2723 16.0427 73.6883 16.256C74.1149 16.4693 74.6056 16.576 75.1603 16.576ZM78.2163 10.048H80.2963V18H78.3603C78.3603 18 78.3443 17.8987 78.3123 17.696C78.2909 17.4827 78.2696 17.216 78.2483 16.896C78.2269 16.576 78.2163 16.2613 78.2163 15.952V10.048ZM86.0508 18.176C85.2508 18.176 84.5254 18.0053 83.8748 17.664C83.2348 17.312 82.7281 16.8267 82.3548 16.208C81.9814 15.5787 81.7948 14.8533 81.7948 14.032C81.7948 13.1893 81.9761 12.4587 82.3388 11.84C82.7121 11.2213 83.2188 10.7413 83.8588 10.4C84.4988 10.048 85.2294 9.872 86.0508 9.872C86.7654 9.872 87.3734 9.97867 87.8748 10.192C88.3761 10.4053 88.7814 10.704 89.0908 11.088C89.4001 11.4613 89.6241 11.8987 89.7628 12.4C89.9121 12.9013 89.9868 13.4453 89.9868 14.032C89.9868 14.5013 89.9121 14.9813 89.7628 15.472C89.6134 15.952 89.3841 16.4 89.0748 16.816C88.7654 17.2213 88.3601 17.552 87.8588 17.808C87.3574 18.0533 86.7548 18.176 86.0508 18.176ZM86.7228 16.576C87.3521 16.576 87.8961 16.4693 88.3548 16.256C88.8134 16.0427 89.1654 15.744 89.4108 15.36C89.6561 14.976 89.7788 14.5333 89.7788 14.032C89.7788 13.488 89.6508 13.0293 89.3948 12.656C89.1494 12.272 88.7974 11.9787 88.3388 11.776C87.8908 11.5733 87.3521 11.472 86.7228 11.472C85.8374 11.472 85.1494 11.7067 84.6588 12.176C84.1681 12.6453 83.9228 13.264 83.9228 14.032C83.9228 14.544 84.0401 14.992 84.2748 15.376C84.5094 15.7493 84.8348 16.0427 85.2508 16.256C85.6774 16.4693 86.1681 16.576 86.7228 16.576ZM89.7788 6.848H91.8588V18H89.9228C89.8908 17.7547 89.8588 17.44 89.8268 17.056C89.7948 16.6613 89.7788 16.2933 89.7788 15.952V6.848Z" fill="white"/>
</svg>
