<svg width="1147" height="199" viewBox="0 0 1147 199" fill="none" xmlns="http://www.w3.org/2000/svg">
<path d="M0.511342 13.8209H188.448V44.4088H0.511342V13.8209ZM76.2923 40.5509H112.943V192.113H76.2923V40.5509ZM254.756 195.144C241.162 195.144 228.761 192.205 217.555 186.326C206.532 180.263 197.714 171.905 191.1 161.249C184.671 150.41 181.456 137.918 181.456 123.772C181.456 109.259 184.762 96.6747 191.376 86.0195C197.99 75.3642 206.9 67.0972 218.106 61.2184C229.496 55.156 242.356 52.1247 256.685 52.1247C272.485 52.1247 285.161 55.3397 294.714 61.7696C304.45 68.0157 311.523 76.5583 315.932 87.3973C320.341 98.2363 322.546 110.361 322.546 123.772C322.546 131.855 321.26 140.122 318.688 148.573C316.116 156.84 312.166 164.556 306.839 171.721C301.511 178.702 294.53 184.397 285.895 188.806C277.261 193.031 266.881 195.144 254.756 195.144ZM266.33 167.587C277.169 167.587 286.538 165.75 294.438 162.076C302.338 158.402 308.4 153.258 312.626 146.644C316.851 140.031 318.964 132.407 318.964 123.772C318.964 114.403 316.759 106.503 312.35 100.073C308.125 93.4598 302.062 88.4996 294.163 85.1928C286.447 81.7022 277.169 79.957 266.33 79.957C251.082 79.957 239.233 83.9986 230.782 92.0819C222.331 99.9815 218.106 110.545 218.106 123.772C218.106 132.59 220.127 140.306 224.168 146.92C228.21 153.35 233.813 158.402 240.978 162.076C248.327 165.75 256.777 167.587 266.33 167.587ZM318.964 55.156H354.787V192.113H321.444C321.444 192.113 321.168 190.368 320.617 186.877C320.25 183.203 319.882 178.61 319.515 173.099C319.147 167.587 318.964 162.168 318.964 156.84V55.156ZM467.951 195.42C450.682 195.42 435.434 192.664 422.206 187.153C409.163 181.641 398.967 173.65 391.619 163.178C384.27 152.523 380.596 139.479 380.596 124.048C380.596 108.616 384.27 95.5725 391.619 84.9172C398.967 74.0782 409.163 65.9031 422.206 60.3917C435.434 54.8804 450.682 52.1247 467.951 52.1247C485.219 52.1247 500.284 54.8804 513.144 60.3917C526.187 65.9031 536.383 74.0782 543.732 84.9172C551.08 95.5725 554.754 108.616 554.754 124.048C554.754 139.479 551.08 152.523 543.732 163.178C536.383 173.65 526.187 181.641 513.144 187.153C500.284 192.664 485.219 195.42 467.951 195.42ZM467.951 167.863C477.504 167.863 486.046 166.209 493.578 162.903C501.294 159.412 507.357 154.452 511.766 148.022C516.175 141.408 518.379 133.417 518.379 124.048C518.379 114.678 516.175 106.687 511.766 100.073C507.357 93.2761 501.386 88.1321 493.854 84.6416C486.322 81.1511 477.687 79.4059 467.951 79.4059C458.398 79.4059 449.763 81.1511 442.047 84.6416C434.331 88.1321 428.177 93.1842 423.584 99.7978C419.175 106.411 416.971 114.495 416.971 124.048C416.971 133.417 419.175 141.408 423.584 148.022C427.993 154.452 434.056 159.412 441.772 162.903C449.488 166.209 458.214 167.863 467.951 167.863ZM680.992 195.42C668.867 195.42 658.487 193.307 649.853 189.082C641.402 184.672 634.513 178.977 629.185 171.996C623.858 164.832 619.908 157.024 617.336 148.573C614.764 140.122 613.478 131.855 613.478 123.772C613.478 113.668 614.672 104.299 617.06 95.6643C619.632 87.0299 623.582 79.4977 628.91 73.0678C634.237 66.4542 641.127 61.3103 649.577 57.636C658.212 53.9618 668.683 52.1247 680.992 52.1247C694.77 52.1247 707.171 55.156 718.194 61.2184C729.216 67.2809 737.942 75.7316 744.372 86.5706C750.986 97.2259 754.293 109.626 754.293 123.772C754.293 138.285 750.986 150.961 744.372 161.8C737.759 172.456 728.941 180.723 717.918 186.601C706.895 192.48 694.587 195.42 680.992 195.42ZM669.418 167.587C679.155 167.587 687.606 165.75 694.77 162.076C702.119 158.402 707.722 153.35 711.58 146.92C715.622 140.306 717.642 132.59 717.642 123.772C717.642 110.545 713.417 99.8897 704.966 91.8064C696.699 83.7231 684.85 79.6814 669.418 79.6814C659.681 79.6814 650.771 81.4267 642.688 84.9172C634.789 88.4077 628.542 93.4598 623.95 100.073C619.357 106.503 617.06 114.403 617.06 123.772C617.06 132.59 619.173 140.306 623.398 146.92C627.624 153.35 633.686 158.402 641.586 162.076C649.485 165.75 658.763 167.587 669.418 167.587ZM581.237 55.156H615.407L617.06 91.5308V247.226H581.237V55.156ZM847.333 195.144C833.739 195.144 821.338 192.205 810.132 186.326C799.109 180.263 790.291 171.905 783.677 161.249C777.247 150.41 774.032 137.918 774.032 123.772C774.032 109.259 777.339 96.6747 783.953 86.0195C790.566 75.3642 799.476 67.0972 810.683 61.2184C822.073 55.156 834.933 52.1247 849.262 52.1247C865.061 52.1247 877.737 55.3397 887.29 61.7696C897.027 68.0157 904.1 76.5583 908.509 87.3973C912.918 98.2363 915.123 110.361 915.123 123.772C915.123 131.855 913.837 140.122 911.265 148.573C908.693 156.84 904.743 164.556 899.415 171.721C894.088 178.702 887.107 184.397 878.472 188.806C869.838 193.031 859.458 195.144 847.333 195.144ZM858.907 167.587C869.746 167.587 879.115 165.75 887.015 162.076C894.915 158.402 900.977 153.258 905.202 146.644C909.428 140.031 911.54 132.407 911.54 123.772C911.54 114.403 909.336 106.503 904.927 100.073C900.701 93.4598 894.639 88.4996 886.739 85.1928C879.023 81.7022 869.746 79.957 858.907 79.957C843.659 79.957 831.81 83.9986 823.359 92.0819C814.908 99.9815 810.683 110.545 810.683 123.772C810.683 132.59 812.704 140.306 816.745 146.92C820.787 153.35 826.39 158.402 833.555 162.076C840.903 165.75 849.354 167.587 858.907 167.587ZM911.54 55.156H947.364V192.113H914.02C914.02 192.113 913.745 190.368 913.194 186.877C912.826 183.203 912.459 178.61 912.092 173.099C911.724 167.587 911.54 162.168 911.54 156.84V55.156ZM1046.47 195.144C1032.7 195.144 1020.2 192.205 1009 186.326C997.974 180.263 989.247 171.905 982.818 161.249C976.388 150.41 973.173 137.918 973.173 123.772C973.173 109.259 976.296 96.6747 982.542 86.0195C988.972 75.3642 997.698 67.0972 1008.72 61.2184C1019.74 55.156 1032.33 52.1247 1046.47 52.1247C1058.78 52.1247 1069.25 53.9618 1077.89 57.636C1086.52 61.3103 1093.5 66.4542 1098.83 73.0678C1104.16 79.4977 1108.02 87.0299 1110.41 95.6643C1112.98 104.299 1114.26 113.668 1114.26 123.772C1114.26 131.855 1112.98 140.122 1110.41 148.573C1107.83 156.84 1103.88 164.556 1098.56 171.721C1093.23 178.702 1086.25 184.397 1077.61 188.806C1068.98 193.031 1058.6 195.144 1046.47 195.144ZM1058.05 167.587C1068.89 167.587 1078.26 165.75 1086.16 162.076C1094.05 158.402 1100.12 153.258 1104.34 146.644C1108.57 140.031 1110.68 132.407 1110.68 123.772C1110.68 114.403 1108.48 106.503 1104.07 100.073C1099.84 93.4598 1093.78 88.4077 1085.88 84.9172C1078.16 81.4267 1068.89 79.6814 1058.05 79.6814C1042.8 79.6814 1030.95 83.7231 1022.5 91.8064C1014.05 99.8897 1009.82 110.545 1009.82 123.772C1009.82 132.59 1011.84 140.306 1015.89 146.92C1019.93 153.35 1025.53 158.402 1032.7 162.076C1040.04 165.75 1048.49 167.587 1058.05 167.587ZM1110.68 0.0425325H1146.5V192.113H1113.16C1112.61 187.887 1112.06 182.468 1111.51 175.854C1110.96 169.057 1110.68 162.719 1110.68 156.84V0.0425325Z" fill="url(#paint0_linear_0_4386)"/>
<defs>
<linearGradient id="paint0_linear_0_4386" x1="632.995" y1="-38.9559" x2="630.006" y2="185.289" gradientUnits="userSpaceOnUse">
<stop stop-color="#0D0D0D"/>
<stop offset="1" stop-color="#0D0D0D" stop-opacity="0.5"/>
</linearGradient>
</defs>
</svg>
