<svg width="437" height="276" viewBox="0 0 437 276" fill="none" xmlns="http://www.w3.org/2000/svg">
<g filter="url(#filter0_f_111_589)">
<path fill-rule="evenodd" clip-rule="evenodd" d="M54 116.923L70.4038 107.453L74.2339 109.664V122.178L70.4038 119.967L54 129.437V116.923Z" fill="#6580E1" fill-opacity="0.6"/>
<path d="M63.0954 127.801V116.897L73.5363 110.869V121.773L63.0954 127.801Z" fill="#0D0D0D"/>
<path d="M63.0954 127.801V116.897L73.5363 110.869V121.773L63.0954 127.801Z" fill="url(#paint0_linear_111_589)" fill-opacity="0.2"/>
<path d="M63.0954 127.801V116.897L73.5363 110.869V121.773L63.0954 127.801Z" stroke="url(#paint1_linear_111_589)" stroke-width="1.39398"/>
<path d="M63.0954 127.801V116.897L73.5363 110.869V121.773L63.0954 127.801Z" stroke="url(#paint2_radial_111_589)" stroke-width="1.39398"/>
<path fill-rule="evenodd" clip-rule="evenodd" d="M62.3984 116.497L69.2456 120.451L80.2307 114.108L84.0608 116.32V128.834L80.2307 126.622L69.2456 132.965L62.3984 129.011V116.497Z" fill="#6580E1" fill-opacity="0.6"/>
<path d="M73.7771 133.967V123.062L83.3682 117.525V128.429L73.7771 133.967Z" fill="#0D0D0D"/>
<path d="M73.7771 133.967V123.062L83.3682 117.525V128.429L73.7771 133.967Z" fill="url(#paint3_linear_111_589)" fill-opacity="0.2"/>
<path d="M73.7771 133.967V123.062L83.3682 117.525V128.429L73.7771 133.967Z" stroke="url(#paint4_linear_111_589)" stroke-width="1.39398"/>
<path d="M73.7771 133.967V123.062L83.3682 117.525V128.429L73.7771 133.967Z" stroke="url(#paint5_radial_111_589)" stroke-width="1.39398"/>
<path fill-rule="evenodd" clip-rule="evenodd" d="M73.0801 122.66L79.9643 126.635L91.8977 119.745L95.7277 121.957V134.471L91.8977 132.259L79.9643 139.149L73.0801 135.174V122.66Z" fill="#6580E1" fill-opacity="0.6"/>
<path d="M79.0473 131.788L79.2215 131.888L79.3958 131.788L95.3754 122.562V134.271L79.2215 143.597L54.3485 129.237V117.528L79.0473 131.788Z" fill="#0D0D0D"/>
<path d="M79.0473 131.788L79.2215 131.888L79.3958 131.788L95.3754 122.562V134.271L79.2215 143.597L54.3485 129.237V117.528L79.0473 131.788Z" fill="url(#paint6_linear_111_589)" fill-opacity="0.2"/>
<path d="M79.0473 131.788L79.2215 131.888L79.3958 131.788L95.3754 122.562V134.271L79.2215 143.597L54.3485 129.237V117.528L79.0473 131.788Z" stroke="#1A1A1A" stroke-width="0.69699"/>
<path d="M79.0473 131.788L79.2215 131.888L79.3958 131.788L95.3754 122.562V134.271L79.2215 143.597L54.3485 129.237V117.528L79.0473 131.788Z" stroke="url(#paint7_radial_111_589)" stroke-width="0.69699"/>
<path fill-rule="evenodd" clip-rule="evenodd" d="M105.116 110.336L91.8159 95.0916V107.606L105.116 122.85V110.336Z" fill="#0D0D0D"/>
<path fill-rule="evenodd" clip-rule="evenodd" d="M105.116 110.336L91.8159 95.0916V107.606L105.116 122.85V110.336Z" fill="url(#paint8_linear_111_589)" fill-opacity="0.2"/>
<path fill-rule="evenodd" clip-rule="evenodd" d="M91.8159 95.0908L96.8406 92.1898L113.17 111.885V124.399L96.8406 104.704L91.8159 107.605V95.0908Z" fill="#0D0D0D"/>
<path fill-rule="evenodd" clip-rule="evenodd" d="M91.8159 95.0908L96.8406 92.1898L113.17 111.885V124.399L96.8406 104.704L91.8159 107.605V95.0908Z" fill="url(#paint9_linear_111_589)" fill-opacity="0.2"/>
<path fill-rule="evenodd" clip-rule="evenodd" d="M113.168 111.885L107.528 115.142L73.4272 105.706V118.22L107.528 127.655L113.168 124.399V111.885Z" fill="#0D0D0D"/>
<path fill-rule="evenodd" clip-rule="evenodd" d="M113.168 111.885L107.528 115.142L73.4272 105.706V118.22L107.528 127.655L113.168 124.399V111.885Z" fill="url(#paint10_linear_111_589)" fill-opacity="0.2"/>
<path fill-rule="evenodd" clip-rule="evenodd" d="M113.168 111.885L107.528 115.142L73.4272 105.706V118.22L107.528 127.655L113.168 124.399V111.885Z" stroke="url(#paint11_linear_111_589)" stroke-width="0.69699"/>
<path fill-rule="evenodd" clip-rule="evenodd" d="M73.4272 105.705L78.4395 102.812L104.856 110.483L105.114 110.334V122.848L104.856 122.997L78.4395 115.325L73.4272 118.219V105.705Z" fill="#0D0D0D"/>
<path fill-rule="evenodd" clip-rule="evenodd" d="M73.4272 105.705L78.4395 102.812L104.856 110.483L105.114 110.334V122.848L104.856 122.997L78.4395 115.325L73.4272 118.219V105.705Z" fill="url(#paint12_linear_111_589)" fill-opacity="0.2"/>
<path fill-rule="evenodd" clip-rule="evenodd" d="M100.159 90.2735L105.75 87.0455L131.513 93.274L131.809 93.1034V105.617L131.513 105.788L105.75 99.5594L100.159 102.787V90.2735Z" fill="#6580E1" fill-opacity="0.6"/>
<path fill-rule="evenodd" clip-rule="evenodd" d="M131.812 93.1024L121.023 78.2279V90.7418L131.812 105.616V93.1024Z" fill="#0D0D0D"/>
<path fill-rule="evenodd" clip-rule="evenodd" d="M131.812 93.1024L121.023 78.2279V90.7418L131.812 105.616V93.1024Z" fill="url(#paint13_linear_111_589)" fill-opacity="0.2"/>
<path fill-rule="evenodd" clip-rule="evenodd" d="M131.812 93.1024L121.023 78.2279V90.7418L131.812 105.616V93.1024Z" stroke="url(#paint14_linear_111_589)" stroke-width="0.69699"/>
<path fill-rule="evenodd" clip-rule="evenodd" d="M121.023 78.228L126.615 75L151.836 89.5617V102.076L126.615 87.5139L121.023 90.742V78.228Z" fill="#0D0D0D"/>
<path fill-rule="evenodd" clip-rule="evenodd" d="M121.023 78.228L126.615 75L151.836 89.5617V102.076L126.615 87.5139L121.023 90.742V78.228Z" fill="url(#paint15_linear_111_589)" fill-opacity="0.2"/>
<path fill-rule="evenodd" clip-rule="evenodd" d="M151.837 89.5615L147.453 92.0928L130.126 82.0888L129.892 82.2239V94.7378L130.126 94.6027L147.453 104.607L151.837 102.075V89.5615Z" fill="#0D0D0D"/>
<path fill-rule="evenodd" clip-rule="evenodd" d="M151.837 89.5615L147.453 92.0928L130.126 82.0888L129.892 82.2239V94.7378L130.126 94.6027L147.453 104.607L151.837 102.075V89.5615Z" fill="url(#paint16_linear_111_589)" fill-opacity="0.2"/>
<path fill-rule="evenodd" clip-rule="evenodd" d="M151.837 89.5615L147.453 92.0928L130.126 82.0888L129.892 82.2239V94.7378L130.126 94.6027L147.453 104.607L151.837 102.075V89.5615Z" stroke="url(#paint17_linear_111_589)" stroke-width="0.69699"/>
<path fill-rule="evenodd" clip-rule="evenodd" d="M129.892 82.222L140.175 96.2077V108.722L129.892 94.736V82.222Z" fill="#0D0D0D"/>
<path fill-rule="evenodd" clip-rule="evenodd" d="M129.892 82.222L140.175 96.2077V108.722L129.892 94.736V82.222Z" fill="url(#paint18_linear_111_589)" fill-opacity="0.2"/>
<path fill-rule="evenodd" clip-rule="evenodd" d="M140.171 96.2095L136.895 98.1008L112.634 92.1424L112.4 92.2775V104.791L112.634 104.656L136.895 110.615L140.171 108.723V96.2095Z" fill="#0D0D0D"/>
<path fill-rule="evenodd" clip-rule="evenodd" d="M140.171 96.2095L136.895 98.1008L112.634 92.1424L112.4 92.2775V104.791L112.634 104.656L136.895 110.615L140.171 108.723V96.2095Z" fill="url(#paint19_linear_111_589)" fill-opacity="0.2"/>
<path fill-rule="evenodd" clip-rule="evenodd" d="M140.171 96.2095L136.895 98.1008L112.634 92.1424L112.4 92.2775V104.791L112.634 104.656L136.895 110.615L140.171 108.723V96.2095Z" stroke="url(#paint20_linear_111_589)" stroke-width="0.69699"/>
<path fill-rule="evenodd" clip-rule="evenodd" d="M112.4 92.2775L129.765 102.303V114.817L112.4 104.791V92.2775Z" fill="#6580E1" fill-opacity="0.6"/>
<path fill-rule="evenodd" clip-rule="evenodd" d="M129.764 102.304L125.38 104.835L100.159 90.2734V102.787L125.38 117.349L129.764 114.818V102.304Z" fill="#0D0D0D"/>
<path fill-rule="evenodd" clip-rule="evenodd" d="M129.764 102.304L125.38 104.835L100.159 90.2734V102.787L125.38 117.349L129.764 114.818V102.304Z" fill="url(#paint21_linear_111_589)" fill-opacity="0.2"/>
<path fill-rule="evenodd" clip-rule="evenodd" d="M129.764 102.304L125.38 104.835L100.159 90.2734V102.787L125.38 117.349L129.764 114.818V102.304Z" stroke="url(#paint22_linear_111_589)" stroke-width="0.69699"/>
<path d="M73.5374 109.664L62.2253 116.195L61.7025 116.497L62.2253 116.799L69.0724 120.752L69.2467 120.852L69.4209 120.752L80.2318 114.51L83.3648 116.319L72.9025 122.36L72.3797 122.661L72.9025 122.963L79.7867 126.938L79.9609 127.038L80.1352 126.938L91.8943 120.149L95.0274 121.957L79.222 131.083L54.6975 116.923L70.4043 107.855L73.5374 109.664ZM107.481 114.768L74.3223 105.593L78.4856 103.189L104.759 110.82L104.902 110.861L105.03 110.787L105.289 110.638L105.656 110.426L105.377 110.107L92.3554 95.1816L96.7584 92.6395L104.736 102.261L112.637 111.79L107.481 114.768ZM132.093 92.8979L121.532 78.3365L126.614 75.4024L151.139 89.5617L147.451 91.6905L130.298 81.7871L130.124 81.6865L129.95 81.7871L129.716 81.9222L129.378 82.1168L129.609 82.4304L139.662 96.1025L136.844 97.7291L112.719 91.8042L112.583 91.7708L112.462 91.8409L112.228 91.9759L111.705 92.2777L112.228 92.5796L129.07 102.303L125.382 104.432L100.858 90.2727L105.806 87.4161L131.434 93.6119L131.569 93.6446L131.69 93.575L131.985 93.4043L132.32 93.211L132.093 92.8979Z" fill="#0D0D0D"/>
<path d="M73.5374 109.664L62.2253 116.195L61.7025 116.497L62.2253 116.799L69.0724 120.752L69.2467 120.852L69.4209 120.752L80.2318 114.51L83.3648 116.319L72.9025 122.36L72.3797 122.661L72.9025 122.963L79.7867 126.938L79.9609 127.038L80.1352 126.938L91.8943 120.149L95.0274 121.957L79.222 131.083L54.6975 116.923L70.4043 107.855L73.5374 109.664ZM107.481 114.768L74.3223 105.593L78.4856 103.189L104.759 110.82L104.902 110.861L105.03 110.787L105.289 110.638L105.656 110.426L105.377 110.107L92.3554 95.1816L96.7584 92.6395L104.736 102.261L112.637 111.79L107.481 114.768ZM132.093 92.8979L121.532 78.3365L126.614 75.4024L151.139 89.5617L147.451 91.6905L130.298 81.7871L130.124 81.6865L129.95 81.7871L129.716 81.9222L129.378 82.1168L129.609 82.4304L139.662 96.1025L136.844 97.7291L112.719 91.8042L112.583 91.7708L112.462 91.8409L112.228 91.9759L111.705 92.2777L112.228 92.5796L129.07 102.303L125.382 104.432L100.858 90.2727L105.806 87.4161L131.434 93.6119L131.569 93.6446L131.69 93.575L131.985 93.4043L132.32 93.211L132.093 92.8979Z" fill="url(#paint23_linear_111_589)" fill-opacity="0.2"/>
<path d="M73.5374 109.664L62.2253 116.195L61.7025 116.497L62.2253 116.799L69.0724 120.752L69.2467 120.852L69.4209 120.752L80.2318 114.51L83.3648 116.319L72.9025 122.36L72.3797 122.661L72.9025 122.963L79.7867 126.938L79.9609 127.038L80.1352 126.938L91.8943 120.149L95.0274 121.957L79.222 131.083L54.6975 116.923L70.4043 107.855L73.5374 109.664ZM107.481 114.768L74.3223 105.593L78.4856 103.189L104.759 110.82L104.902 110.861L105.03 110.787L105.289 110.638L105.656 110.426L105.377 110.107L92.3554 95.1816L96.7584 92.6395L104.736 102.261L112.637 111.79L107.481 114.768ZM132.093 92.8979L121.532 78.3365L126.614 75.4024L151.139 89.5617L147.451 91.6905L130.298 81.7871L130.124 81.6865L129.95 81.7871L129.716 81.9222L129.378 82.1168L129.609 82.4304L139.662 96.1025L136.844 97.7291L112.719 91.8042L112.583 91.7708L112.462 91.8409L112.228 91.9759L111.705 92.2777L112.228 92.5796L129.07 102.303L125.382 104.432L100.858 90.2727L105.806 87.4161L131.434 93.6119L131.569 93.6446L131.69 93.575L131.985 93.4043L132.32 93.211L132.093 92.8979Z" stroke="url(#paint24_linear_111_589)" stroke-width="0.69699"/>
<path d="M73.5374 109.664L62.2253 116.195L61.7025 116.497L62.2253 116.799L69.0724 120.752L69.2467 120.852L69.4209 120.752L80.2318 114.51L83.3648 116.319L72.9025 122.36L72.3797 122.661L72.9025 122.963L79.7867 126.938L79.9609 127.038L80.1352 126.938L91.8943 120.149L95.0274 121.957L79.222 131.083L54.6975 116.923L70.4043 107.855L73.5374 109.664ZM107.481 114.768L74.3223 105.593L78.4856 103.189L104.759 110.82L104.902 110.861L105.03 110.787L105.289 110.638L105.656 110.426L105.377 110.107L92.3554 95.1816L96.7584 92.6395L104.736 102.261L112.637 111.79L107.481 114.768ZM132.093 92.8979L121.532 78.3365L126.614 75.4024L151.139 89.5617L147.451 91.6905L130.298 81.7871L130.124 81.6865L129.95 81.7871L129.716 81.9222L129.378 82.1168L129.609 82.4304L139.662 96.1025L136.844 97.7291L112.719 91.8042L112.583 91.7708L112.462 91.8409L112.228 91.9759L111.705 92.2777L112.228 92.5796L129.07 102.303L125.382 104.432L100.858 90.2727L105.806 87.4161L131.434 93.6119L131.569 93.6446L131.69 93.575L131.985 93.4043L132.32 93.211L132.093 92.8979Z" stroke="url(#paint25_radial_111_589)" stroke-width="0.69699"/>
</g>
<path fill-rule="evenodd" clip-rule="evenodd" d="M54.0005 116.923L70.4043 107.453L74.2344 109.664V122.178L70.4043 119.967L54.0005 129.437V116.923Z" fill="#6580E1" fill-opacity="0.6"/>
<path d="M63.0959 127.801V116.897L73.5368 110.869V121.773L63.0959 127.801Z" fill="#0D0D0D"/>
<path d="M63.0959 127.801V116.897L73.5368 110.869V121.773L63.0959 127.801Z" fill="url(#paint26_linear_111_589)" fill-opacity="0.2"/>
<path d="M63.0959 127.801V116.897L73.5368 110.869V121.773L63.0959 127.801Z" stroke="url(#paint27_linear_111_589)" stroke-width="1.39398"/>
<path d="M63.0959 127.801V116.897L73.5368 110.869V121.773L63.0959 127.801Z" stroke="url(#paint28_radial_111_589)" stroke-width="1.39398"/>
<path fill-rule="evenodd" clip-rule="evenodd" d="M62.3989 116.497L69.2461 120.451L80.2312 114.108L84.0613 116.32V128.834L80.2312 126.622L69.2461 132.965L62.3989 129.011V116.497Z" fill="#6580E1" fill-opacity="0.6"/>
<path d="M73.7776 133.967V123.062L83.3687 117.525V128.429L73.7776 133.967Z" fill="#0D0D0D"/>
<path d="M73.7776 133.967V123.062L83.3687 117.525V128.429L73.7776 133.967Z" fill="url(#paint29_linear_111_589)" fill-opacity="0.2"/>
<path d="M73.7776 133.967V123.062L83.3687 117.525V128.429L73.7776 133.967Z" stroke="url(#paint30_linear_111_589)" stroke-width="1.39398"/>
<path d="M73.7776 133.967V123.062L83.3687 117.525V128.429L73.7776 133.967Z" stroke="url(#paint31_radial_111_589)" stroke-width="1.39398"/>
<path fill-rule="evenodd" clip-rule="evenodd" d="M73.0806 122.66L79.9648 126.635L91.8982 119.745L95.7282 121.957V134.471L91.8982 132.259L79.9648 139.149L73.0806 135.174V122.66Z" fill="#6580E1" fill-opacity="0.6"/>
<path d="M79.0478 131.788L79.222 131.888L79.3963 131.788L95.3759 122.562V134.271L79.222 143.597L54.349 129.237V117.528L79.0478 131.788Z" fill="#0D0D0D"/>
<path d="M79.0478 131.788L79.222 131.888L79.3963 131.788L95.3759 122.562V134.271L79.222 143.597L54.349 129.237V117.528L79.0478 131.788Z" fill="url(#paint32_linear_111_589)" fill-opacity="0.2"/>
<path d="M79.0478 131.788L79.222 131.888L79.3963 131.788L95.3759 122.562V134.271L79.222 143.597L54.349 129.237V117.528L79.0478 131.788Z" stroke="#1A1A1A" stroke-width="0.69699"/>
<path d="M79.0478 131.788L79.222 131.888L79.3963 131.788L95.3759 122.562V134.271L79.222 143.597L54.349 129.237V117.528L79.0478 131.788Z" stroke="url(#paint33_radial_111_589)" stroke-width="0.69699"/>
<path fill-rule="evenodd" clip-rule="evenodd" d="M105.117 110.336L91.8164 95.0916V107.606L105.117 122.85V110.336Z" fill="#0D0D0D"/>
<path fill-rule="evenodd" clip-rule="evenodd" d="M105.117 110.336L91.8164 95.0916V107.606L105.117 122.85V110.336Z" fill="url(#paint34_linear_111_589)" fill-opacity="0.2"/>
<path fill-rule="evenodd" clip-rule="evenodd" d="M91.8164 95.0908L96.841 92.1898L113.171 111.885V124.399L96.841 104.704L91.8164 107.605V95.0908Z" fill="#0D0D0D"/>
<path fill-rule="evenodd" clip-rule="evenodd" d="M91.8164 95.0908L96.841 92.1898L113.171 111.885V124.399L96.841 104.704L91.8164 107.605V95.0908Z" fill="url(#paint35_linear_111_589)" fill-opacity="0.2"/>
<path fill-rule="evenodd" clip-rule="evenodd" d="M113.169 111.885L107.529 115.142L73.4277 105.706V118.22L107.529 127.655L113.169 124.399V111.885Z" fill="#0D0D0D"/>
<path fill-rule="evenodd" clip-rule="evenodd" d="M113.169 111.885L107.529 115.142L73.4277 105.706V118.22L107.529 127.655L113.169 124.399V111.885Z" fill="url(#paint36_linear_111_589)" fill-opacity="0.2"/>
<path fill-rule="evenodd" clip-rule="evenodd" d="M113.169 111.885L107.529 115.142L73.4277 105.706V118.22L107.529 127.655L113.169 124.399V111.885Z" stroke="url(#paint37_linear_111_589)" stroke-width="0.69699"/>
<path fill-rule="evenodd" clip-rule="evenodd" d="M73.4277 105.705L78.44 102.812L104.856 110.483L105.115 110.334V122.848L104.856 122.997L78.44 115.325L73.4277 118.219V105.705Z" fill="#0D0D0D"/>
<path fill-rule="evenodd" clip-rule="evenodd" d="M73.4277 105.705L78.44 102.812L104.856 110.483L105.115 110.334V122.848L104.856 122.997L78.44 115.325L73.4277 118.219V105.705Z" fill="url(#paint38_linear_111_589)" fill-opacity="0.2"/>
<path fill-rule="evenodd" clip-rule="evenodd" d="M100.159 90.2735L105.75 87.0455L131.514 93.274L131.809 93.1034V105.617L131.514 105.788L105.75 99.5594L100.159 102.787V90.2735Z" fill="#6580E1" fill-opacity="0.6"/>
<path fill-rule="evenodd" clip-rule="evenodd" d="M131.812 93.1024L121.024 78.2279V90.7418L131.812 105.616V93.1024Z" fill="#0D0D0D"/>
<path fill-rule="evenodd" clip-rule="evenodd" d="M131.812 93.1024L121.024 78.2279V90.7418L131.812 105.616V93.1024Z" fill="url(#paint39_linear_111_589)" fill-opacity="0.2"/>
<path fill-rule="evenodd" clip-rule="evenodd" d="M131.812 93.1024L121.024 78.2279V90.7418L131.812 105.616V93.1024Z" stroke="url(#paint40_linear_111_589)" stroke-width="0.69699"/>
<path fill-rule="evenodd" clip-rule="evenodd" d="M121.024 78.228L126.615 75L151.837 89.5617V102.076L126.615 87.5139L121.024 90.742V78.228Z" fill="#0D0D0D"/>
<path fill-rule="evenodd" clip-rule="evenodd" d="M121.024 78.228L126.615 75L151.837 89.5617V102.076L126.615 87.5139L121.024 90.742V78.228Z" fill="url(#paint41_linear_111_589)" fill-opacity="0.2"/>
<path fill-rule="evenodd" clip-rule="evenodd" d="M151.838 89.5615L147.454 92.0928L130.126 82.0888L129.892 82.2239V94.7378L130.126 94.6027L147.454 104.607L151.838 102.075V89.5615Z" fill="#0D0D0D"/>
<path fill-rule="evenodd" clip-rule="evenodd" d="M151.838 89.5615L147.454 92.0928L130.126 82.0888L129.892 82.2239V94.7378L130.126 94.6027L147.454 104.607L151.838 102.075V89.5615Z" fill="url(#paint42_linear_111_589)" fill-opacity="0.2"/>
<path fill-rule="evenodd" clip-rule="evenodd" d="M151.838 89.5615L147.454 92.0928L130.126 82.0888L129.892 82.2239V94.7378L130.126 94.6027L147.454 104.607L151.838 102.075V89.5615Z" stroke="url(#paint43_linear_111_589)" stroke-width="0.69699"/>
<path fill-rule="evenodd" clip-rule="evenodd" d="M129.892 82.222L140.175 96.2077V108.722L129.892 94.736V82.222Z" fill="#0D0D0D"/>
<path fill-rule="evenodd" clip-rule="evenodd" d="M129.892 82.222L140.175 96.2077V108.722L129.892 94.736V82.222Z" fill="url(#paint44_linear_111_589)" fill-opacity="0.2"/>
<path fill-rule="evenodd" clip-rule="evenodd" d="M140.172 96.2095L136.896 98.1008L112.635 92.1424L112.401 92.2775V104.791L112.635 104.656L136.896 110.615L140.172 108.723V96.2095Z" fill="#0D0D0D"/>
<path fill-rule="evenodd" clip-rule="evenodd" d="M140.172 96.2095L136.896 98.1008L112.635 92.1424L112.401 92.2775V104.791L112.635 104.656L136.896 110.615L140.172 108.723V96.2095Z" fill="url(#paint45_linear_111_589)" fill-opacity="0.2"/>
<path fill-rule="evenodd" clip-rule="evenodd" d="M140.172 96.2095L136.896 98.1008L112.635 92.1424L112.401 92.2775V104.791L112.635 104.656L136.896 110.615L140.172 108.723V96.2095Z" stroke="url(#paint46_linear_111_589)" stroke-width="0.69699"/>
<path fill-rule="evenodd" clip-rule="evenodd" d="M112.401 92.2775L129.765 102.303V114.817L112.401 104.791V92.2775Z" fill="#6580E1" fill-opacity="0.6"/>
<path fill-rule="evenodd" clip-rule="evenodd" d="M129.765 102.304L125.381 104.835L100.159 90.2734V102.787L125.381 117.349L129.765 114.818V102.304Z" fill="#0D0D0D"/>
<path fill-rule="evenodd" clip-rule="evenodd" d="M129.765 102.304L125.381 104.835L100.159 90.2734V102.787L125.381 117.349L129.765 114.818V102.304Z" fill="url(#paint47_linear_111_589)" fill-opacity="0.2"/>
<path fill-rule="evenodd" clip-rule="evenodd" d="M129.765 102.304L125.381 104.835L100.159 90.2734V102.787L125.381 117.349L129.765 114.818V102.304Z" stroke="url(#paint48_linear_111_589)" stroke-width="0.69699"/>
<path d="M73.5379 109.664L62.2257 116.195L61.703 116.497L62.2257 116.799L69.0729 120.752L69.2472 120.852L69.4214 120.752L80.2323 114.51L83.3653 116.319L72.9029 122.36L72.3802 122.661L72.9029 122.963L79.7872 126.938L79.9614 127.038L80.1357 126.938L91.8948 120.149L95.0279 121.957L79.2225 131.083L54.698 116.923L70.4048 107.855L73.5379 109.664ZM107.481 114.768L74.3228 105.593L78.486 103.189L104.759 110.82L104.902 110.861L105.031 110.787L105.289 110.638L105.656 110.426L105.378 110.107L92.3559 95.1816L96.7589 92.6395L104.736 102.261L112.638 111.79L107.481 114.768ZM132.094 92.8979L121.533 78.3365L126.614 75.4024L151.139 89.5617L147.452 91.6905L130.299 81.7871L130.124 81.6865L129.95 81.7871L129.716 81.9222L129.379 82.1168L129.61 82.4304L139.662 96.1025L136.845 97.7291L112.72 91.8042L112.584 91.7708L112.463 91.8409L112.229 91.9759L111.706 92.2777L112.229 92.5796L129.07 102.303L125.383 104.432L100.858 90.2727L105.806 87.4161L131.434 93.6119L131.57 93.6446L131.69 93.575L131.986 93.4043L132.321 93.211L132.094 92.8979Z" fill="#0D0D0D"/>
<path d="M73.5379 109.664L62.2257 116.195L61.703 116.497L62.2257 116.799L69.0729 120.752L69.2472 120.852L69.4214 120.752L80.2323 114.51L83.3653 116.319L72.9029 122.36L72.3802 122.661L72.9029 122.963L79.7872 126.938L79.9614 127.038L80.1357 126.938L91.8948 120.149L95.0279 121.957L79.2225 131.083L54.698 116.923L70.4048 107.855L73.5379 109.664ZM107.481 114.768L74.3228 105.593L78.486 103.189L104.759 110.82L104.902 110.861L105.031 110.787L105.289 110.638L105.656 110.426L105.378 110.107L92.3559 95.1816L96.7589 92.6395L104.736 102.261L112.638 111.79L107.481 114.768ZM132.094 92.8979L121.533 78.3365L126.614 75.4024L151.139 89.5617L147.452 91.6905L130.299 81.7871L130.124 81.6865L129.95 81.7871L129.716 81.9222L129.379 82.1168L129.61 82.4304L139.662 96.1025L136.845 97.7291L112.72 91.8042L112.584 91.7708L112.463 91.8409L112.229 91.9759L111.706 92.2777L112.229 92.5796L129.07 102.303L125.383 104.432L100.858 90.2727L105.806 87.4161L131.434 93.6119L131.57 93.6446L131.69 93.575L131.986 93.4043L132.321 93.211L132.094 92.8979Z" fill="url(#paint49_linear_111_589)" fill-opacity="0.2"/>
<path d="M73.5379 109.664L62.2257 116.195L61.703 116.497L62.2257 116.799L69.0729 120.752L69.2472 120.852L69.4214 120.752L80.2323 114.51L83.3653 116.319L72.9029 122.36L72.3802 122.661L72.9029 122.963L79.7872 126.938L79.9614 127.038L80.1357 126.938L91.8948 120.149L95.0279 121.957L79.2225 131.083L54.698 116.923L70.4048 107.855L73.5379 109.664ZM107.481 114.768L74.3228 105.593L78.486 103.189L104.759 110.82L104.902 110.861L105.031 110.787L105.289 110.638L105.656 110.426L105.378 110.107L92.3559 95.1816L96.7589 92.6395L104.736 102.261L112.638 111.79L107.481 114.768ZM132.094 92.8979L121.533 78.3365L126.614 75.4024L151.139 89.5617L147.452 91.6905L130.299 81.7871L130.124 81.6865L129.95 81.7871L129.716 81.9222L129.379 82.1168L129.61 82.4304L139.662 96.1025L136.845 97.7291L112.72 91.8042L112.584 91.7708L112.463 91.8409L112.229 91.9759L111.706 92.2777L112.229 92.5796L129.07 102.303L125.383 104.432L100.858 90.2727L105.806 87.4161L131.434 93.6119L131.57 93.6446L131.69 93.575L131.986 93.4043L132.321 93.211L132.094 92.8979Z" stroke="url(#paint50_linear_111_589)" stroke-width="0.69699"/>
<path d="M73.5379 109.664L62.2257 116.195L61.703 116.497L62.2257 116.799L69.0729 120.752L69.2472 120.852L69.4214 120.752L80.2323 114.51L83.3653 116.319L72.9029 122.36L72.3802 122.661L72.9029 122.963L79.7872 126.938L79.9614 127.038L80.1357 126.938L91.8948 120.149L95.0279 121.957L79.2225 131.083L54.698 116.923L70.4048 107.855L73.5379 109.664ZM107.481 114.768L74.3228 105.593L78.486 103.189L104.759 110.82L104.902 110.861L105.031 110.787L105.289 110.638L105.656 110.426L105.378 110.107L92.3559 95.1816L96.7589 92.6395L104.736 102.261L112.638 111.79L107.481 114.768ZM132.094 92.8979L121.533 78.3365L126.614 75.4024L151.139 89.5617L147.452 91.6905L130.299 81.7871L130.124 81.6865L129.95 81.7871L129.716 81.9222L129.379 82.1168L129.61 82.4304L139.662 96.1025L136.845 97.7291L112.72 91.8042L112.584 91.7708L112.463 91.8409L112.229 91.9759L111.706 92.2777L112.229 92.5796L129.07 102.303L125.383 104.432L100.858 90.2727L105.806 87.4161L131.434 93.6119L131.57 93.6446L131.69 93.575L131.986 93.4043L132.321 93.211L132.094 92.8979Z" stroke="url(#paint51_radial_111_589)" stroke-width="0.69699"/>
<path d="M289.327 184.889L173.345 98.4502L293.669 12.6095L409.651 99.0486L289.327 184.889Z" stroke="#1A1A1A"/>
<path d="M174 99L40 0" stroke="url(#paint52_linear_111_589)"/>
<path d="M118 186L-16 87" stroke="url(#paint53_linear_111_589)"/>
<path d="M174.5 97.5L29.5 185.5" stroke="url(#paint54_linear_111_589)"/>
<path d="M289 185L239.5 217" stroke="url(#paint55_linear_111_589)"/>
<path d="M459 67L409.5 99" stroke="url(#paint56_linear_111_589)"/>
<path d="M343 -19L293.5 13" stroke="url(#paint57_linear_111_589)"/>
<path d="M128 64.5L-17 152.5" stroke="url(#paint58_linear_111_589)"/>
<path d="M293.5 12.5L255.5 -16" stroke="url(#paint59_linear_111_589)"/>
<path d="M327.5 213.5L289.5 185" stroke="url(#paint60_linear_111_589)"/>
<path d="M447.5 127.5L409.5 99" stroke="url(#paint61_linear_111_589)"/>
<g opacity="0.15">
<line x1="176.833" y1="100.914" x2="170.901" y2="96.023" stroke="#D1DBE0"/>
<line x1="170.176" y1="100.618" x2="176.18" y2="95.6159" stroke="#D1DBE0"/>
</g>
<g opacity="0.15">
<line x1="292.18" y1="187.384" x2="286.176" y2="182.384" stroke="#D1DBE0"/>
<line x1="286.217" y1="186.588" x2="292.424" y2="182.327" stroke="#D1DBE0"/>
</g>
<g opacity="0.15">
<line x1="297.04" y1="15.6527" x2="291.108" y2="10.7613" stroke="#D1DBE0"/>
<line x1="290.383" y1="15.3561" x2="296.387" y2="10.3541" stroke="#D1DBE0"/>
</g>
<g opacity="0.15">
<line x1="413.055" y1="101.664" x2="406.195" y2="96.3966" stroke="#D1DBE0"/>
<line x1="406.419" y1="101.33" x2="413.216" y2="96.5899" stroke="#D1DBE0"/>
</g>
<g filter="url(#filter1_f_111_589)">
<path fill-rule="evenodd" clip-rule="evenodd" d="M349.285 59.6633C349.285 53.6947 342.891 48.7959 335.099 48.7959H322.604C319.737 48.7959 315.548 47.6135 313.342 46.1495L301.729 38.4916C296.657 35.1695 288.351 35.1695 283.205 38.4916L271.665 46.2058C269.46 47.6135 265.27 48.7959 262.404 48.7959H249.687C241.896 48.7959 235.501 53.6947 235.501 59.6633V72.0149C235.501 66.0463 241.896 61.1476 249.687 61.1476H262.404C265.27 61.1476 269.46 59.9651 271.665 58.5574L283.205 50.8432C288.351 47.5211 296.657 47.5211 301.729 50.8432L313.342 58.5011C315.548 59.9651 319.737 61.1476 322.604 61.1476H335.099C342.891 61.1476 349.285 66.0463 349.285 72.0149V59.6633Z" fill="#6580E1" fill-opacity="0.6"/>
<path fill-rule="evenodd" clip-rule="evenodd" d="M235.501 69.2913C235.501 71.4872 233.957 74.6405 232.12 76.3297L222.197 85.2827C220.15 87.1476 219.086 89.5703 219.004 92.0154V104.367C219.086 101.922 220.15 99.4992 222.197 97.6343L232.12 88.6813C233.957 86.9921 235.501 83.8388 235.501 81.6429V69.2913Z" fill="#6580E1" fill-opacity="0.6"/>
<path d="M235.002 123.885C234.985 123.849 234.968 123.813 234.95 123.778C234.314 122.46 233.434 121.194 232.459 120.298L232.456 120.295L222.534 111.344C222.534 111.343 222.534 111.343 222.533 111.343C220.424 109.42 219.421 106.886 219.505 104.386L219.505 104.377V104.369V96.6199C220.061 97.7502 220.847 98.8071 221.861 99.7311L221.863 99.7328L231.782 108.683C231.783 108.683 231.783 108.684 231.784 108.684C232.646 109.477 233.456 110.631 234.05 111.861C234.647 113.096 235.002 114.357 235.002 115.353V123.885Z" fill="#0D0D0D"/>
<path d="M235.002 123.885C234.985 123.849 234.968 123.813 234.95 123.778C234.314 122.46 233.434 121.194 232.459 120.298L232.456 120.295L222.534 111.344C222.534 111.343 222.534 111.343 222.533 111.343C220.424 109.42 219.421 106.886 219.505 104.386L219.505 104.377V104.369V96.6199C220.061 97.7502 220.847 98.8071 221.861 99.7311L221.863 99.7328L231.782 108.683C231.783 108.683 231.783 108.684 231.784 108.684C232.646 109.477 233.456 110.631 234.05 111.861C234.647 113.096 235.002 114.357 235.002 115.353V123.885Z" fill="url(#paint62_linear_111_589)" fill-opacity="0.2"/>
<path d="M235.002 123.885C234.985 123.849 234.968 123.813 234.95 123.778C234.314 122.46 233.434 121.194 232.459 120.298L232.456 120.295L222.534 111.344C222.534 111.343 222.534 111.343 222.533 111.343C220.424 109.42 219.421 106.886 219.505 104.386L219.505 104.377V104.369V96.6199C220.061 97.7502 220.847 98.8071 221.861 99.7311L221.863 99.7328L231.782 108.683C231.783 108.683 231.783 108.684 231.784 108.684C232.646 109.477 233.456 110.631 234.05 111.861C234.647 113.096 235.002 114.357 235.002 115.353V123.885Z" stroke="#1A1A1A"/>
<path d="M235.002 123.885C234.985 123.849 234.968 123.813 234.95 123.778C234.314 122.46 233.434 121.194 232.459 120.298L232.456 120.295L222.534 111.344C222.534 111.343 222.534 111.343 222.533 111.343C220.424 109.42 219.421 106.886 219.505 104.386L219.505 104.377V104.369V96.6199C220.061 97.7502 220.847 98.8071 221.861 99.7311L221.863 99.7328L231.782 108.683C231.783 108.683 231.783 108.684 231.784 108.684C232.646 109.477 233.456 110.631 234.05 111.861C234.647 113.096 235.002 114.357 235.002 115.353V123.885Z" stroke="url(#paint63_radial_111_589)"/>
<path d="M271.389 138.91L271.39 138.911L283.004 146.569L283.005 146.569C285.64 148.295 289.085 149.143 292.513 149.143C295.941 149.143 299.403 148.295 302.073 146.571L302.077 146.569L313.691 138.911L313.692 138.91C314.737 138.216 316.265 137.572 317.908 137.102C319.55 136.632 321.266 136.347 322.677 136.347H335.173C339.17 136.347 342.826 135.091 345.492 133.048C346.937 131.942 348.099 130.597 348.859 129.092V137.331C348.859 140.126 347.363 142.707 344.884 144.606C342.405 146.505 338.967 147.699 335.173 147.699H322.677C321.149 147.699 319.337 148.005 317.633 148.492C315.933 148.979 314.3 149.658 313.14 150.428C313.14 150.428 313.139 150.429 313.139 150.429L301.531 158.083C301.53 158.083 301.529 158.084 301.529 158.084C299.054 159.681 295.791 160.495 292.513 160.495C289.234 160.495 285.991 159.681 283.554 158.085C283.554 158.085 283.553 158.085 283.553 158.085L271.942 150.429C271.942 150.429 271.941 150.429 271.941 150.428C270.78 149.657 269.128 148.978 267.419 148.492C265.708 148.005 263.896 147.699 262.404 147.699H249.687C245.893 147.699 242.455 146.505 239.976 144.606C237.497 142.707 236.001 140.126 236.001 137.331V129.092C236.762 130.597 237.923 131.942 239.368 133.048C242.035 135.091 245.69 136.347 249.687 136.347H262.404C263.778 136.347 265.494 136.632 267.146 137.102C268.8 137.573 270.345 138.217 271.389 138.91Z" fill="#0D0D0D"/>
<path d="M271.389 138.91L271.39 138.911L283.004 146.569L283.005 146.569C285.64 148.295 289.085 149.143 292.513 149.143C295.941 149.143 299.403 148.295 302.073 146.571L302.077 146.569L313.691 138.911L313.692 138.91C314.737 138.216 316.265 137.572 317.908 137.102C319.55 136.632 321.266 136.347 322.677 136.347H335.173C339.17 136.347 342.826 135.091 345.492 133.048C346.937 131.942 348.099 130.597 348.859 129.092V137.331C348.859 140.126 347.363 142.707 344.884 144.606C342.405 146.505 338.967 147.699 335.173 147.699H322.677C321.149 147.699 319.337 148.005 317.633 148.492C315.933 148.979 314.3 149.658 313.14 150.428C313.14 150.428 313.139 150.429 313.139 150.429L301.531 158.083C301.53 158.083 301.529 158.084 301.529 158.084C299.054 159.681 295.791 160.495 292.513 160.495C289.234 160.495 285.991 159.681 283.554 158.085C283.554 158.085 283.553 158.085 283.553 158.085L271.942 150.429C271.942 150.429 271.941 150.429 271.941 150.428C270.78 149.657 269.128 148.978 267.419 148.492C265.708 148.005 263.896 147.699 262.404 147.699H249.687C245.893 147.699 242.455 146.505 239.976 144.606C237.497 142.707 236.001 140.126 236.001 137.331V129.092C236.762 130.597 237.923 131.942 239.368 133.048C242.035 135.091 245.69 136.347 249.687 136.347H262.404C263.778 136.347 265.494 136.632 267.146 137.102C268.8 137.573 270.345 138.217 271.389 138.91Z" fill="url(#paint64_linear_111_589)" fill-opacity="0.2"/>
<path d="M271.389 138.91L271.39 138.911L283.004 146.569L283.005 146.569C285.64 148.295 289.085 149.143 292.513 149.143C295.941 149.143 299.403 148.295 302.073 146.571L302.077 146.569L313.691 138.911L313.692 138.91C314.737 138.216 316.265 137.572 317.908 137.102C319.55 136.632 321.266 136.347 322.677 136.347H335.173C339.17 136.347 342.826 135.091 345.492 133.048C346.937 131.942 348.099 130.597 348.859 129.092V137.331C348.859 140.126 347.363 142.707 344.884 144.606C342.405 146.505 338.967 147.699 335.173 147.699H322.677C321.149 147.699 319.337 148.005 317.633 148.492C315.933 148.979 314.3 149.658 313.14 150.428C313.14 150.428 313.139 150.429 313.139 150.429L301.531 158.083C301.53 158.083 301.529 158.084 301.529 158.084C299.054 159.681 295.791 160.495 292.513 160.495C289.234 160.495 285.991 159.681 283.554 158.085C283.554 158.085 283.553 158.085 283.553 158.085L271.942 150.429C271.942 150.429 271.941 150.429 271.941 150.428C270.78 149.657 269.128 148.978 267.419 148.492C265.708 148.005 263.896 147.699 262.404 147.699H249.687C245.893 147.699 242.455 146.505 239.976 144.606C237.497 142.707 236.001 140.126 236.001 137.331V129.092C236.762 130.597 237.923 131.942 239.368 133.048C242.035 135.091 245.69 136.347 249.687 136.347H262.404C263.778 136.347 265.494 136.632 267.146 137.102C268.8 137.573 270.345 138.217 271.389 138.91Z" stroke="#1A1A1A"/>
<path d="M271.389 138.91L271.39 138.911L283.004 146.569L283.005 146.569C285.64 148.295 289.085 149.143 292.513 149.143C295.941 149.143 299.403 148.295 302.073 146.571L302.077 146.569L313.691 138.911L313.692 138.91C314.737 138.216 316.265 137.572 317.908 137.102C319.55 136.632 321.266 136.347 322.677 136.347H335.173C339.17 136.347 342.826 135.091 345.492 133.048C346.937 131.942 348.099 130.597 348.859 129.092V137.331C348.859 140.126 347.363 142.707 344.884 144.606C342.405 146.505 338.967 147.699 335.173 147.699H322.677C321.149 147.699 319.337 148.005 317.633 148.492C315.933 148.979 314.3 149.658 313.14 150.428C313.14 150.428 313.139 150.429 313.139 150.429L301.531 158.083C301.53 158.083 301.529 158.084 301.529 158.084C299.054 159.681 295.791 160.495 292.513 160.495C289.234 160.495 285.991 159.681 283.554 158.085C283.554 158.085 283.553 158.085 283.553 158.085L271.942 150.429C271.942 150.429 271.941 150.429 271.941 150.428C270.78 149.657 269.128 148.978 267.419 148.492C265.708 148.005 263.896 147.699 262.404 147.699H249.687C245.893 147.699 242.455 146.505 239.976 144.606C237.497 142.707 236.001 140.126 236.001 137.331V129.092C236.762 130.597 237.923 131.942 239.368 133.048C242.035 135.091 245.69 136.347 249.687 136.347H262.404C263.778 136.347 265.494 136.632 267.146 137.102C268.8 137.573 270.345 138.217 271.389 138.91Z" stroke="url(#paint65_radial_111_589)"/>
<path d="M353.147 108.686L353.148 108.685L363.144 99.7886L363.144 99.7886L363.149 99.7847C364.159 98.8645 364.942 97.8068 365.497 96.6732V104.974C365.425 107.307 364.421 109.623 362.477 111.395L352.485 120.289C352.484 120.289 352.484 120.289 352.484 120.289C351.468 121.188 350.568 122.471 349.922 123.802C349.901 123.845 349.881 123.887 349.861 123.93V115.407C349.861 114.41 350.216 113.136 350.822 111.887C351.425 110.643 352.252 109.477 353.147 108.686Z" fill="#0D0D0D" stroke="#1A1A1A"/>
<path fill-rule="evenodd" clip-rule="evenodd" d="M365.999 92.6309C366.079 89.9528 364.997 87.2473 362.741 85.227L352.745 76.3304C350.834 74.6412 349.29 71.4879 349.29 69.2356V81.5873C349.29 83.8395 350.834 86.9928 352.745 88.682L362.741 97.5786C364.997 99.5989 366.079 102.304 365.999 104.982V92.6309Z" fill="#0D0D0D" fill-opacity="0.6"/>
<path d="M271.935 46.6273L271.935 46.6272C270.776 47.3671 269.126 48.0311 267.418 48.5102C265.708 48.9898 263.897 49.2959 262.404 49.2959H249.688C245.894 49.2959 242.456 50.4894 239.977 52.3883C237.498 54.2874 236.002 56.8688 236.002 59.6633V69.292C236.002 70.492 235.585 71.9061 234.95 73.2187C234.314 74.5358 233.434 75.802 232.459 76.6985L232.456 76.7016L222.534 85.6529C222.534 85.6531 222.534 85.6534 222.533 85.6536C218.489 89.3403 218.489 95.3032 222.533 98.9899C222.534 98.9902 222.534 98.9904 222.534 98.9907L232.456 107.942L232.459 107.945C233.434 108.841 234.314 110.108 234.95 111.425C235.585 112.737 236.002 114.151 236.002 115.352V124.98C236.002 127.775 237.498 130.356 239.977 132.255C242.456 134.154 245.894 135.348 249.688 135.348H262.404C263.897 135.348 265.709 135.654 267.42 136.141C269.129 136.627 270.78 137.306 271.942 138.077C271.942 138.077 271.942 138.078 271.943 138.078L283.554 145.734L271.935 46.6273ZM271.935 46.6273L271.944 46.6215M271.935 46.6273L271.944 46.6215M271.944 46.6215L283.477 38.9117C283.479 38.911 283.48 38.9102 283.481 38.9095M271.944 46.6215L283.481 38.9095M352.41 76.705C351.395 75.8077 350.495 74.5396 349.848 73.2134C349.203 71.8908 348.786 70.4627 348.786 69.2356V59.6633C348.786 56.8688 347.29 54.2874 344.811 52.3883C342.332 50.4894 338.895 49.2959 335.1 49.2959H322.604C321.112 49.2959 319.3 48.9897 317.589 48.5026C315.881 48.0164 314.229 47.3375 313.068 46.5669L352.41 76.705ZM352.41 76.705L362.405 85.5994C362.405 85.5997 362.405 85.5999 362.405 85.6001C366.52 89.2869 366.52 95.3593 362.476 99.0454C362.476 99.0459 362.475 99.0464 362.474 99.0469L352.484 107.939C351.468 108.837 350.567 110.12 349.921 111.452C349.277 112.78 348.86 114.208 348.86 115.408V124.98C348.86 127.775 347.364 130.356 344.885 132.255C342.406 134.154 338.968 135.348 335.174 135.348H322.678C321.149 135.348 319.338 135.654 317.634 136.141C315.934 136.628 314.301 137.307 313.141 138.077L352.41 76.705ZM283.481 38.9095C285.956 37.3127 289.217 36.5 292.495 36.5C295.774 36.5 299.017 37.3133 301.454 38.909L283.481 38.9095ZM287.847 109.273L287.543 108.876L287.847 109.273L323.349 82.0766C324.524 81.1766 325.144 79.9523 325.144 78.6953C325.144 77.4383 324.524 76.214 323.349 75.3141C322.181 74.4191 320.654 73.9863 319.15 73.9863C317.646 73.9863 316.118 74.4191 314.95 75.3141C314.95 75.3141 314.95 75.3141 314.95 75.3141L297.235 88.8843C289.218 95.0263 278.077 95.0262 270.059 88.8842L269.755 89.2812L270.059 88.8842C268.891 87.9892 267.363 87.5565 265.859 87.5565C264.355 87.5565 262.828 87.9892 261.659 88.8842C260.485 89.7841 259.865 91.0085 259.865 92.2655C259.865 93.5225 260.485 94.7468 261.659 95.6467L279.447 109.273C280.573 110.136 282.08 110.615 283.647 110.615C285.214 110.615 286.721 110.136 287.847 109.273ZM301.455 38.9099L313.066 46.5661L301.455 38.9099ZM313.14 138.078L301.532 145.732C301.531 145.732 301.53 145.733 301.53 145.733C299.054 147.33 295.792 148.144 292.514 148.144C289.235 148.144 285.992 147.33 283.555 145.734L313.14 138.078Z" fill="#0D0D0D"/>
<path d="M271.935 46.6273L271.935 46.6272C270.776 47.3671 269.126 48.0311 267.418 48.5102C265.708 48.9898 263.897 49.2959 262.404 49.2959H249.688C245.894 49.2959 242.456 50.4894 239.977 52.3883C237.498 54.2874 236.002 56.8688 236.002 59.6633V69.292C236.002 70.492 235.585 71.9061 234.95 73.2187C234.314 74.5358 233.434 75.802 232.459 76.6985L232.456 76.7016L222.534 85.6529C222.534 85.6531 222.534 85.6534 222.533 85.6536C218.489 89.3403 218.489 95.3032 222.533 98.9899C222.534 98.9902 222.534 98.9904 222.534 98.9907L232.456 107.942L232.459 107.945C233.434 108.841 234.314 110.108 234.95 111.425C235.585 112.737 236.002 114.151 236.002 115.352V124.98C236.002 127.775 237.498 130.356 239.977 132.255C242.456 134.154 245.894 135.348 249.688 135.348H262.404C263.897 135.348 265.709 135.654 267.42 136.141C269.129 136.627 270.78 137.306 271.942 138.077C271.942 138.077 271.942 138.078 271.943 138.078L283.554 145.734L271.935 46.6273ZM271.935 46.6273L271.944 46.6215M271.935 46.6273L271.944 46.6215M271.944 46.6215L283.477 38.9117C283.479 38.911 283.48 38.9102 283.481 38.9095M271.944 46.6215L283.481 38.9095M352.41 76.705C351.395 75.8077 350.495 74.5396 349.848 73.2134C349.203 71.8908 348.786 70.4627 348.786 69.2356V59.6633C348.786 56.8688 347.29 54.2874 344.811 52.3883C342.332 50.4894 338.895 49.2959 335.1 49.2959H322.604C321.112 49.2959 319.3 48.9897 317.589 48.5026C315.881 48.0164 314.229 47.3375 313.068 46.5669L352.41 76.705ZM352.41 76.705L362.405 85.5994C362.405 85.5997 362.405 85.5999 362.405 85.6001C366.52 89.2869 366.52 95.3593 362.476 99.0454C362.476 99.0459 362.475 99.0464 362.474 99.0469L352.484 107.939C351.468 108.837 350.567 110.12 349.921 111.452C349.277 112.78 348.86 114.208 348.86 115.408V124.98C348.86 127.775 347.364 130.356 344.885 132.255C342.406 134.154 338.968 135.348 335.174 135.348H322.678C321.149 135.348 319.338 135.654 317.634 136.141C315.934 136.628 314.301 137.307 313.141 138.077L352.41 76.705ZM283.481 38.9095C285.956 37.3127 289.217 36.5 292.495 36.5C295.774 36.5 299.017 37.3133 301.454 38.909L283.481 38.9095ZM287.847 109.273L287.543 108.876L287.847 109.273L323.349 82.0766C324.524 81.1766 325.144 79.9523 325.144 78.6953C325.144 77.4383 324.524 76.214 323.349 75.3141C322.181 74.4191 320.654 73.9863 319.15 73.9863C317.646 73.9863 316.118 74.4191 314.95 75.3141C314.95 75.3141 314.95 75.3141 314.95 75.3141L297.235 88.8843C289.218 95.0263 278.077 95.0262 270.059 88.8842L269.755 89.2812L270.059 88.8842C268.891 87.9892 267.363 87.5565 265.859 87.5565C264.355 87.5565 262.828 87.9892 261.659 88.8842C260.485 89.7841 259.865 91.0085 259.865 92.2655C259.865 93.5225 260.485 94.7468 261.659 95.6467L279.447 109.273C280.573 110.136 282.08 110.615 283.647 110.615C285.214 110.615 286.721 110.136 287.847 109.273ZM301.455 38.9099L313.066 46.5661L301.455 38.9099ZM313.14 138.078L301.532 145.732C301.531 145.732 301.53 145.733 301.53 145.733C299.054 147.33 295.792 148.144 292.514 148.144C289.235 148.144 285.992 147.33 283.555 145.734L313.14 138.078Z" fill="url(#paint66_linear_111_589)" fill-opacity="0.2"/>
<path d="M271.935 46.6273L271.935 46.6272C270.776 47.3671 269.126 48.0311 267.418 48.5102C265.708 48.9898 263.897 49.2959 262.404 49.2959H249.688C245.894 49.2959 242.456 50.4894 239.977 52.3883C237.498 54.2874 236.002 56.8688 236.002 59.6633V69.292C236.002 70.492 235.585 71.9061 234.95 73.2187C234.314 74.5358 233.434 75.802 232.459 76.6985L232.456 76.7016L222.534 85.6529C222.534 85.6531 222.534 85.6534 222.533 85.6536C218.489 89.3403 218.489 95.3032 222.533 98.9899C222.534 98.9902 222.534 98.9904 222.534 98.9907L232.456 107.942L232.459 107.945C233.434 108.841 234.314 110.108 234.95 111.425C235.585 112.737 236.002 114.151 236.002 115.352V124.98C236.002 127.775 237.498 130.356 239.977 132.255C242.456 134.154 245.894 135.348 249.688 135.348H262.404C263.897 135.348 265.709 135.654 267.42 136.141C269.129 136.627 270.78 137.306 271.942 138.077C271.942 138.077 271.942 138.078 271.943 138.078L283.554 145.734L271.935 46.6273ZM271.935 46.6273L271.944 46.6215M271.935 46.6273L271.944 46.6215M271.944 46.6215L283.477 38.9117C283.479 38.911 283.48 38.9102 283.481 38.9095M271.944 46.6215L283.481 38.9095M352.41 76.705C351.395 75.8077 350.495 74.5396 349.848 73.2134C349.203 71.8908 348.786 70.4627 348.786 69.2356V59.6633C348.786 56.8688 347.29 54.2874 344.811 52.3883C342.332 50.4894 338.895 49.2959 335.1 49.2959H322.604C321.112 49.2959 319.3 48.9897 317.589 48.5026C315.881 48.0164 314.229 47.3375 313.068 46.5669L352.41 76.705ZM352.41 76.705L362.405 85.5994C362.405 85.5997 362.405 85.5999 362.405 85.6001C366.52 89.2869 366.52 95.3593 362.476 99.0454C362.476 99.0459 362.475 99.0464 362.474 99.0469L352.484 107.939C351.468 108.837 350.567 110.12 349.921 111.452C349.277 112.78 348.86 114.208 348.86 115.408V124.98C348.86 127.775 347.364 130.356 344.885 132.255C342.406 134.154 338.968 135.348 335.174 135.348H322.678C321.149 135.348 319.338 135.654 317.634 136.141C315.934 136.628 314.301 137.307 313.141 138.077L352.41 76.705ZM283.481 38.9095C285.956 37.3127 289.217 36.5 292.495 36.5C295.774 36.5 299.017 37.3133 301.454 38.909L283.481 38.9095ZM287.847 109.273L287.543 108.876L287.847 109.273L323.349 82.0766C324.524 81.1766 325.144 79.9523 325.144 78.6953C325.144 77.4383 324.524 76.214 323.349 75.3141C322.181 74.4191 320.654 73.9863 319.15 73.9863C317.646 73.9863 316.118 74.4191 314.95 75.3141C314.95 75.3141 314.95 75.3141 314.95 75.3141L297.235 88.8843C289.218 95.0263 278.077 95.0262 270.059 88.8842L269.755 89.2812L270.059 88.8842C268.891 87.9892 267.363 87.5565 265.859 87.5565C264.355 87.5565 262.828 87.9892 261.659 88.8842C260.485 89.7841 259.865 91.0085 259.865 92.2655C259.865 93.5225 260.485 94.7468 261.659 95.6467L279.447 109.273C280.573 110.136 282.08 110.615 283.647 110.615C285.214 110.615 286.721 110.136 287.847 109.273ZM301.455 38.9099L313.066 46.5661L301.455 38.9099ZM313.14 138.078L301.532 145.732C301.531 145.732 301.53 145.733 301.53 145.733C299.054 147.33 295.792 148.144 292.514 148.144C289.235 148.144 285.992 147.33 283.555 145.734L313.14 138.078Z" stroke="url(#paint67_linear_111_589)"/>
<path d="M271.935 46.6273L271.935 46.6272C270.776 47.3671 269.126 48.0311 267.418 48.5102C265.708 48.9898 263.897 49.2959 262.404 49.2959H249.688C245.894 49.2959 242.456 50.4894 239.977 52.3883C237.498 54.2874 236.002 56.8688 236.002 59.6633V69.292C236.002 70.492 235.585 71.9061 234.95 73.2187C234.314 74.5358 233.434 75.802 232.459 76.6985L232.456 76.7016L222.534 85.6529C222.534 85.6531 222.534 85.6534 222.533 85.6536C218.489 89.3403 218.489 95.3032 222.533 98.9899C222.534 98.9902 222.534 98.9904 222.534 98.9907L232.456 107.942L232.459 107.945C233.434 108.841 234.314 110.108 234.95 111.425C235.585 112.737 236.002 114.151 236.002 115.352V124.98C236.002 127.775 237.498 130.356 239.977 132.255C242.456 134.154 245.894 135.348 249.688 135.348H262.404C263.897 135.348 265.709 135.654 267.42 136.141C269.129 136.627 270.78 137.306 271.942 138.077C271.942 138.077 271.942 138.078 271.943 138.078L283.554 145.734L271.935 46.6273ZM271.935 46.6273L271.944 46.6215M271.935 46.6273L271.944 46.6215M271.944 46.6215L283.477 38.9117C283.479 38.911 283.48 38.9102 283.481 38.9095M271.944 46.6215L283.481 38.9095M352.41 76.705C351.395 75.8077 350.495 74.5396 349.848 73.2134C349.203 71.8908 348.786 70.4627 348.786 69.2356V59.6633C348.786 56.8688 347.29 54.2874 344.811 52.3883C342.332 50.4894 338.895 49.2959 335.1 49.2959H322.604C321.112 49.2959 319.3 48.9897 317.589 48.5026C315.881 48.0164 314.229 47.3375 313.068 46.5669L352.41 76.705ZM352.41 76.705L362.405 85.5994C362.405 85.5997 362.405 85.5999 362.405 85.6001C366.52 89.2869 366.52 95.3593 362.476 99.0454C362.476 99.0459 362.475 99.0464 362.474 99.0469L352.484 107.939C351.468 108.837 350.567 110.12 349.921 111.452C349.277 112.78 348.86 114.208 348.86 115.408V124.98C348.86 127.775 347.364 130.356 344.885 132.255C342.406 134.154 338.968 135.348 335.174 135.348H322.678C321.149 135.348 319.338 135.654 317.634 136.141C315.934 136.628 314.301 137.307 313.141 138.077L352.41 76.705ZM283.481 38.9095C285.956 37.3127 289.217 36.5 292.495 36.5C295.774 36.5 299.017 37.3133 301.454 38.909L283.481 38.9095ZM287.847 109.273L287.543 108.876L287.847 109.273L323.349 82.0766C324.524 81.1766 325.144 79.9523 325.144 78.6953C325.144 77.4383 324.524 76.214 323.349 75.3141C322.181 74.4191 320.654 73.9863 319.15 73.9863C317.646 73.9863 316.118 74.4191 314.95 75.3141C314.95 75.3141 314.95 75.3141 314.95 75.3141L297.235 88.8843C289.218 95.0263 278.077 95.0262 270.059 88.8842L269.755 89.2812L270.059 88.8842C268.891 87.9892 267.363 87.5565 265.859 87.5565C264.355 87.5565 262.828 87.9892 261.659 88.8842C260.485 89.7841 259.865 91.0085 259.865 92.2655C259.865 93.5225 260.485 94.7468 261.659 95.6467L279.447 109.273C280.573 110.136 282.08 110.615 283.647 110.615C285.214 110.615 286.721 110.136 287.847 109.273ZM301.455 38.9099L313.066 46.5661L301.455 38.9099ZM313.14 138.078L301.532 145.732C301.531 145.732 301.53 145.733 301.53 145.733C299.054 147.33 295.792 148.144 292.514 148.144C289.235 148.144 285.992 147.33 283.555 145.734L313.14 138.078Z" stroke="url(#paint68_radial_111_589)"/>
</g>
<path fill-rule="evenodd" clip-rule="evenodd" d="M349.285 59.6633C349.285 53.6947 342.891 48.7959 335.099 48.7959H322.604C319.737 48.7959 315.548 47.6135 313.342 46.1495L301.729 38.4916C296.657 35.1695 288.351 35.1695 283.205 38.4916L271.665 46.2058C269.46 47.6135 265.27 48.7959 262.404 48.7959H249.687C241.896 48.7959 235.501 53.6947 235.501 59.6633V72.0149C235.501 66.0463 241.896 61.1476 249.687 61.1476H262.404C265.27 61.1476 269.46 59.9651 271.665 58.5574L283.205 50.8432C288.351 47.5211 296.657 47.5211 301.729 50.8432L313.342 58.5011C315.548 59.9651 319.737 61.1476 322.604 61.1476H335.099C342.891 61.1476 349.285 66.0463 349.285 72.0149V59.6633Z" fill="#6580E1" fill-opacity="0.6"/>
<path fill-rule="evenodd" clip-rule="evenodd" d="M235.501 69.2913C235.501 71.4872 233.957 74.6405 232.12 76.3297L222.197 85.2827C220.15 87.1476 219.086 89.5703 219.004 92.0154V104.367C219.086 101.922 220.15 99.4992 222.197 97.6343L232.12 88.6813C233.957 86.9921 235.501 83.8388 235.501 81.6429V69.2913Z" fill="#6580E1" fill-opacity="0.6"/>
<path d="M235.002 123.885C234.985 123.849 234.968 123.813 234.95 123.778C234.314 122.46 233.434 121.194 232.459 120.298L232.456 120.295L222.534 111.344C222.534 111.343 222.534 111.343 222.533 111.343C220.424 109.42 219.421 106.886 219.505 104.386L219.505 104.377V104.369V96.6199C220.061 97.7502 220.847 98.8071 221.861 99.7311L221.863 99.7328L231.782 108.683C231.783 108.683 231.783 108.684 231.784 108.684C232.646 109.477 233.456 110.631 234.05 111.861C234.647 113.096 235.002 114.357 235.002 115.353V123.885Z" fill="#0D0D0D"/>
<path d="M235.002 123.885C234.985 123.849 234.968 123.813 234.95 123.778C234.314 122.46 233.434 121.194 232.459 120.298L232.456 120.295L222.534 111.344C222.534 111.343 222.534 111.343 222.533 111.343C220.424 109.42 219.421 106.886 219.505 104.386L219.505 104.377V104.369V96.6199C220.061 97.7502 220.847 98.8071 221.861 99.7311L221.863 99.7328L231.782 108.683C231.783 108.683 231.783 108.684 231.784 108.684C232.646 109.477 233.456 110.631 234.05 111.861C234.647 113.096 235.002 114.357 235.002 115.353V123.885Z" fill="url(#paint69_linear_111_589)" fill-opacity="0.2"/>
<path d="M235.002 123.885C234.985 123.849 234.968 123.813 234.95 123.778C234.314 122.46 233.434 121.194 232.459 120.298L232.456 120.295L222.534 111.344C222.534 111.343 222.534 111.343 222.533 111.343C220.424 109.42 219.421 106.886 219.505 104.386L219.505 104.377V104.369V96.6199C220.061 97.7502 220.847 98.8071 221.861 99.7311L221.863 99.7328L231.782 108.683C231.783 108.683 231.783 108.684 231.784 108.684C232.646 109.477 233.456 110.631 234.05 111.861C234.647 113.096 235.002 114.357 235.002 115.353V123.885Z" stroke="#1A1A1A"/>
<path d="M235.002 123.885C234.985 123.849 234.968 123.813 234.95 123.778C234.314 122.46 233.434 121.194 232.459 120.298L232.456 120.295L222.534 111.344C222.534 111.343 222.534 111.343 222.533 111.343C220.424 109.42 219.421 106.886 219.505 104.386L219.505 104.377V104.369V96.6199C220.061 97.7502 220.847 98.8071 221.861 99.7311L221.863 99.7328L231.782 108.683C231.783 108.683 231.783 108.684 231.784 108.684C232.646 109.477 233.456 110.631 234.05 111.861C234.647 113.096 235.002 114.357 235.002 115.353V123.885Z" stroke="url(#paint70_radial_111_589)"/>
<path d="M271.389 138.91L271.39 138.911L283.004 146.569L283.005 146.569C285.64 148.295 289.085 149.143 292.513 149.143C295.941 149.143 299.403 148.295 302.073 146.571L302.077 146.569L313.691 138.911L313.692 138.91C314.737 138.216 316.265 137.572 317.908 137.102C319.55 136.632 321.266 136.347 322.677 136.347H335.173C339.17 136.347 342.826 135.091 345.492 133.048C346.937 131.942 348.099 130.597 348.859 129.092V137.331C348.859 140.126 347.363 142.707 344.884 144.606C342.405 146.505 338.967 147.699 335.173 147.699H322.677C321.149 147.699 319.337 148.005 317.633 148.492C315.933 148.979 314.3 149.658 313.14 150.428C313.14 150.428 313.139 150.429 313.139 150.429L301.531 158.083C301.53 158.083 301.529 158.084 301.529 158.084C299.054 159.681 295.791 160.495 292.513 160.495C289.234 160.495 285.991 159.681 283.554 158.085C283.554 158.085 283.553 158.085 283.553 158.085L271.942 150.429C271.942 150.429 271.941 150.429 271.941 150.428C270.78 149.657 269.128 148.978 267.419 148.492C265.708 148.005 263.896 147.699 262.404 147.699H249.687C245.893 147.699 242.455 146.505 239.976 144.606C237.497 142.707 236.001 140.126 236.001 137.331V129.092C236.762 130.597 237.923 131.942 239.368 133.048C242.035 135.091 245.69 136.347 249.687 136.347H262.404C263.778 136.347 265.494 136.632 267.146 137.102C268.8 137.573 270.345 138.217 271.389 138.91Z" fill="#0D0D0D"/>
<path d="M271.389 138.91L271.39 138.911L283.004 146.569L283.005 146.569C285.64 148.295 289.085 149.143 292.513 149.143C295.941 149.143 299.403 148.295 302.073 146.571L302.077 146.569L313.691 138.911L313.692 138.91C314.737 138.216 316.265 137.572 317.908 137.102C319.55 136.632 321.266 136.347 322.677 136.347H335.173C339.17 136.347 342.826 135.091 345.492 133.048C346.937 131.942 348.099 130.597 348.859 129.092V137.331C348.859 140.126 347.363 142.707 344.884 144.606C342.405 146.505 338.967 147.699 335.173 147.699H322.677C321.149 147.699 319.337 148.005 317.633 148.492C315.933 148.979 314.3 149.658 313.14 150.428C313.14 150.428 313.139 150.429 313.139 150.429L301.531 158.083C301.53 158.083 301.529 158.084 301.529 158.084C299.054 159.681 295.791 160.495 292.513 160.495C289.234 160.495 285.991 159.681 283.554 158.085C283.554 158.085 283.553 158.085 283.553 158.085L271.942 150.429C271.942 150.429 271.941 150.429 271.941 150.428C270.78 149.657 269.128 148.978 267.419 148.492C265.708 148.005 263.896 147.699 262.404 147.699H249.687C245.893 147.699 242.455 146.505 239.976 144.606C237.497 142.707 236.001 140.126 236.001 137.331V129.092C236.762 130.597 237.923 131.942 239.368 133.048C242.035 135.091 245.69 136.347 249.687 136.347H262.404C263.778 136.347 265.494 136.632 267.146 137.102C268.8 137.573 270.345 138.217 271.389 138.91Z" fill="url(#paint71_linear_111_589)" fill-opacity="0.2"/>
<path d="M271.389 138.91L271.39 138.911L283.004 146.569L283.005 146.569C285.64 148.295 289.085 149.143 292.513 149.143C295.941 149.143 299.403 148.295 302.073 146.571L302.077 146.569L313.691 138.911L313.692 138.91C314.737 138.216 316.265 137.572 317.908 137.102C319.55 136.632 321.266 136.347 322.677 136.347H335.173C339.17 136.347 342.826 135.091 345.492 133.048C346.937 131.942 348.099 130.597 348.859 129.092V137.331C348.859 140.126 347.363 142.707 344.884 144.606C342.405 146.505 338.967 147.699 335.173 147.699H322.677C321.149 147.699 319.337 148.005 317.633 148.492C315.933 148.979 314.3 149.658 313.14 150.428C313.14 150.428 313.139 150.429 313.139 150.429L301.531 158.083C301.53 158.083 301.529 158.084 301.529 158.084C299.054 159.681 295.791 160.495 292.513 160.495C289.234 160.495 285.991 159.681 283.554 158.085C283.554 158.085 283.553 158.085 283.553 158.085L271.942 150.429C271.942 150.429 271.941 150.429 271.941 150.428C270.78 149.657 269.128 148.978 267.419 148.492C265.708 148.005 263.896 147.699 262.404 147.699H249.687C245.893 147.699 242.455 146.505 239.976 144.606C237.497 142.707 236.001 140.126 236.001 137.331V129.092C236.762 130.597 237.923 131.942 239.368 133.048C242.035 135.091 245.69 136.347 249.687 136.347H262.404C263.778 136.347 265.494 136.632 267.146 137.102C268.8 137.573 270.345 138.217 271.389 138.91Z" stroke="#1A1A1A"/>
<path d="M271.389 138.91L271.39 138.911L283.004 146.569L283.005 146.569C285.64 148.295 289.085 149.143 292.513 149.143C295.941 149.143 299.403 148.295 302.073 146.571L302.077 146.569L313.691 138.911L313.692 138.91C314.737 138.216 316.265 137.572 317.908 137.102C319.55 136.632 321.266 136.347 322.677 136.347H335.173C339.17 136.347 342.826 135.091 345.492 133.048C346.937 131.942 348.099 130.597 348.859 129.092V137.331C348.859 140.126 347.363 142.707 344.884 144.606C342.405 146.505 338.967 147.699 335.173 147.699H322.677C321.149 147.699 319.337 148.005 317.633 148.492C315.933 148.979 314.3 149.658 313.14 150.428C313.14 150.428 313.139 150.429 313.139 150.429L301.531 158.083C301.53 158.083 301.529 158.084 301.529 158.084C299.054 159.681 295.791 160.495 292.513 160.495C289.234 160.495 285.991 159.681 283.554 158.085C283.554 158.085 283.553 158.085 283.553 158.085L271.942 150.429C271.942 150.429 271.941 150.429 271.941 150.428C270.78 149.657 269.128 148.978 267.419 148.492C265.708 148.005 263.896 147.699 262.404 147.699H249.687C245.893 147.699 242.455 146.505 239.976 144.606C237.497 142.707 236.001 140.126 236.001 137.331V129.092C236.762 130.597 237.923 131.942 239.368 133.048C242.035 135.091 245.69 136.347 249.687 136.347H262.404C263.778 136.347 265.494 136.632 267.146 137.102C268.8 137.573 270.345 138.217 271.389 138.91Z" stroke="url(#paint72_radial_111_589)"/>
<path d="M353.147 108.686L353.148 108.685L363.144 99.7886L363.144 99.7886L363.149 99.7847C364.159 98.8645 364.942 97.8068 365.497 96.6732V104.974C365.425 107.307 364.421 109.623 362.477 111.395L352.485 120.289C352.484 120.289 352.484 120.289 352.484 120.289C351.468 121.188 350.568 122.471 349.922 123.802C349.901 123.845 349.881 123.887 349.861 123.93V115.407C349.861 114.41 350.216 113.136 350.822 111.887C351.425 110.643 352.252 109.477 353.147 108.686Z" fill="#0D0D0D" stroke="#1A1A1A"/>
<path fill-rule="evenodd" clip-rule="evenodd" d="M365.999 92.6309C366.079 89.9528 364.997 87.2473 362.741 85.227L352.745 76.3304C350.834 74.6412 349.29 71.4879 349.29 69.2356V81.5873C349.29 83.8395 350.834 86.9928 352.745 88.682L362.741 97.5786C364.997 99.5989 366.079 102.304 365.999 104.982V92.6309Z" fill="#0D0D0D" fill-opacity="0.6"/>
<path fill-rule="evenodd" clip-rule="evenodd" d="M260.368 92.3951C260.324 91.2683 260.856 90.1299 261.964 89.2808C264.096 87.6479 267.624 87.6479 269.756 89.2808L283.648 99.9229L315.255 75.7106C317.386 74.0777 320.915 74.0777 323.046 75.7106C324.112 76.5271 324.645 77.611 324.645 78.6949V91.0465C324.645 89.9626 324.112 88.8787 323.046 88.0622C320.915 86.4293 317.386 86.4293 315.255 88.0622L283.648 112.275L269.756 101.632C267.624 99.9995 264.096 99.9995 261.964 101.632C260.856 102.481 260.324 103.62 260.368 104.747V92.3951Z" fill="url(#paint73_linear_111_589)"/>
<path fill-rule="evenodd" clip-rule="evenodd" d="M260.368 92.3951C260.324 91.2683 260.856 90.1299 261.964 89.2808C264.096 87.6479 267.624 87.6479 269.756 89.2808L283.648 99.9229L315.255 75.7106C317.386 74.0777 320.915 74.0777 323.046 75.7106C324.112 76.5271 324.645 77.611 324.645 78.6949V91.0465C324.645 89.9626 324.112 88.8787 323.046 88.0622C320.915 86.4293 317.386 86.4293 315.255 88.0622L283.648 112.275L269.756 101.632C267.624 99.9995 264.096 99.9995 261.964 101.632C260.856 102.481 260.324 103.62 260.368 104.747V92.3951Z" fill="url(#paint74_linear_111_589)" fill-opacity="0.2"/>
<path fill-rule="evenodd" clip-rule="evenodd" d="M324.643 78.6947C324.643 79.7786 324.11 80.8625 323.044 81.679L287.541 108.876C286.512 109.664 285.116 110.114 283.646 110.114C282.176 110.114 280.779 109.664 279.75 108.876L261.962 95.2491C260.939 94.4654 260.407 93.4351 260.366 92.3949V104.746C260.407 105.787 260.939 106.817 261.962 107.601L279.75 121.227C280.779 122.015 282.176 122.466 283.646 122.466C285.116 122.466 286.512 122.015 287.541 121.227L323.044 94.0306C324.11 93.2141 324.643 92.1302 324.643 91.0463V78.6947Z" fill="#6580E1" fill-opacity="0.6"/>
<path d="M271.935 46.6273L271.935 46.6272C270.776 47.3671 269.126 48.0311 267.418 48.5102C265.708 48.9898 263.897 49.2959 262.404 49.2959H249.688C245.894 49.2959 242.456 50.4894 239.977 52.3883C237.498 54.2874 236.002 56.8688 236.002 59.6633V69.292C236.002 70.492 235.585 71.9061 234.95 73.2187C234.314 74.5358 233.434 75.802 232.459 76.6985L232.456 76.7016L222.534 85.6529C222.534 85.6531 222.534 85.6534 222.533 85.6536C218.489 89.3403 218.489 95.3032 222.533 98.9899C222.534 98.9902 222.534 98.9904 222.534 98.9907L232.456 107.942L232.459 107.945C233.434 108.841 234.314 110.108 234.95 111.425C235.585 112.737 236.002 114.151 236.002 115.352V124.98C236.002 127.775 237.498 130.356 239.977 132.255C242.456 134.154 245.894 135.348 249.688 135.348H262.404C263.897 135.348 265.709 135.654 267.42 136.141C269.129 136.627 270.78 137.306 271.942 138.077C271.942 138.077 271.942 138.078 271.943 138.078L283.554 145.734L271.935 46.6273ZM271.935 46.6273L271.944 46.6215M271.935 46.6273L271.944 46.6215M271.944 46.6215L283.477 38.9117C283.479 38.911 283.48 38.9102 283.481 38.9095M271.944 46.6215L283.481 38.9095M352.41 76.705C351.395 75.8077 350.495 74.5396 349.848 73.2134C349.203 71.8908 348.786 70.4627 348.786 69.2356V59.6633C348.786 56.8688 347.29 54.2874 344.811 52.3883C342.332 50.4894 338.895 49.2959 335.1 49.2959H322.604C321.112 49.2959 319.3 48.9897 317.589 48.5026C315.881 48.0164 314.229 47.3375 313.068 46.5669L352.41 76.705ZM352.41 76.705L362.405 85.5994C362.405 85.5997 362.405 85.5999 362.405 85.6001C366.52 89.2869 366.52 95.3593 362.476 99.0454C362.476 99.0459 362.475 99.0464 362.474 99.0469L352.484 107.939C351.468 108.837 350.567 110.12 349.921 111.452C349.277 112.78 348.86 114.208 348.86 115.408V124.98C348.86 127.775 347.364 130.356 344.885 132.255C342.406 134.154 338.968 135.348 335.174 135.348H322.678C321.149 135.348 319.338 135.654 317.634 136.141C315.934 136.628 314.301 137.307 313.141 138.077L352.41 76.705ZM283.481 38.9095C285.956 37.3127 289.217 36.5 292.495 36.5C295.774 36.5 299.017 37.3133 301.454 38.909L283.481 38.9095ZM287.847 109.273L287.543 108.876L287.847 109.273L323.349 82.0766C324.524 81.1766 325.144 79.9523 325.144 78.6953C325.144 77.4383 324.524 76.214 323.349 75.3141C322.181 74.4191 320.654 73.9863 319.15 73.9863C317.646 73.9863 316.118 74.4191 314.95 75.3141C314.95 75.3141 314.95 75.3141 314.95 75.3141L297.235 88.8843C289.218 95.0263 278.077 95.0262 270.059 88.8842L269.755 89.2812L270.059 88.8842C268.891 87.9892 267.363 87.5565 265.859 87.5565C264.355 87.5565 262.828 87.9892 261.659 88.8842C260.485 89.7841 259.865 91.0085 259.865 92.2655C259.865 93.5225 260.485 94.7468 261.659 95.6467L279.447 109.273C280.573 110.136 282.08 110.615 283.647 110.615C285.214 110.615 286.721 110.136 287.847 109.273ZM301.455 38.9099L313.066 46.5661L301.455 38.9099ZM313.14 138.078L301.532 145.732C301.531 145.732 301.53 145.733 301.53 145.733C299.054 147.33 295.792 148.144 292.514 148.144C289.235 148.144 285.992 147.33 283.555 145.734L313.14 138.078Z" fill="#0D0D0D"/>
<path d="M271.935 46.6273L271.935 46.6272C270.776 47.3671 269.126 48.0311 267.418 48.5102C265.708 48.9898 263.897 49.2959 262.404 49.2959H249.688C245.894 49.2959 242.456 50.4894 239.977 52.3883C237.498 54.2874 236.002 56.8688 236.002 59.6633V69.292C236.002 70.492 235.585 71.9061 234.95 73.2187C234.314 74.5358 233.434 75.802 232.459 76.6985L232.456 76.7016L222.534 85.6529C222.534 85.6531 222.534 85.6534 222.533 85.6536C218.489 89.3403 218.489 95.3032 222.533 98.9899C222.534 98.9902 222.534 98.9904 222.534 98.9907L232.456 107.942L232.459 107.945C233.434 108.841 234.314 110.108 234.95 111.425C235.585 112.737 236.002 114.151 236.002 115.352V124.98C236.002 127.775 237.498 130.356 239.977 132.255C242.456 134.154 245.894 135.348 249.688 135.348H262.404C263.897 135.348 265.709 135.654 267.42 136.141C269.129 136.627 270.78 137.306 271.942 138.077C271.942 138.077 271.942 138.078 271.943 138.078L283.554 145.734L271.935 46.6273ZM271.935 46.6273L271.944 46.6215M271.935 46.6273L271.944 46.6215M271.944 46.6215L283.477 38.9117C283.479 38.911 283.48 38.9102 283.481 38.9095M271.944 46.6215L283.481 38.9095M352.41 76.705C351.395 75.8077 350.495 74.5396 349.848 73.2134C349.203 71.8908 348.786 70.4627 348.786 69.2356V59.6633C348.786 56.8688 347.29 54.2874 344.811 52.3883C342.332 50.4894 338.895 49.2959 335.1 49.2959H322.604C321.112 49.2959 319.3 48.9897 317.589 48.5026C315.881 48.0164 314.229 47.3375 313.068 46.5669L352.41 76.705ZM352.41 76.705L362.405 85.5994C362.405 85.5997 362.405 85.5999 362.405 85.6001C366.52 89.2869 366.52 95.3593 362.476 99.0454C362.476 99.0459 362.475 99.0464 362.474 99.0469L352.484 107.939C351.468 108.837 350.567 110.12 349.921 111.452C349.277 112.78 348.86 114.208 348.86 115.408V124.98C348.86 127.775 347.364 130.356 344.885 132.255C342.406 134.154 338.968 135.348 335.174 135.348H322.678C321.149 135.348 319.338 135.654 317.634 136.141C315.934 136.628 314.301 137.307 313.141 138.077L352.41 76.705ZM283.481 38.9095C285.956 37.3127 289.217 36.5 292.495 36.5C295.774 36.5 299.017 37.3133 301.454 38.909L283.481 38.9095ZM287.847 109.273L287.543 108.876L287.847 109.273L323.349 82.0766C324.524 81.1766 325.144 79.9523 325.144 78.6953C325.144 77.4383 324.524 76.214 323.349 75.3141C322.181 74.4191 320.654 73.9863 319.15 73.9863C317.646 73.9863 316.118 74.4191 314.95 75.3141C314.95 75.3141 314.95 75.3141 314.95 75.3141L297.235 88.8843C289.218 95.0263 278.077 95.0262 270.059 88.8842L269.755 89.2812L270.059 88.8842C268.891 87.9892 267.363 87.5565 265.859 87.5565C264.355 87.5565 262.828 87.9892 261.659 88.8842C260.485 89.7841 259.865 91.0085 259.865 92.2655C259.865 93.5225 260.485 94.7468 261.659 95.6467L279.447 109.273C280.573 110.136 282.08 110.615 283.647 110.615C285.214 110.615 286.721 110.136 287.847 109.273ZM301.455 38.9099L313.066 46.5661L301.455 38.9099ZM313.14 138.078L301.532 145.732C301.531 145.732 301.53 145.733 301.53 145.733C299.054 147.33 295.792 148.144 292.514 148.144C289.235 148.144 285.992 147.33 283.555 145.734L313.14 138.078Z" fill="url(#paint75_linear_111_589)" fill-opacity="0.2"/>
<path d="M271.935 46.6273L271.935 46.6272C270.776 47.3671 269.126 48.0311 267.418 48.5102C265.708 48.9898 263.897 49.2959 262.404 49.2959H249.688C245.894 49.2959 242.456 50.4894 239.977 52.3883C237.498 54.2874 236.002 56.8688 236.002 59.6633V69.292C236.002 70.492 235.585 71.9061 234.95 73.2187C234.314 74.5358 233.434 75.802 232.459 76.6985L232.456 76.7016L222.534 85.6529C222.534 85.6531 222.534 85.6534 222.533 85.6536C218.489 89.3403 218.489 95.3032 222.533 98.9899C222.534 98.9902 222.534 98.9904 222.534 98.9907L232.456 107.942L232.459 107.945C233.434 108.841 234.314 110.108 234.95 111.425C235.585 112.737 236.002 114.151 236.002 115.352V124.98C236.002 127.775 237.498 130.356 239.977 132.255C242.456 134.154 245.894 135.348 249.688 135.348H262.404C263.897 135.348 265.709 135.654 267.42 136.141C269.129 136.627 270.78 137.306 271.942 138.077C271.942 138.077 271.942 138.078 271.943 138.078L283.554 145.734L271.935 46.6273ZM271.935 46.6273L271.944 46.6215M271.935 46.6273L271.944 46.6215M271.944 46.6215L283.477 38.9117C283.479 38.911 283.48 38.9102 283.481 38.9095M271.944 46.6215L283.481 38.9095M352.41 76.705C351.395 75.8077 350.495 74.5396 349.848 73.2134C349.203 71.8908 348.786 70.4627 348.786 69.2356V59.6633C348.786 56.8688 347.29 54.2874 344.811 52.3883C342.332 50.4894 338.895 49.2959 335.1 49.2959H322.604C321.112 49.2959 319.3 48.9897 317.589 48.5026C315.881 48.0164 314.229 47.3375 313.068 46.5669L352.41 76.705ZM352.41 76.705L362.405 85.5994C362.405 85.5997 362.405 85.5999 362.405 85.6001C366.52 89.2869 366.52 95.3593 362.476 99.0454C362.476 99.0459 362.475 99.0464 362.474 99.0469L352.484 107.939C351.468 108.837 350.567 110.12 349.921 111.452C349.277 112.78 348.86 114.208 348.86 115.408V124.98C348.86 127.775 347.364 130.356 344.885 132.255C342.406 134.154 338.968 135.348 335.174 135.348H322.678C321.149 135.348 319.338 135.654 317.634 136.141C315.934 136.628 314.301 137.307 313.141 138.077L352.41 76.705ZM283.481 38.9095C285.956 37.3127 289.217 36.5 292.495 36.5C295.774 36.5 299.017 37.3133 301.454 38.909L283.481 38.9095ZM287.847 109.273L287.543 108.876L287.847 109.273L323.349 82.0766C324.524 81.1766 325.144 79.9523 325.144 78.6953C325.144 77.4383 324.524 76.214 323.349 75.3141C322.181 74.4191 320.654 73.9863 319.15 73.9863C317.646 73.9863 316.118 74.4191 314.95 75.3141C314.95 75.3141 314.95 75.3141 314.95 75.3141L297.235 88.8843C289.218 95.0263 278.077 95.0262 270.059 88.8842L269.755 89.2812L270.059 88.8842C268.891 87.9892 267.363 87.5565 265.859 87.5565C264.355 87.5565 262.828 87.9892 261.659 88.8842C260.485 89.7841 259.865 91.0085 259.865 92.2655C259.865 93.5225 260.485 94.7468 261.659 95.6467L279.447 109.273C280.573 110.136 282.08 110.615 283.647 110.615C285.214 110.615 286.721 110.136 287.847 109.273ZM301.455 38.9099L313.066 46.5661L301.455 38.9099ZM313.14 138.078L301.532 145.732C301.531 145.732 301.53 145.733 301.53 145.733C299.054 147.33 295.792 148.144 292.514 148.144C289.235 148.144 285.992 147.33 283.555 145.734L313.14 138.078Z" stroke="url(#paint76_linear_111_589)"/>
<path d="M271.935 46.6273L271.935 46.6272C270.776 47.3671 269.126 48.0311 267.418 48.5102C265.708 48.9898 263.897 49.2959 262.404 49.2959H249.688C245.894 49.2959 242.456 50.4894 239.977 52.3883C237.498 54.2874 236.002 56.8688 236.002 59.6633V69.292C236.002 70.492 235.585 71.9061 234.95 73.2187C234.314 74.5358 233.434 75.802 232.459 76.6985L232.456 76.7016L222.534 85.6529C222.534 85.6531 222.534 85.6534 222.533 85.6536C218.489 89.3403 218.489 95.3032 222.533 98.9899C222.534 98.9902 222.534 98.9904 222.534 98.9907L232.456 107.942L232.459 107.945C233.434 108.841 234.314 110.108 234.95 111.425C235.585 112.737 236.002 114.151 236.002 115.352V124.98C236.002 127.775 237.498 130.356 239.977 132.255C242.456 134.154 245.894 135.348 249.688 135.348H262.404C263.897 135.348 265.709 135.654 267.42 136.141C269.129 136.627 270.78 137.306 271.942 138.077C271.942 138.077 271.942 138.078 271.943 138.078L283.554 145.734L271.935 46.6273ZM271.935 46.6273L271.944 46.6215M271.935 46.6273L271.944 46.6215M271.944 46.6215L283.477 38.9117C283.479 38.911 283.48 38.9102 283.481 38.9095M271.944 46.6215L283.481 38.9095M352.41 76.705C351.395 75.8077 350.495 74.5396 349.848 73.2134C349.203 71.8908 348.786 70.4627 348.786 69.2356V59.6633C348.786 56.8688 347.29 54.2874 344.811 52.3883C342.332 50.4894 338.895 49.2959 335.1 49.2959H322.604C321.112 49.2959 319.3 48.9897 317.589 48.5026C315.881 48.0164 314.229 47.3375 313.068 46.5669L352.41 76.705ZM352.41 76.705L362.405 85.5994C362.405 85.5997 362.405 85.5999 362.405 85.6001C366.52 89.2869 366.52 95.3593 362.476 99.0454C362.476 99.0459 362.475 99.0464 362.474 99.0469L352.484 107.939C351.468 108.837 350.567 110.12 349.921 111.452C349.277 112.78 348.86 114.208 348.86 115.408V124.98C348.86 127.775 347.364 130.356 344.885 132.255C342.406 134.154 338.968 135.348 335.174 135.348H322.678C321.149 135.348 319.338 135.654 317.634 136.141C315.934 136.628 314.301 137.307 313.141 138.077L352.41 76.705ZM283.481 38.9095C285.956 37.3127 289.217 36.5 292.495 36.5C295.774 36.5 299.017 37.3133 301.454 38.909L283.481 38.9095ZM287.847 109.273L287.543 108.876L287.847 109.273L323.349 82.0766C324.524 81.1766 325.144 79.9523 325.144 78.6953C325.144 77.4383 324.524 76.214 323.349 75.3141C322.181 74.4191 320.654 73.9863 319.15 73.9863C317.646 73.9863 316.118 74.4191 314.95 75.3141C314.95 75.3141 314.95 75.3141 314.95 75.3141L297.235 88.8843C289.218 95.0263 278.077 95.0262 270.059 88.8842L269.755 89.2812L270.059 88.8842C268.891 87.9892 267.363 87.5565 265.859 87.5565C264.355 87.5565 262.828 87.9892 261.659 88.8842C260.485 89.7841 259.865 91.0085 259.865 92.2655C259.865 93.5225 260.485 94.7468 261.659 95.6467L279.447 109.273C280.573 110.136 282.08 110.615 283.647 110.615C285.214 110.615 286.721 110.136 287.847 109.273ZM301.455 38.9099L313.066 46.5661L301.455 38.9099ZM313.14 138.078L301.532 145.732C301.531 145.732 301.53 145.733 301.53 145.733C299.054 147.33 295.792 148.144 292.514 148.144C289.235 148.144 285.992 147.33 283.555 145.734L313.14 138.078Z" stroke="url(#paint77_radial_111_589)"/>
<g filter="url(#filter2_f_111_589)">
<circle cx="31.7015" cy="31.7015" r="31.7015" transform="matrix(-0.924926 0.380147 0.380147 0.924926 236.645 54)" fill="#2EEA90" fill-opacity="0.3"/>
</g>
<g opacity="0.15" filter="url(#filter3_f_111_589)">
<circle cx="256" cy="87" r="58" fill="#15D176"/>
</g>
<g opacity="0.15" filter="url(#filter4_f_111_589)">
<circle cx="50.5" cy="121.5" r="39.5" fill="#15D176"/>
</g>
<path d="M127.5 65L259 -23" stroke="url(#paint78_linear_111_589)"/>
<g opacity="0.15">
<line x1="35.2892" y1="125.506" x2="28.4298" y2="120.238" stroke="#D1DBE0"/>
<line x1="28.6534" y1="125.172" x2="35.4503" y2="120.431" stroke="#D1DBE0"/>
</g>
<g opacity="0.15">
<line x1="131.289" y1="67.5055" x2="124.43" y2="62.2379" stroke="#D1DBE0"/>
<line x1="124.739" y1="66.5743" x2="131.477" y2="62.4161" stroke="#D1DBE0"/>
</g>
<g opacity="0.15">
<line x1="81.2892" y1="159.506" x2="74.4298" y2="154.238" stroke="#D1DBE0"/>
<line x1="74.6534" y1="159.172" x2="81.4503" y2="154.431" stroke="#D1DBE0"/>
</g>
<defs>
<filter id="filter0_f_111_589" x="37.2722" y="58.2722" width="131.641" height="102.455" filterUnits="userSpaceOnUse" color-interpolation-filters="sRGB">
<feFlood flood-opacity="0" result="BackgroundImageFix"/>
<feBlend mode="normal" in="SourceGraphic" in2="BackgroundImageFix" result="shape"/>
<feGaussianBlur stdDeviation="8.36388" result="effect1_foregroundBlur_111_589"/>
</filter>
<filter id="filter1_f_111_589" x="207" y="24" width="171.003" height="148.995" filterUnits="userSpaceOnUse" color-interpolation-filters="sRGB">
<feFlood flood-opacity="0" result="BackgroundImageFix"/>
<feBlend mode="normal" in="SourceGraphic" in2="BackgroundImageFix" result="shape"/>
<feGaussianBlur stdDeviation="6" result="effect1_foregroundBlur_111_589"/>
</filter>
<filter id="filter2_f_111_589" x="43.5668" y="-80.4348" width="351.615" height="351.615" filterUnits="userSpaceOnUse" color-interpolation-filters="sRGB">
<feFlood flood-opacity="0" result="BackgroundImageFix"/>
<feBlend mode="normal" in="SourceGraphic" in2="BackgroundImageFix" result="shape"/>
<feGaussianBlur stdDeviation="72.0489" result="effect1_foregroundBlur_111_589"/>
</filter>
<filter id="filter3_f_111_589" x="48" y="-121" width="416" height="416" filterUnits="userSpaceOnUse" color-interpolation-filters="sRGB">
<feFlood flood-opacity="0" result="BackgroundImageFix"/>
<feBlend mode="normal" in="SourceGraphic" in2="BackgroundImageFix" result="shape"/>
<feGaussianBlur stdDeviation="75" result="effect1_foregroundBlur_111_589"/>
</filter>
<filter id="filter4_f_111_589" x="-89" y="-18" width="279" height="279" filterUnits="userSpaceOnUse" color-interpolation-filters="sRGB">
<feFlood flood-opacity="0" result="BackgroundImageFix"/>
<feBlend mode="normal" in="SourceGraphic" in2="BackgroundImageFix" result="shape"/>
<feGaussianBlur stdDeviation="50" result="effect1_foregroundBlur_111_589"/>
</filter>
<linearGradient id="paint0_linear_111_589" x1="67.6058" y1="119.335" x2="62.3984" y2="119.335" gradientUnits="userSpaceOnUse">
<stop stop-color="#15D176" stop-opacity="0"/>
<stop offset="1" stop-color="#15D176"/>
</linearGradient>
<linearGradient id="paint1_linear_111_589" x1="71.174" y1="111.465" x2="66.2456" y2="119.619" gradientUnits="userSpaceOnUse">
<stop stop-color="#1A1A1A"/>
<stop offset="1" stop-color="#1A1A1A" stop-opacity="0"/>
</linearGradient>
<radialGradient id="paint2_radial_111_589" cx="0" cy="0" r="1" gradientUnits="userSpaceOnUse" gradientTransform="translate(117.196 100.027) rotate(160.59) scale(58.0995 681.434)">
<stop offset="0.716666" stop-color="#15D176" stop-opacity="0"/>
<stop offset="0.926666" stop-color="#15D176"/>
<stop offset="1" stop-color="#B9F8DA"/>
</radialGradient>
<linearGradient id="paint3_linear_111_589" x1="77.9135" y1="125.746" x2="73.0801" y2="125.746" gradientUnits="userSpaceOnUse">
<stop stop-color="#15D176" stop-opacity="0"/>
<stop offset="1" stop-color="#15D176"/>
</linearGradient>
<linearGradient id="paint4_linear_111_589" x1="81.2255" y1="118.075" x2="76.3166" y2="125.81" gradientUnits="userSpaceOnUse">
<stop stop-color="#1A1A1A"/>
<stop offset="1" stop-color="#1A1A1A" stop-opacity="0"/>
</linearGradient>
<radialGradient id="paint5_radial_111_589" cx="0" cy="0" r="1" gradientUnits="userSpaceOnUse" gradientTransform="translate(90.2916 114.418) rotate(152.592) scale(19.0298 234.363)">
<stop offset="0.716666" stop-color="#15D176" stop-opacity="0"/>
<stop offset="0.926666" stop-color="#15D176"/>
<stop offset="1" stop-color="#B9F8DA"/>
</radialGradient>
<linearGradient id="paint6_linear_111_589" x1="72.3585" y1="130.462" x2="54" y2="130.462" gradientUnits="userSpaceOnUse">
<stop stop-color="#15D176" stop-opacity="0"/>
<stop offset="1" stop-color="#15D176"/>
</linearGradient>
<radialGradient id="paint7_radial_111_589" cx="0" cy="0" r="1" gradientUnits="userSpaceOnUse" gradientTransform="translate(93.2204 130.462) rotate(180) scale(39.2204 182.605)">
<stop offset="0.716666" stop-color="#15D176" stop-opacity="0"/>
<stop offset="0.926666" stop-color="#15D176"/>
<stop offset="1" stop-color="#B9F8DA"/>
</radialGradient>
<linearGradient id="paint8_linear_111_589" x1="102.179" y1="111.291" x2="89.6651" y2="109.414" gradientUnits="userSpaceOnUse">
<stop stop-color="#15D176" stop-opacity="0"/>
<stop offset="1" stop-color="#15D176"/>
</linearGradient>
<linearGradient id="paint9_linear_111_589" x1="101.212" y1="108.294" x2="91.8159" y2="108.294" gradientUnits="userSpaceOnUse">
<stop stop-color="#15D176" stop-opacity="0"/>
<stop offset="1" stop-color="#15D176"/>
</linearGradient>
<linearGradient id="paint10_linear_111_589" x1="90.9133" y1="116.681" x2="73.4272" y2="116.681" gradientUnits="userSpaceOnUse">
<stop stop-color="#15D176" stop-opacity="0"/>
<stop offset="1" stop-color="#15D176"/>
</linearGradient>
<linearGradient id="paint11_linear_111_589" x1="120.951" y1="115.671" x2="73.3979" y2="117.548" gradientUnits="userSpaceOnUse">
<stop stop-color="#1A1A1A" stop-opacity="0.5"/>
<stop offset="1" stop-color="#1A1A1A"/>
</linearGradient>
<linearGradient id="paint12_linear_111_589" x1="87.3695" y1="112.904" x2="73.4272" y2="112.904" gradientUnits="userSpaceOnUse">
<stop stop-color="#15D176" stop-opacity="0"/>
<stop offset="1" stop-color="#15D176"/>
</linearGradient>
<linearGradient id="paint13_linear_111_589" x1="132.213" y1="96.2729" x2="120.324" y2="92.5187" gradientUnits="userSpaceOnUse">
<stop stop-color="#15D176" stop-opacity="0"/>
<stop offset="1" stop-color="#15D176"/>
</linearGradient>
<linearGradient id="paint14_linear_111_589" x1="133.924" y1="90.662" x2="120.996" y2="90.773" gradientUnits="userSpaceOnUse">
<stop stop-color="#1A1A1A" stop-opacity="0.5"/>
<stop offset="1" stop-color="#1A1A1A"/>
</linearGradient>
<linearGradient id="paint15_linear_111_589" x1="134.581" y1="88.5378" x2="121.023" y2="88.5378" gradientUnits="userSpaceOnUse">
<stop stop-color="#15D176" stop-opacity="0"/>
<stop offset="1" stop-color="#15D176"/>
</linearGradient>
<linearGradient id="paint16_linear_111_589" x1="139.548" y1="93.3477" x2="129.892" y2="93.3477" gradientUnits="userSpaceOnUse">
<stop stop-color="#15D176" stop-opacity="0"/>
<stop offset="1" stop-color="#15D176"/>
</linearGradient>
<linearGradient id="paint17_linear_111_589" x1="156.135" y1="92.3117" x2="129.846" y2="92.8703" gradientUnits="userSpaceOnUse">
<stop stop-color="#1A1A1A" stop-opacity="0.5"/>
<stop offset="1" stop-color="#1A1A1A"/>
</linearGradient>
<linearGradient id="paint18_linear_111_589" x1="134.416" y1="95.4718" x2="128.459" y2="97.5247" gradientUnits="userSpaceOnUse">
<stop stop-color="#15D176" stop-opacity="0"/>
<stop offset="1" stop-color="#15D176"/>
</linearGradient>
<linearGradient id="paint19_linear_111_589" x1="124.619" y1="101.379" x2="112.4" y2="101.379" gradientUnits="userSpaceOnUse">
<stop stop-color="#15D176" stop-opacity="0"/>
<stop offset="1" stop-color="#15D176"/>
</linearGradient>
<linearGradient id="paint20_linear_111_589" x1="145.609" y1="100.529" x2="112.364" y2="101.618" gradientUnits="userSpaceOnUse">
<stop stop-color="#1A1A1A" stop-opacity="0.5"/>
<stop offset="1" stop-color="#1A1A1A"/>
</linearGradient>
<linearGradient id="paint21_linear_111_589" x1="113.185" y1="103.811" x2="100.159" y2="103.811" gradientUnits="userSpaceOnUse">
<stop stop-color="#15D176" stop-opacity="0"/>
<stop offset="1" stop-color="#15D176"/>
</linearGradient>
<linearGradient id="paint22_linear_111_589" x1="135.562" y1="102.565" x2="100.102" y2="103.411" gradientUnits="userSpaceOnUse">
<stop stop-color="#1A1A1A" stop-opacity="0.5"/>
<stop offset="1" stop-color="#1A1A1A"/>
</linearGradient>
<linearGradient id="paint23_linear_111_589" x1="97.0479" y1="103.243" x2="54.0005" y2="103.243" gradientUnits="userSpaceOnUse">
<stop stop-color="#15D176" stop-opacity="0"/>
<stop offset="1" stop-color="#15D176"/>
</linearGradient>
<linearGradient id="paint24_linear_111_589" x1="126.545" y1="80.2652" x2="119.909" y2="111.351" gradientUnits="userSpaceOnUse">
<stop stop-color="#1A1A1A"/>
<stop offset="1" stop-color="#1A1A1A" stop-opacity="0"/>
</linearGradient>
<radialGradient id="paint25_radial_111_589" cx="0" cy="0" r="1" gradientUnits="userSpaceOnUse" gradientTransform="translate(139.721 86.2625) rotate(150.345) scale(98.64 408.6)">
<stop offset="0.413604" stop-color="#15D176" stop-opacity="0"/>
<stop offset="0.926666" stop-color="#15D176"/>
<stop offset="1" stop-color="#B9F8DA"/>
</radialGradient>
<linearGradient id="paint26_linear_111_589" x1="67.6063" y1="119.335" x2="62.3989" y2="119.335" gradientUnits="userSpaceOnUse">
<stop stop-color="#15D176" stop-opacity="0"/>
<stop offset="1" stop-color="#15D176"/>
</linearGradient>
<linearGradient id="paint27_linear_111_589" x1="71.1745" y1="111.465" x2="66.2461" y2="119.619" gradientUnits="userSpaceOnUse">
<stop stop-color="#1A1A1A"/>
<stop offset="1" stop-color="#1A1A1A" stop-opacity="0"/>
</linearGradient>
<radialGradient id="paint28_radial_111_589" cx="0" cy="0" r="1" gradientUnits="userSpaceOnUse" gradientTransform="translate(117.196 100.027) rotate(160.59) scale(58.0995 681.434)">
<stop offset="0.716666" stop-color="#15D176" stop-opacity="0"/>
<stop offset="0.926666" stop-color="#15D176"/>
<stop offset="1" stop-color="#B9F8DA"/>
</radialGradient>
<linearGradient id="paint29_linear_111_589" x1="77.914" y1="125.746" x2="73.0806" y2="125.746" gradientUnits="userSpaceOnUse">
<stop stop-color="#15D176" stop-opacity="0"/>
<stop offset="1" stop-color="#15D176"/>
</linearGradient>
<linearGradient id="paint30_linear_111_589" x1="81.226" y1="118.075" x2="76.317" y2="125.81" gradientUnits="userSpaceOnUse">
<stop stop-color="#1A1A1A"/>
<stop offset="1" stop-color="#1A1A1A" stop-opacity="0"/>
</linearGradient>
<radialGradient id="paint31_radial_111_589" cx="0" cy="0" r="1" gradientUnits="userSpaceOnUse" gradientTransform="translate(90.2921 114.418) rotate(152.592) scale(19.0298 234.363)">
<stop offset="0.716666" stop-color="#15D176" stop-opacity="0"/>
<stop offset="0.926666" stop-color="#15D176"/>
<stop offset="1" stop-color="#B9F8DA"/>
</radialGradient>
<linearGradient id="paint32_linear_111_589" x1="72.359" y1="130.462" x2="54.0005" y2="130.462" gradientUnits="userSpaceOnUse">
<stop stop-color="#15D176" stop-opacity="0"/>
<stop offset="1" stop-color="#15D176"/>
</linearGradient>
<radialGradient id="paint33_radial_111_589" cx="0" cy="0" r="1" gradientUnits="userSpaceOnUse" gradientTransform="translate(93.2209 130.462) rotate(180) scale(39.2204 182.605)">
<stop offset="0.716666" stop-color="#15D176" stop-opacity="0"/>
<stop offset="0.926666" stop-color="#15D176"/>
<stop offset="1" stop-color="#B9F8DA"/>
</radialGradient>
<linearGradient id="paint34_linear_111_589" x1="102.179" y1="111.291" x2="89.6656" y2="109.414" gradientUnits="userSpaceOnUse">
<stop stop-color="#15D176" stop-opacity="0"/>
<stop offset="1" stop-color="#15D176"/>
</linearGradient>
<linearGradient id="paint35_linear_111_589" x1="101.212" y1="108.294" x2="91.8164" y2="108.294" gradientUnits="userSpaceOnUse">
<stop stop-color="#15D176" stop-opacity="0"/>
<stop offset="1" stop-color="#15D176"/>
</linearGradient>
<linearGradient id="paint36_linear_111_589" x1="90.9138" y1="116.681" x2="73.4277" y2="116.681" gradientUnits="userSpaceOnUse">
<stop stop-color="#15D176" stop-opacity="0"/>
<stop offset="1" stop-color="#15D176"/>
</linearGradient>
<linearGradient id="paint37_linear_111_589" x1="120.951" y1="115.671" x2="73.3984" y2="117.548" gradientUnits="userSpaceOnUse">
<stop stop-color="#1A1A1A" stop-opacity="0.5"/>
<stop offset="1" stop-color="#1A1A1A"/>
</linearGradient>
<linearGradient id="paint38_linear_111_589" x1="87.37" y1="112.904" x2="73.4277" y2="112.904" gradientUnits="userSpaceOnUse">
<stop stop-color="#15D176" stop-opacity="0"/>
<stop offset="1" stop-color="#15D176"/>
</linearGradient>
<linearGradient id="paint39_linear_111_589" x1="132.213" y1="96.2729" x2="120.325" y2="92.5187" gradientUnits="userSpaceOnUse">
<stop stop-color="#15D176" stop-opacity="0"/>
<stop offset="1" stop-color="#15D176"/>
</linearGradient>
<linearGradient id="paint40_linear_111_589" x1="133.925" y1="90.662" x2="120.997" y2="90.773" gradientUnits="userSpaceOnUse">
<stop stop-color="#1A1A1A" stop-opacity="0.5"/>
<stop offset="1" stop-color="#1A1A1A"/>
</linearGradient>
<linearGradient id="paint41_linear_111_589" x1="134.581" y1="88.5378" x2="121.024" y2="88.5378" gradientUnits="userSpaceOnUse">
<stop stop-color="#15D176" stop-opacity="0"/>
<stop offset="1" stop-color="#15D176"/>
</linearGradient>
<linearGradient id="paint42_linear_111_589" x1="139.548" y1="93.3477" x2="129.892" y2="93.3477" gradientUnits="userSpaceOnUse">
<stop stop-color="#15D176" stop-opacity="0"/>
<stop offset="1" stop-color="#15D176"/>
</linearGradient>
<linearGradient id="paint43_linear_111_589" x1="156.135" y1="92.3117" x2="129.847" y2="92.8703" gradientUnits="userSpaceOnUse">
<stop stop-color="#1A1A1A" stop-opacity="0.5"/>
<stop offset="1" stop-color="#1A1A1A"/>
</linearGradient>
<linearGradient id="paint44_linear_111_589" x1="134.417" y1="95.4718" x2="128.46" y2="97.5247" gradientUnits="userSpaceOnUse">
<stop stop-color="#15D176" stop-opacity="0"/>
<stop offset="1" stop-color="#15D176"/>
</linearGradient>
<linearGradient id="paint45_linear_111_589" x1="124.62" y1="101.379" x2="112.401" y2="101.379" gradientUnits="userSpaceOnUse">
<stop stop-color="#15D176" stop-opacity="0"/>
<stop offset="1" stop-color="#15D176"/>
</linearGradient>
<linearGradient id="paint46_linear_111_589" x1="145.61" y1="100.529" x2="112.364" y2="101.618" gradientUnits="userSpaceOnUse">
<stop stop-color="#1A1A1A" stop-opacity="0.5"/>
<stop offset="1" stop-color="#1A1A1A"/>
</linearGradient>
<linearGradient id="paint47_linear_111_589" x1="113.186" y1="103.811" x2="100.159" y2="103.811" gradientUnits="userSpaceOnUse">
<stop stop-color="#15D176" stop-opacity="0"/>
<stop offset="1" stop-color="#15D176"/>
</linearGradient>
<linearGradient id="paint48_linear_111_589" x1="135.563" y1="102.565" x2="100.102" y2="103.411" gradientUnits="userSpaceOnUse">
<stop stop-color="#1A1A1A" stop-opacity="0.5"/>
<stop offset="1" stop-color="#1A1A1A"/>
</linearGradient>
<linearGradient id="paint49_linear_111_589" x1="97.0484" y1="103.243" x2="54.001" y2="103.243" gradientUnits="userSpaceOnUse">
<stop stop-color="#15D176" stop-opacity="0"/>
<stop offset="1" stop-color="#15D176"/>
</linearGradient>
<linearGradient id="paint50_linear_111_589" x1="126.545" y1="80.2652" x2="119.909" y2="111.351" gradientUnits="userSpaceOnUse">
<stop stop-color="#1A1A1A"/>
<stop offset="1" stop-color="#1A1A1A" stop-opacity="0"/>
</linearGradient>
<radialGradient id="paint51_radial_111_589" cx="0" cy="0" r="1" gradientUnits="userSpaceOnUse" gradientTransform="translate(214.805 54.352) rotate(153.346) scale(179.924 745.308)">
<stop offset="0.413604" stop-color="#15D176" stop-opacity="0"/>
<stop offset="0.926666" stop-color="#15D176"/>
<stop offset="1" stop-color="#B9F8DA"/>
</radialGradient>
<linearGradient id="paint52_linear_111_589" x1="174" y1="8.43578e-06" x2="24.9192" y2="35.2876" gradientUnits="userSpaceOnUse">
<stop stop-color="#1A1A1A"/>
<stop offset="1" stop-color="#1A1A1A" stop-opacity="0"/>
</linearGradient>
<linearGradient id="paint53_linear_111_589" x1="5.5" y1="100" x2="59.2066" y2="195.453" gradientUnits="userSpaceOnUse">
<stop stop-color="#1A1A1A" stop-opacity="0"/>
<stop offset="0.467398" stop-color="#1A1A1A"/>
<stop offset="1" stop-color="#1A1A1A" stop-opacity="0"/>
</linearGradient>
<linearGradient id="paint54_linear_111_589" x1="174" y1="99.0001" x2="30.1674" y2="147.094" gradientUnits="userSpaceOnUse">
<stop stop-color="#1A1A1A"/>
<stop offset="1" stop-color="#1A1A1A" stop-opacity="0"/>
</linearGradient>
<linearGradient id="paint55_linear_111_589" x1="289" y1="185" x2="260.317" y2="191.822" gradientUnits="userSpaceOnUse">
<stop stop-color="#1A1A1A"/>
<stop offset="1" stop-color="#1A1A1A" stop-opacity="0"/>
</linearGradient>
<linearGradient id="paint56_linear_111_589" x1="438" y1="81.5" x2="407.067" y2="89.1018" gradientUnits="userSpaceOnUse">
<stop stop-color="#1A1A1A" stop-opacity="0"/>
<stop offset="1" stop-color="#1A1A1A"/>
</linearGradient>
<linearGradient id="paint57_linear_111_589" x1="314" y1="-0.500006" x2="291.485" y2="5.79549" gradientUnits="userSpaceOnUse">
<stop stop-color="#1A1A1A" stop-opacity="0"/>
<stop offset="1" stop-color="#1A1A1A"/>
</linearGradient>
<linearGradient id="paint58_linear_111_589" x1="127.5" y1="66.0001" x2="-13.7473" y2="116.123" gradientUnits="userSpaceOnUse">
<stop stop-color="#1A1A1A"/>
<stop offset="1" stop-color="#1A1A1A" stop-opacity="0"/>
</linearGradient>
<linearGradient id="paint59_linear_111_589" x1="293.5" y1="13" x2="285.12" y2="-3.18623" gradientUnits="userSpaceOnUse">
<stop stop-color="#1A1A1A"/>
<stop offset="1" stop-color="#1A1A1A" stop-opacity="0"/>
</linearGradient>
<linearGradient id="paint60_linear_111_589" x1="290" y1="185.5" x2="300.525" y2="203.63" gradientUnits="userSpaceOnUse">
<stop stop-color="#1A1A1A"/>
<stop offset="1" stop-color="#1A1A1A" stop-opacity="0"/>
</linearGradient>
<linearGradient id="paint61_linear_111_589" x1="431" y1="115" x2="418.515" y2="94.5076" gradientUnits="userSpaceOnUse">
<stop stop-color="#1A1A1A" stop-opacity="0"/>
<stop offset="1" stop-color="#1A1A1A"/>
</linearGradient>
<linearGradient id="paint62_linear_111_589" x1="226.261" y1="109.861" x2="219" y2="109.861" gradientUnits="userSpaceOnUse">
<stop stop-color="#15D176" stop-opacity="0"/>
<stop offset="1" stop-color="#15D176"/>
</linearGradient>
<radialGradient id="paint63_radial_111_589" cx="0" cy="0" r="1" gradientUnits="userSpaceOnUse" gradientTransform="translate(248 98.4999) rotate(158.607) scale(31.146 483.27)">
<stop offset="0.716666" stop-color="#15D176" stop-opacity="0"/>
<stop offset="0.926666" stop-color="#15D176"/>
<stop offset="1" stop-color="#B9F8DA"/>
</radialGradient>
<linearGradient id="paint64_linear_111_589" x1="285.599" y1="142.987" x2="235.501" y2="142.987" gradientUnits="userSpaceOnUse">
<stop stop-color="#15D176" stop-opacity="0"/>
<stop offset="1" stop-color="#15D176"/>
</linearGradient>
<radialGradient id="paint65_radial_111_589" cx="0" cy="0" r="1" gradientUnits="userSpaceOnUse" gradientTransform="translate(342.528 142.987) rotate(180) scale(107.027 242.896)">
<stop offset="0.716666" stop-color="#15D176" stop-opacity="0"/>
<stop offset="0.926666" stop-color="#15D176"/>
<stop offset="1" stop-color="#B9F8DA"/>
</radialGradient>
<linearGradient id="paint66_linear_111_589" x1="283.68" y1="92.3218" x2="219" y2="92.3218" gradientUnits="userSpaceOnUse">
<stop stop-color="#15D176" stop-opacity="0"/>
<stop offset="1" stop-color="#15D176"/>
</linearGradient>
<linearGradient id="paint67_linear_111_589" x1="328" y1="46.5" x2="311" y2="106.5" gradientUnits="userSpaceOnUse">
<stop stop-color="#1A1A1A"/>
<stop offset="1" stop-color="#1A1A1A" stop-opacity="0"/>
</linearGradient>
<radialGradient id="paint68_radial_111_589" cx="0" cy="0" r="1" gradientUnits="userSpaceOnUse" gradientTransform="translate(357.18 92.3218) rotate(180) scale(138.18 759.697)">
<stop offset="0.716666" stop-color="#15D176" stop-opacity="0"/>
<stop offset="0.926666" stop-color="#15D176"/>
<stop offset="1" stop-color="#B9F8DA"/>
</radialGradient>
<linearGradient id="paint69_linear_111_589" x1="226.261" y1="109.861" x2="219" y2="109.861" gradientUnits="userSpaceOnUse">
<stop stop-color="#15D176" stop-opacity="0"/>
<stop offset="1" stop-color="#15D176"/>
</linearGradient>
<radialGradient id="paint70_radial_111_589" cx="0" cy="0" r="1" gradientUnits="userSpaceOnUse" gradientTransform="translate(248 98.4999) rotate(158.607) scale(31.146 483.27)">
<stop offset="0.716666" stop-color="#15D176" stop-opacity="0"/>
<stop offset="0.926666" stop-color="#15D176"/>
<stop offset="1" stop-color="#B9F8DA"/>
</radialGradient>
<linearGradient id="paint71_linear_111_589" x1="285.599" y1="142.987" x2="235.501" y2="142.987" gradientUnits="userSpaceOnUse">
<stop stop-color="#15D176" stop-opacity="0"/>
<stop offset="1" stop-color="#15D176"/>
</linearGradient>
<radialGradient id="paint72_radial_111_589" cx="0" cy="0" r="1" gradientUnits="userSpaceOnUse" gradientTransform="translate(342.528 142.987) rotate(180) scale(107.027 242.896)">
<stop offset="0.716666" stop-color="#15D176" stop-opacity="0"/>
<stop offset="0.926666" stop-color="#15D176"/>
<stop offset="1" stop-color="#B9F8DA"/>
</radialGradient>
<linearGradient id="paint73_linear_111_589" x1="260.366" y1="93.3803" x2="324.645" y2="93.3803" gradientUnits="userSpaceOnUse">
<stop stop-color="#32A16D"/>
<stop offset="1" stop-color="#123B28"/>
</linearGradient>
<linearGradient id="paint74_linear_111_589" x1="318.503" y1="74.6795" x2="318.503" y2="112.094" gradientUnits="userSpaceOnUse">
<stop/>
<stop offset="1" stop-opacity="0"/>
</linearGradient>
<linearGradient id="paint75_linear_111_589" x1="283.68" y1="92.3218" x2="219" y2="92.3218" gradientUnits="userSpaceOnUse">
<stop stop-color="#15D176" stop-opacity="0"/>
<stop offset="1" stop-color="#15D176"/>
</linearGradient>
<linearGradient id="paint76_linear_111_589" x1="328" y1="46.5" x2="311" y2="106.5" gradientUnits="userSpaceOnUse">
<stop stop-color="#1A1A1A"/>
<stop offset="1" stop-color="#1A1A1A" stop-opacity="0"/>
</linearGradient>
<radialGradient id="paint77_radial_111_589" cx="0" cy="0" r="1" gradientUnits="userSpaceOnUse" gradientTransform="translate(357.18 92.3218) rotate(180) scale(138.18 759.697)">
<stop offset="0.716666" stop-color="#15D176" stop-opacity="0"/>
<stop offset="0.926666" stop-color="#15D176"/>
<stop offset="1" stop-color="#B9F8DA"/>
</radialGradient>
<linearGradient id="paint78_linear_111_589" x1="308.5" y1="-47.5" x2="128" y2="65" gradientUnits="userSpaceOnUse">
<stop stop-color="#1A1A1A" stop-opacity="0"/>
<stop offset="1" stop-color="#1A1A1A"/>
</linearGradient>
</defs>
</svg>
